<?xml version="1.0" encoding="utf-8"?>
<!-- Generator: Adobe Illustrator 16.0.0, SVG Export Plug-In . SVG Version: 6.00 Build 0)  -->
<!DOCTYPE svg PUBLIC "-//W3C//DTD SVG 1.1//EN" "http://www.w3.org/Graphics/SVG/1.1/DTD/svg11.dtd">
<svg version="1.1" id="Layer_1" xmlns="http://www.w3.org/2000/svg" xmlns:xlink="http://www.w3.org/1999/xlink" x="0px" y="0px"
	 width="720px" height="503.999px" viewBox="0 0 720 503.999" enable-background="new 0 0 720 503.999" xml:space="preserve">
<symbol  id="New_Symbol" viewBox="-0.763 -0.763 1.526 1.525">
	<path fill="#FFFFFF" d="M0.763,0c0-0.421-0.342-0.762-0.763-0.762S-0.763-0.421-0.763,0S-0.421,0.763,0,0.763S0.763,0.42,0.763,0z"
		/>
</symbol>
<linearGradient id="SVGID_1_" gradientUnits="userSpaceOnUse" x1="360.0005" y1="503.999" x2="360.0005" y2="-0.1245">
	<stop  offset="0.2197" style="stop-color:#CD8565"/>
	<stop  offset="0.2781" style="stop-color:#C58365"/>
	<stop  offset="0.3671" style="stop-color:#B07D66"/>
	<stop  offset="0.4755" style="stop-color:#8E7467"/>
	<stop  offset="0.5983" style="stop-color:#5E6769"/>
	<stop  offset="0.6175" style="stop-color:#566569"/>
	<stop  offset="0.6838" style="stop-color:#465961"/>
	<stop  offset="0.7467" style="stop-color:#334A57"/>
	<stop  offset="0.8862" style="stop-color:#1F3240"/>
</linearGradient>
<rect y="-0.125" fill="url(#SVGID_1_)" width="720" height="504.124"/>
<g>
	<path fill="#E99B8A" d="M62.333,64.5c1.935,0,1.935-3,0-3S60.398,64.5,62.333,64.5L62.333,64.5z"/>
</g>
<g>
	<path fill="#E4DDCC" d="M90.656,13.779c0.019,0.821,0.619,1.362,1.417,1.417c0.966,0.066,0.959-1.435,0-1.5
		c-0.06-0.004,0.074,0.053,0.099,0.119c-0.076-0.2-0.015,0.002-0.016-0.035C92.133,12.813,90.633,12.811,90.656,13.779
		L90.656,13.779z"/>
</g>
<g>
	<circle fill="#D3C3A3" cx="173.789" cy="192.534" r="68.758"/>
	<g>
		<g>
			<path fill="#C6B997" d="M142.793,157.238c-3.551-2.372-7.922-2.811-11.411-0.735c-5.116,3.042-6.394,10.331-2.856,16.276
				c1.057,1.773,2.426,3.221,3.959,4.307c-0.055-0.086-0.113-0.178-0.168-0.262C126.469,168.637,133.713,158.363,142.793,157.238z"
				/>
		</g>
		<g>
			<path fill="#DDCEAC" d="M147.049,161.757c-1.124-1.891-2.601-3.412-4.255-4.519c-9.081,1.125-16.325,11.399-10.476,19.586
				c0.055,0.084,0.113,0.176,0.168,0.262c3.6,2.554,8.12,3.082,11.709,0.947C149.31,174.989,150.588,167.702,147.049,161.757z"/>
		</g>
	</g>
	<g>
		<g>
			<path fill="#C6B997" d="M146.82,193.144c-2.797-1.87-6.242-2.217-8.993-0.579c-4.029,2.397-5.037,8.139-2.249,12.824
				c0.831,1.399,1.912,2.539,3.119,3.392c-0.042-0.064-0.089-0.137-0.134-0.204C133.956,202.125,139.665,194.027,146.82,193.144z"/>
		</g>
		<g>
			<path opacity="0.7" fill="#DDCEAC" d="M150.008,196.662c-0.886-1.488-2.05-2.688-3.353-3.558
				c-7.154,0.884-12.864,8.979-8.256,15.434c0.045,0.064,0.09,0.139,0.135,0.203c2.833,2.011,6.396,2.429,9.224,0.748
				C151.791,207.089,152.794,201.348,150.008,196.662z"/>
		</g>
	</g>
	<g>
		<g>
			<path fill="#C6B997" d="M168.766,171.093c-2.124-1.418-4.736-1.682-6.819-0.442c-3.058,1.82-3.822,6.177-1.707,9.731
				c0.628,1.059,1.447,1.923,2.365,2.569c-0.035-0.051-0.069-0.102-0.101-0.154C159.008,177.902,163.336,171.764,168.766,171.093z"
				/>
		</g>
		<g>
			<path opacity="0.7" fill="#DDCEAC" d="M171.31,173.792c-0.671-1.129-1.555-2.04-2.543-2.7c-5.43,0.671-9.758,6.81-6.262,11.704
				c0.032,0.053,0.066,0.104,0.101,0.154c2.153,1.529,4.853,1.844,6.998,0.568C172.663,181.703,173.423,177.348,171.31,173.792z"/>
		</g>
	</g>
</g>
<g>
	<g>
		<path fill="#E4DDCC" d="M90.333,163.75c0.222,0,0.444,0,0.667,0c0.967,0,0.967-1.5,0-1.5c-0.222,0-0.444,0-0.667,0
			C89.366,162.25,89.366,163.75,90.333,163.75L90.333,163.75z"/>
	</g>
	<g>
		<path fill="#E4DDCC" d="M312.333,121.084c0.967,0,0.967-1.5,0-1.5S311.366,121.084,312.333,121.084L312.333,121.084z"/>
	</g>
	<g>
		<path fill="#E4DDCC" d="M122.333,36.417c0.967,0,0.967-1.5,0-1.5S121.366,36.417,122.333,36.417L122.333,36.417z"/>
	</g>
	<g>
		<path fill="#E4DDCC" d="M29.667,115.75c0.967,0,0.967-1.5,0-1.5S28.699,115.75,29.667,115.75L29.667,115.75z"/>
	</g>
	<g>
		<path fill="#E4DDCC" d="M24.25,37.667c0.019,0.822,0.62,1.363,1.417,1.417c0.966,0.066,0.959-1.435,0-1.5
			c-0.06-0.004,0.074,0.052,0.099,0.118c-0.077-0.2-0.015,0.002-0.016-0.035C25.727,36.701,24.227,36.699,24.25,37.667L24.25,37.667
			z"/>
	</g>
	<g>
		<path fill="#E4DDCC" d="M132.167,111c0,0.222,0,0.444,0,0.667c0,1.935,3,1.935,3,0c0-0.222,0-0.444,0-0.667
			C135.167,109.066,132.167,109.066,132.167,111L132.167,111z"/>
	</g>
	<g>
		<path fill="#E4DDCC" d="M356.333,166.917c-0.247,0-0.494,0-0.741,0c-0.967,0-0.967,1.5,0,1.5c0.247,0,0.494,0,0.741,0
			C357.3,168.417,357.3,166.917,356.333,166.917c-0.247,0-0.494,0-0.741,0c-0.967,0-0.967,1.5,0,1.5c0.247,0,0.494,0,0.741,0
			C357.3,168.417,357.3,166.917,356.333,166.917L356.333,166.917z"/>
	</g>
	<g>
		<path fill="#E4DDCC" d="M232.333,101.084c0.967,0,0.967-1.5,0-1.5S231.366,101.084,232.333,101.084L232.333,101.084z"/>
	</g>
	<g>
		<path fill="#E4DDCC" d="M127.208,32.334c0,0.222,0,0.444,0,0.667c0,1.451,2.25,1.451,2.25,0c0-0.222,0-0.444,0-0.667
			C129.458,30.883,127.208,30.883,127.208,32.334L127.208,32.334z"/>
	</g>
	<g>
		<path fill="#E4DDCC" d="M361.666,165.75c0.223,0,0.444,0,0.667,0c0.968,0,0.968-1.5,0-1.5c-0.223,0-0.444,0-0.667,0
			C360.699,164.25,360.699,165.75,361.666,165.75L361.666,165.75z"/>
	</g>
	<g>
		<g>
			<path fill="#E4DDCC" d="M185.208,38.334c0,0.222,0,0.444,0,0.667c0,1.451,2.25,1.451,2.25,0c0-0.222,0-0.444,0-0.667
				C187.458,36.883,185.208,36.883,185.208,38.334L185.208,38.334z"/>
		</g>
		<g>
			<path fill="#E4DDCC" d="M379.666,42.792c1.451,0,1.451-2.25,0-2.25S378.215,42.792,379.666,42.792L379.666,42.792z"/>
		</g>
		<g>
			<path fill="#E4DDCC" d="M210.333,44.792c1.451,0,1.451-2.25,0-2.25S208.882,44.792,210.333,44.792L210.333,44.792z"/>
		</g>
		<g>
			<path fill="#E4DDCC" d="M366.204,58.462c0.583,0.57,1.312,0.944,2.129,0.997c0.612,0.039,1.125-0.542,1.125-1.125
				c0-0.643-0.514-1.086-1.125-1.125c0.134,0.008-0.173-0.064-0.074-0.02c-0.114-0.052-0.22-0.125-0.323-0.194
				c0.155,0.104-0.099-0.083-0.14-0.124C366.758,55.856,365.166,57.446,366.204,58.462L366.204,58.462z"/>
		</g>
		<g>
			<path fill="#E4DDCC" d="M265,14.125c0.222,0,0.445,0,0.667,0c1.451,0,1.451-2.25,0-2.25c-0.222,0-0.445,0-0.667,0
				C263.549,11.875,263.549,14.125,265,14.125L265,14.125z"/>
		</g>
		<g>
			<path fill="#E4DDCC" d="M215.667,16.792c0.222,0,0.444,0,0.667,0c1.451,0,1.451-2.25,0-2.25c-0.222,0-0.444,0-0.667,0
				C214.216,14.542,214.216,16.792,215.667,16.792L215.667,16.792z"/>
		</g>
		<g>
			<path fill="#E4DDCC" d="M301.875,51c0.024,1.033,0.787,1.723,1.792,1.792c0.612,0.042,1.125-0.543,1.125-1.125
				c0-0.645-0.513-1.083-1.125-1.125c0.247,0.017,0.382,0.19,0.46,0.394c-0.104-0.27,0,0.146-0.002,0.064
				C304.091,49.552,301.841,49.549,301.875,51L301.875,51z"/>
		</g>
		<g>
			<path fill="#E4DDCC" d="M374.541,19c-0.004,0.164,0.062-0.343,0.016-0.126c-0.034,0.108-0.021,0.083,0.037-0.075
				c0.072-0.145,0.25-0.247,0.406-0.257c-0.611,0.042-1.125,0.48-1.125,1.125c0,0.582,0.513,1.167,1.125,1.125
				c1.005-0.068,1.767-0.758,1.791-1.792C376.825,17.549,374.574,17.552,374.541,19L374.541,19z"/>
		</g>
		<g>
			<path fill="#E4DDCC" d="M332.333,24.125c0.222,0,0.444,0,0.667,0c1.451,0,1.451-2.25,0-2.25c-0.222,0-0.444,0-0.667,0
				C330.882,21.875,330.882,24.125,332.333,24.125L332.333,24.125z"/>
		</g>
		<g>
			<path fill="#E4DDCC" d="M385.666,17.459c1.451,0,1.451-2.25,0-2.25S384.215,17.459,385.666,17.459L385.666,17.459z"/>
		</g>
		<g>
			<path fill="#E4DDCC" d="M352.333,12.125c1.451,0,1.451-2.25,0-2.25S350.882,12.125,352.333,12.125L352.333,12.125z"/>
		</g>
		<g>
			<path fill="#E4DDCC" d="M185.667,14.792c0.485-0.001,0.995-0.032,1.361-0.397c0.385-0.385,0.43-0.879,0.431-1.394
				c0.002-1.451-2.248-1.451-2.25,0c0,0.084-0.053,0.54,0.016,0.17c0.159-0.407,0.415-0.618,0.768-0.634
				c-0.107,0.01-0.218,0.005-0.325,0.005C184.216,12.544,184.215,14.794,185.667,14.792L185.667,14.792z"/>
		</g>
	</g>
	<g>
		<path fill="#E4DDCC" d="M44.871,17.129c0.583,0.569,1.312,0.944,2.128,0.996c0.613,0.039,1.125-0.542,1.125-1.125
			c0-0.643-0.513-1.086-1.125-1.125c0.134,0.008-0.172-0.064-0.074-0.019c-0.114-0.053-0.219-0.125-0.323-0.194
			c0.156,0.104-0.098-0.083-0.14-0.124C45.424,14.524,43.832,16.114,44.871,17.129L44.871,17.129z"/>
	</g>
	<g>
		<path fill="#E4DDCC" d="M270.333,94.417c0.967,0,0.967-1.5,0-1.5S269.366,94.417,270.333,94.417L270.333,94.417z"/>
	</g>
	<g>
		<path fill="#E4DDCC" d="M30.25,173.667c0,0.444,0,0.889,0,1.333c0,0.967,1.5,0.967,1.5,0c0-0.444,0-0.889,0-1.333
			C31.75,172.7,30.25,172.7,30.25,173.667L30.25,173.667z"/>
	</g>
	<g>
		<path fill="#E4DDCC" d="M94.25,97c0,0.222,0,0.444,0,0.667c0,0.967,1.5,0.967,1.5,0c0-0.222,0-0.444,0-0.667
			C95.75,96.033,94.25,96.033,94.25,97L94.25,97z"/>
	</g>
	<g>
		<path fill="#E4DDCC" d="M168.917,85c0,0.222,0,0.444,0,0.667c0,0.967,1.5,0.967,1.5,0c0-0.222,0-0.444,0-0.667
			C170.417,84.033,168.917,84.033,168.917,85L168.917,85z"/>
	</g>
</g>
<line fill="#E4DDCC" x1="341.667" y1="89" x2="342.333" y2="89"/>
<g>
	<g>
		<path fill="#E4DDCC" d="M497.666,119.084c0.967,0,0.967-1.5,0-1.5S496.699,119.084,497.666,119.084L497.666,119.084z"/>
	</g>
	<g>
		<path fill="#E4DDCC" d="M549.583,39.667c0.083,1.188,1.067,1.416,2.083,1.417c0.968,0.001,0.967-1.499,0-1.5
			c-0.174,0-0.347-0.002-0.521-0.013c-0.269-0.016-0.074-0.069-0.062,0.096C551.016,38.708,549.516,38.701,549.583,39.667
			L549.583,39.667z"/>
	</g>
	<g>
		<path fill="#E4DDCC" d="M662.333,52.417c0.839-0.001,1.281-0.305,1.863-0.886c0.685-0.684-0.376-1.745-1.061-1.061
			c-0.151,0.152-0.304,0.336-0.481,0.448c0.115-0.073-0.101,0.002,0.01-0.007c-0.109,0.009-0.222,0.005-0.331,0.005
			C661.365,50.918,661.365,52.418,662.333,52.417L662.333,52.417z"/>
	</g>
	<g>
		<path fill="#E4DDCC" d="M699,133.75c1.016-0.001,2-0.229,2.083-1.417c0.067-0.966-1.433-0.959-1.5,0
			c0.008-0.11,0.217-0.156-0.025-0.1c-0.173,0.04-0.382,0.016-0.558,0.016C698.033,132.252,698.032,133.752,699,133.75L699,133.75z"
			/>
	</g>
	<g>
		<path fill="#E4DDCC" d="M586.333,189.084c0.223,0,0.444,0,0.667,0c0.967,0,0.967-1.5,0-1.5c-0.223,0-0.444,0-0.667,0
			C585.365,187.584,585.365,189.084,586.333,189.084L586.333,189.084z"/>
	</g>
	<g>
		<path fill="#E4DDCC" d="M551,27.75c0.222,0,0.444,0,0.666,0c0.967,0,0.967-1.5,0-1.5c-0.222,0-0.444,0-0.666,0
			C550.033,26.25,550.033,27.75,551,27.75L551,27.75z"/>
	</g>
	<g>
		<path fill="#E4DDCC" d="M482.333,111.084c0.968,0,0.968-1.5,0-1.5S481.365,111.084,482.333,111.084L482.333,111.084z"/>
	</g>
	<g>
		<path fill="#E4DDCC" d="M647,62.417c0.967,0,0.967-1.5,0-1.5S646.033,62.417,647,62.417L647,62.417z"/>
	</g>
	<g>
		<path fill="#E4DDCC" d="M611.666,127.75c0.967,0,0.967-1.5,0-1.5S610.699,127.75,611.666,127.75L611.666,127.75z"/>
	</g>
	<g>
		<path fill="#E4DDCC" d="M598.416,193.667c0-0.038,0.024-0.414-0.002-0.27c-0.083,0.225-0.219,0.345-0.406,0.358
			c0.107-0.01,0.218-0.005,0.325-0.005c0.968-0.001,0.968-1.501,0-1.5c-0.379,0-0.808-0.001-1.097,0.288
			c-0.309,0.309-0.319,0.718-0.32,1.129C596.914,194.634,598.414,194.634,598.416,193.667L598.416,193.667z"/>
	</g>
	<g>
		<path fill="#E4DDCC" d="M685,133.084c0.967,0,0.967-1.5,0-1.5S684.033,133.084,685,133.084L685,133.084z"/>
	</g>
	<g>
		<path fill="#E4DDCC" d="M464.25,140.334c-0.007,0.094-0.207,0.231-0.274,0.309c-0.261,0.301-0.366,0.631-0.393,1.024
			c-0.065,0.966,1.435,0.959,1.5,0c0.007-0.094,0.207-0.231,0.274-0.309c0.26-0.301,0.366-0.631,0.393-1.024
			C465.815,139.368,464.315,139.375,464.25,140.334L464.25,140.334z"/>
	</g>
	<g>
		<path fill="#E4DDCC" d="M440.333,11.75c0.223,0,0.444,0,0.667,0c0.967,0,0.967-1.5,0-1.5c-0.223,0-0.444,0-0.667,0
			C439.365,10.25,439.365,11.75,440.333,11.75L440.333,11.75z"/>
	</g>
	<g>
		<path fill="#E4DDCC" d="M453.583,16.334c0,0.222,0,0.444,0,0.667c0,0.967,1.5,0.967,1.5,0c0-0.222,0-0.444,0-0.667
			C455.083,15.367,453.583,15.367,453.583,16.334L453.583,16.334z"/>
	</g>
	<g>
		<path fill="#E4DDCC" d="M635.583,19c0,0.222,0,0.444,0,0.667c0,0.967,1.5,0.967,1.5,0c0-0.222,0-0.444,0-0.667
			C637.083,18.033,635.583,18.033,635.583,19L635.583,19z"/>
	</g>
	<g>
		<path fill="#E4DDCC" d="M681.666,17.584c-0.222,0-0.444,0-0.666,0c-0.967,0-0.967,1.5,0,1.5c0.222,0,0.444,0,0.666,0
			C682.633,19.084,682.633,17.584,681.666,17.584L681.666,17.584z"/>
	</g>
	<g>
		<path fill="#E4DDCC" d="M445.083,79.667c-0.015,0.21-0.484,0.183-0.315,0.257c0.145,0.063,0.255,0.167,0.368,0.273
			c0.705,0.66,1.769-0.398,1.061-1.061c-0.456-0.426-1.039-0.819-1.694-0.69c-0.607,0.119-0.879,0.65-0.919,1.221
			C443.516,80.633,445.016,80.626,445.083,79.667L445.083,79.667z"/>
	</g>
	<g>
		<path fill="#E4DDCC" d="M502.916,16.334c0.02,0.822,0.619,1.362,1.417,1.417c0.966,0.066,0.96-1.435,0-1.5
			c-0.06-0.004,0.073,0.053,0.099,0.119c-0.076-0.2-0.015,0.002-0.016-0.035C504.394,15.368,502.894,15.366,502.916,16.334
			L502.916,16.334z"/>
	</g>
	<g>
		<path fill="#E4DDCC" d="M569,85.75c0.821-0.019,1.361-0.62,1.416-1.417c0.065-0.966-1.435-0.959-1.5,0
			c-0.004,0.059,0.053-0.074,0.119-0.1c-0.2,0.077,0.002,0.015-0.035,0.016C568.034,84.273,568.032,85.773,569,85.75L569,85.75z"/>
	</g>
	<g>
		<path fill="#E4DDCC" d="M709.583,7.667c0,0.077,0,0.154-0.002,0.231c-0.026,0.271,0.075,0.144,0.306-0.381
			c0.126-0.034,0.252-0.068,0.379-0.103c0.344,0.166,0.43,0.18,0.256,0.042c-0.112-0.102-0.218-0.213-0.325-0.32
			c-0.685-0.684-1.746,0.376-1.061,1.061c0.352,0.351,0.77,0.845,1.329,0.691c0.565-0.156,0.617-0.732,0.618-1.221
			C711.085,6.7,709.585,6.7,709.583,7.667L709.583,7.667z"/>
	</g>
	<g>
		<path fill="#E4DDCC" d="M697.666,77.084c0.967,0,0.967-1.5,0-1.5S696.699,77.084,697.666,77.084L697.666,77.084z"/>
	</g>
	<g>
		<path fill="#E4DDCC" d="M584.25,17.667c0,0.222,0,0.445,0,0.667c0,0.967,1.5,0.967,1.5,0c0-0.222,0-0.445,0-0.667
			C585.75,16.7,584.25,16.7,584.25,17.667L584.25,17.667z"/>
	</g>
	<g>
		<path fill="#E4DDCC" d="M397.666,111.084c0.223,0,0.444,0,0.667,0c0.968,0,0.968-1.5,0-1.5c-0.223,0-0.444,0-0.667,0
			C396.699,109.584,396.699,111.084,397.666,111.084L397.666,111.084z"/>
	</g>
	<g>
		<path fill="#E4DDCC" d="M493.666,67.75c0.223,0,0.444,0,0.667,0c0.968,0,0.968-1.5,0-1.5c-0.223,0-0.444,0-0.667,0
			C492.699,66.25,492.699,67.75,493.666,67.75L493.666,67.75z"/>
	</g>
	<g>
		<path fill="#E4DDCC" d="M670.916,47.667c-0.004,0.06,0.053-0.074,0.119-0.099c-0.2,0.077,0.002,0.015-0.035,0.016
			c-0.966,0.022-0.968,1.522,0,1.5c0.821-0.019,1.361-0.62,1.416-1.417C672.481,46.701,670.981,46.708,670.916,47.667
			L670.916,47.667z"/>
	</g>
	<g>
		<path fill="#E4DDCC" d="M686.916,15c-0.004,0.059,0.053-0.074,0.119-0.099c-0.2,0.077,0.002,0.015-0.035,0.016
			c-0.966,0.022-0.968,1.522,0,1.5c0.821-0.019,1.361-0.62,1.416-1.417C688.481,14.035,686.981,14.041,686.916,15L686.916,15z"/>
	</g>
	<g>
		<path fill="#E4DDCC" d="M617,127.084c0.222,0,0.444,0,0.666,0c0.967,0,0.967-1.5,0-1.5c-0.222,0-0.444,0-0.666,0
			C616.033,125.584,616.033,127.084,617,127.084L617,127.084z"/>
	</g>
	<g>
		<path fill="#E4DDCC" d="M490.333,72.417c0.968,0,0.968-1.5,0-1.5S489.365,72.417,490.333,72.417L490.333,72.417z"/>
	</g>
	<g>
		<path fill="#E4DDCC" d="M621.666,15.084c0.967,0,0.967-1.5,0-1.5S620.699,15.084,621.666,15.084L621.666,15.084z"/>
	</g>
	<g>
		<path fill="#E4DDCC" d="M440.333,115.084c0.444,0,0.889,0,1.333,0c0.967,0,0.967-1.5,0-1.5c-0.444,0-0.889,0-1.333,0
			C439.365,113.584,439.365,115.084,440.333,115.084L440.333,115.084z"/>
	</g>
	<g>
		<path fill="#E4DDCC" d="M662.333,95.75c0.821-0.019,1.362-0.619,1.417-1.417c0.066-0.966-1.435-0.959-1.5,0
			c-0.004,0.06,0.053-0.074,0.118-0.1c-0.199,0.077,0.002,0.015-0.035,0.016C661.367,94.273,661.365,95.773,662.333,95.75
			L662.333,95.75z"/>
	</g>
	<g>
		<path fill="#E4DDCC" d="M698.47,48.864c0.335,0.36,0.335,0.58,0,0.939c-0.658,0.707,0.399,1.77,1.061,1.061
			c0.903-0.969,0.903-2.092,0-3.061C698.869,47.095,697.811,48.158,698.47,48.864L698.47,48.864z"/>
	</g>
	<g>
		<path fill="#E4DDCC" d="M603.666,64.417c0.363,0,0.772-0.032,0.969-0.396c0.081-0.151,0.098-0.253,0.114-0.422
			c0.002-0.068-0.003-0.044-0.014,0.07c-0.014,0.074,0.088-0.095,0.128-0.138c0.659-0.706-0.399-1.769-1.061-1.061
			c-0.334,0.357-0.507,0.671-0.556,1.154c0.034-0.126,0.068-0.252,0.103-0.379c0.218-0.404,0.793-0.33,0.316-0.329
			C602.699,62.918,602.698,64.418,603.666,64.417L603.666,64.417z"/>
	</g>
	<g>
		<path fill="#E4DDCC" d="M447.803,53.531c0.223,0.222,0.444,0.444,0.667,0.667c0.685,0.685,1.745-0.376,1.061-1.061
			c-0.223-0.222-0.444-0.444-0.667-0.667C448.179,51.786,447.118,52.847,447.803,53.531L447.803,53.531z"/>
	</g>
	<g>
		<path fill="#E4DDCC" d="M621.803,100.864c0.223,0.222,0.444,0.444,0.667,0.667c0.685,0.685,1.745-0.376,1.061-1.061
			c-0.223-0.222-0.444-0.444-0.667-0.667C622.179,99.119,621.118,100.18,621.803,100.864L621.803,100.864z"/>
	</g>
	<g>
		<path fill="#E4DDCC" d="M546.333,130.917c-0.223,0-0.444,0-0.667,0c-0.967,0-0.967,1.5,0,1.5c0.223,0,0.444,0,0.667,0
			C547.301,132.417,547.301,130.917,546.333,130.917L546.333,130.917z"/>
	</g>
	<g>
		<path fill="#E4DDCC" d="M667.666,187.084c0.967,0,0.967-1.5,0-1.5S666.699,187.084,667.666,187.084L667.666,187.084z"/>
	</g>
	<g>
		<path fill="#E4DDCC" d="M625,50.417c0.222,0,0.444,0,0.666,0c0.967,0,0.967-1.5,0-1.5c-0.222,0-0.444,0-0.666,0
			C624.033,48.917,624.033,50.417,625,50.417L625,50.417z"/>
	</g>
	<g>
		<path fill="#E4DDCC" d="M600.333,41.084c0.968,0,0.968-1.5,0-1.5S599.365,41.084,600.333,41.084L600.333,41.084z"/>
	</g>
	<g>
		<path fill="#E4DDCC" d="M610.532,139.611c-0.137-0.035-0.272-0.069-0.409-0.104c-0.244,0.418-0.486,0.835-0.73,1.253
			c0.247,0.099,0.494,0.198,0.741,0.296C611.032,141.417,611.419,139.966,610.532,139.611c-0.247-0.099-0.493-0.198-0.74-0.296
			c-0.728-0.291-1.226,0.757-0.729,1.253c0.34,0.341,0.572,0.365,1.071,0.489C611.072,141.292,611.471,139.845,610.532,139.611
			L610.532,139.611z"/>
	</g>
	<g>
		<path fill="#E4DDCC" d="M638.333,134.417c0.968,0,0.968-1.5,0-1.5S637.365,134.417,638.333,134.417L638.333,134.417z"/>
	</g>
</g>
<polygon fill="#FEF9C8" points="504.741,43.334 507.87,40.127 504.497,42.881 504.333,38.668 503.974,42.777 500.796,40.127 
	503.94,43.266 499.329,43.668 503.767,43.668 500.796,47.209 504.147,43.926 504.333,48.666 504.601,43.961 507.87,47.209 
	504.88,43.668 509.337,43.668 "/>
<polygon fill="#FEF9C8" points="546.741,145.527 549.87,142.32 546.497,145.074 546.333,140.861 545.974,144.97 542.796,142.32 
	545.94,145.458 541.329,145.861 545.767,145.861 542.796,149.402 546.147,146.119 546.333,150.859 546.601,146.154 549.87,149.402 
	546.88,145.861 551.337,145.861 "/>
<polygon fill="#FEF9C8" points="674.557,26.667 677.686,23.46 674.312,26.214 674.148,22.001 673.789,26.111 670.611,23.46 
	673.756,26.599 669.145,27.001 673.582,27.001 670.611,30.542 673.963,27.259 674.148,32 674.416,27.294 677.686,30.542 
	674.695,27.001 679.152,27.001 "/>
<polygon fill="#FEF9C8" points="623.625,82.439 625.963,80.042 623.443,82.101 623.32,78.951 623.053,82.023 620.678,80.042 
	623.027,82.388 619.582,82.688 622.898,82.688 620.678,85.333 623.184,82.882 623.32,86.424 623.521,82.908 625.963,85.333 
	623.73,82.688 627.061,82.688 "/>
<polygon fill="#FEF9C8" points="220.376,86.176 222.714,83.779 220.194,85.838 220.071,82.688 219.804,85.76 217.429,83.779 
	219.778,86.125 216.333,86.425 219.649,86.425 217.429,89.07 219.935,86.619 220.071,90.161 220.272,86.645 222.714,89.07 
	220.481,86.425 223.812,86.425 "/>
<polygon fill="#FEF9C8" points="22.694,127.396 25.032,125 22.513,127.059 22.39,123.908 22.122,126.98 19.747,125 22.097,127.346 
	18.651,127.646 21.968,127.646 19.747,130.291 22.253,127.84 22.39,131.382 22.591,127.865 25.032,130.291 22.8,127.646 
	26.13,127.646 "/>
<polygon fill="#FEF9C8" points="694.275,93.292 697.797,89.683 694.002,92.784 693.816,88.039 693.414,92.666 689.837,89.683 
	693.376,93.216 688.187,93.667 693.182,93.667 689.837,97.652 693.611,93.96 693.816,99.295 694.12,93.999 697.797,97.652 
	694.435,93.667 699.45,93.667 "/>
<polygon fill="#FEF9C8" points="327.176,75.897 331.286,71.682 326.856,75.301 326.64,69.767 326.169,75.164 321.992,71.682 
	326.123,75.807 320.064,76.334 325.895,76.334 321.992,80.988 326.397,76.674 326.64,82.902 326.994,76.721 331.286,80.988 
	327.359,76.334 333.215,76.334 "/>
<polygon fill="#FEF9C8" points="157.551,31.984 160.839,28.613 157.295,31.508 157.122,27.08 156.746,31.398 153.404,28.613 
	156.708,31.912 151.862,32.334 156.526,32.334 153.404,36.057 156.928,32.606 157.122,37.588 157.406,32.644 160.839,36.057 
	157.698,32.334 162.382,32.334 "/>
<g>
	<path fill="#F0A87F" d="M344.975,307.143c-4.025,0-7.732,1.32-10.747,3.531c-4.425-5.793-11.401-9.532-19.253-9.532
		c-0.966,0-1.918,0.063-2.854,0.173c-5.466-12.839-18.197-21.842-33.032-21.842c-15.634,0-28.926,10.002-33.846,23.952
		c-3.118-1.462-6.596-2.283-10.268-2.283c-10.551,0-19.521,6.749-22.841,16.164c-2.457-1.234-5.222-1.946-8.159-1.946
		c-10.062,0-18.218,8.156-18.218,18.219c0,2.54,0.523,4.958,1.462,7.155c4.885,1.296,9.769,2.55,14.654,1.939
		c53.801-8.833,105.024-4.132,157.81-6.595c2.197-3.01,3.51-6.706,3.51-10.719C363.192,315.299,355.036,307.143,344.975,307.143z"/>
	<path fill="#F0A87F" d="M164.259,300.975c-3.39,0-6.512,1.112-9.051,2.974c-3.727-4.878-9.601-8.027-16.214-8.027
		c-0.814,0-1.615,0.054-2.404,0.146c-4.604-10.812-15.325-18.395-27.818-18.395c-13.167,0-24.361,8.424-28.504,20.172
		c-2.626-1.231-5.555-1.923-8.647-1.923c-8.886,0-16.44,5.684-19.236,13.613c-2.069-1.04-4.397-1.64-6.871-1.64
		c-8.473,0-15.342,6.869-15.342,15.344c0,2.139,0.44,4.175,1.231,6.025c4.114,1.092,8.228,2.147,12.341,1.634
		c45.31-7.439,88.448-3.48,132.902-5.554c1.851-2.535,2.956-5.648,2.956-9.027C179.602,307.844,172.732,300.975,164.259,300.975z"/>
	<path fill="#F0A87F" d="M573.185,266.786c-4.495,0.175-8.595,1.363-11.894,3.217c-5.115-4.32-13.016-6.931-21.782-6.591
		c-1.08,0.042-2.141,0.133-3.183,0.259c-6.491-9.766-20.978-16.227-37.54-15.583c-17.455,0.678-31.993,9.046-37.063,20.126
		c-3.524-1.004-7.433-1.492-11.531-1.333c-11.781,0.458-21.591,6.104-25.013,13.583c-2.781-0.854-5.891-1.29-9.168-1.163
		c-11.233,0.437-20.094,7.144-19.789,14.983c0.077,1.979,0.733,3.839,1.85,5.511c1.686,6.575,10.927,10.775,16.363,10.089
		c59.798-9.215,117.186-16.988,176.045-21.193c2.362-2.44,3.716-5.377,3.595-8.503C593.77,272.351,584.416,266.351,573.185,266.786z
		"/>
	<path fill="#F0A87F" d="M693.305,281.279c-13.167,0-24.361,7.284-28.504,17.444c-2.626-1.065-5.555-1.663-8.646-1.663
		c-8.887,0-16.44,4.915-19.236,11.772c-2.069-0.899-4.398-1.418-6.871-1.418c-8.474,0-15.343,5.94-15.343,13.269
		c0,1.85,0.44,3.61,1.231,5.211c4.113,0.944,8.228,1.856,12.342,1.413c31.225-4.434,61.418-4.187,91.723-4.19v-27.941
		C714.923,286.912,704.879,281.279,693.305,281.279z"/>
	<polygon fill="#415262" points="0,360.955 163.601,291.987 314.888,394.896 488.16,449.05 -0.309,436.362 	"/>
	<g>
		<polygon fill="#1B1B26" points="42.227,448.609 44.006,448.609 44.006,345.185 		"/>
		<polygon fill="#1B1B26" points="44.006,448.609 46.17,448.609 44.02,319.85 		"/>
		<polygon fill="#1B1B26" points="15.323,442.121 42.227,442.121 44.006,339.111 44.006,318.803 36.677,350.208 42.227,355.441 
			35.839,353.35 33.538,363.188 38.354,365.282 32.493,365.282 26.42,392.29 35.005,398.779 25.373,397.524 		"/>
		<polygon fill="#1B1B26" points="72.688,442.121 46.203,442.121 44.006,318.803 51.334,350.208 45.787,355.441 52.17,353.35 
			54.476,363.188 49.658,365.282 55.521,365.282 61.593,392.29 53.008,398.779 62.641,397.524 		"/>
		<polygon fill="#1B1B26" points="44.007,434.373 64.454,430.188 44.007,432.651 		"/>
		<polygon fill="#1B1B26" points="44.012,406.595 44.012,408.818 60.005,405.98 		"/>
		<polygon fill="#1B1B26" points="44.014,385.592 44.014,387.964 53.428,385.592 		"/>
		<polygon fill="#1B1B26" points="44.016,362.072 43.936,363.885 50.078,362.072 		"/>
		<polygon fill="#1B1B26" points="43.115,414.971 43.115,416.927 29.665,412.598 		"/>
		<polygon fill="#1B1B26" points="44.014,374.039 44.014,375.996 36.62,373.237 		"/>
	</g>
	<g>
		<polygon fill="#1B1B26" points="4.998,445.438 6.917,445.438 6.917,333.85 		"/>
		<polygon fill="#1B1B26" points="6.917,445.438 9.252,445.438 6.934,306.518 		"/>
		<polygon fill="#1B1B26" points="0,335.03 0,340.205 4.998,344.918 0,343.279 0,355.18 0.818,355.535 0,355.535 0,438.436 
			4.998,438.436 6.917,327.299 6.917,305.389 		"/>
		<polygon fill="#1B1B26" points="37.864,438.436 9.29,438.436 6.917,305.389 14.824,339.271 8.837,344.918 15.727,342.659 
			18.212,353.276 13.016,355.535 19.341,355.535 25.892,384.675 16.63,391.677 27.021,390.321 		"/>
		<polygon fill="#1B1B26" points="6.919,430.078 28.979,425.561 6.919,428.22 		"/>
		<polygon fill="#1B1B26" points="6.923,400.106 6.923,402.508 24.178,399.444 		"/>
		<polygon fill="#1B1B26" points="6.926,377.446 6.926,380.007 17.083,377.446 		"/>
		<polygon fill="#1B1B26" points="6.928,352.071 6.842,354.028 13.467,352.071 		"/>
		<polygon fill="#1B1B26" points="5.958,409.145 0,408.094 0,409.338 5.958,411.254 		"/>
		<polygon fill="#1B1B26" points="6.926,364.983 0,364.232 0,364.51 6.926,367.092 		"/>
	</g>
	<polygon fill="#415262" points="720.071,336.693 582.662,279 210.333,346.471 397.666,434.232 720,472 	"/>
	<path fill="#495B6B" d="M-0.309,436.362l83.508-11.083c0,0,298.854,0.518,344.261,9.159
		c52.353,9.963,292.873,32.963,292.873,32.963L720,503.999H0L-0.309,436.362z"/>
	<g>
		<polygon fill="#353447" points="27.662,450.072 25.742,450.072 25.742,338.484 		"/>
		<polygon fill="#282733" points="25.742,450.072 23.407,450.072 25.725,311.152 		"/>
		<polygon fill="#B5A986" points="56.688,443.07 27.662,443.07 25.742,331.934 25.742,310.023 33.649,343.906 27.662,349.553 
			34.551,347.294 37.037,357.911 31.841,360.17 38.166,360.17 44.716,389.31 35.455,396.312 45.845,394.956 		"/>
		<polygon fill="#544F4D" points="25.742,310.023 17.835,343.906 23.822,349.553 16.932,347.294 14.447,357.911 19.643,360.17 
			13.318,360.17 6.767,389.31 16.029,396.312 5.638,394.956 0,419.976 0,443.07 23.37,443.07 		"/>
		<polygon fill="#282733" points="25.74,434.713 3.68,430.195 25.74,432.854 		"/>
		<polygon fill="#282733" points="25.736,404.741 25.736,407.143 10.268,404.741 		"/>
		<polygon fill="#282733" points="25.733,382.081 25.733,384.642 15.577,382.081 		"/>
		<polygon fill="#282733" points="25.458,356.706 25.47,358.561 19.192,356.706 		"/>
		<polygon fill="#353447" points="26.702,413.779 26.702,415.889 41.215,411.22 		"/>
		<polygon fill="#353447" points="25.733,369.618 25.733,371.727 33.708,368.753 		"/>
	</g>
	<path opacity="0.9" fill="#F7C1A6" d="M665.414,304.121v3.827c0,0-4.569-4.077-14.86-1.577c-8.096,1.967-14.178,7.865-13.685,6.956
		C641.322,305.121,651.484,299.496,665.414,304.121z"/>
	<polygon opacity="0.5" fill="#21212B" points="18.002,504.479 72.501,504.479 90.333,480 42.335,480 	"/>
	<polygon fill="#292838" points="163.601,291.987 111.102,352.346 157.6,352.346 122.333,375.5 169.667,375.5 103.002,426 
		407.948,435.09 	"/>
	<polygon fill="#292838" points="582.662,279 557.13,314.287 583.043,321.139 530.545,352.346 603.13,375.5 454.333,444.698 
		720,472 720.071,336.693 	"/>
	<g>
		<polygon fill="#1B1B26" points="650.167,468.779 652.087,468.779 652.087,357.191 		"/>
		<polygon fill="#1B1B26" points="652.087,468.779 654.422,468.779 652.104,329.859 		"/>
		<polygon fill="#1B1B26" points="621.141,461.777 650.167,461.777 652.087,350.641 652.087,328.73 644.18,362.613 650.167,368.26 
			643.277,366.001 640.792,376.618 645.987,378.877 639.663,378.877 633.112,408.017 642.374,415.019 631.983,413.663 		"/>
		<polygon fill="#1B1B26" points="683.033,461.777 654.459,461.777 652.087,328.73 659.993,362.613 654.007,368.26 660.896,366.001 
			663.382,376.618 658.186,378.877 664.511,378.877 671.062,408.017 661.8,415.019 672.19,413.663 		"/>
		<polygon fill="#1B1B26" points="652.089,453.42 674.148,448.902 652.089,451.562 		"/>
		<polygon fill="#1B1B26" points="652.093,423.448 652.093,425.85 669.348,422.786 		"/>
		<polygon fill="#1B1B26" points="652.096,400.788 652.096,403.349 662.252,400.788 		"/>
		<polygon fill="#1B1B26" points="652.098,375.413 652.012,377.37 658.637,375.413 		"/>
		<polygon fill="#1B1B26" points="651.127,432.486 651.127,434.596 636.613,429.927 		"/>
		<polygon fill="#1B1B26" points="652.096,388.325 652.096,390.434 644.12,387.46 		"/>
	</g>
	<g>
		<polygon fill="#1B1B26" points="713.863,469.291 716.124,469.291 716.124,337.871 		"/>
		<polygon fill="#1B1B26" points="716.124,469.291 718.874,469.291 716.144,305.681 		"/>
		<polygon fill="#1B1B26" points="679.678,461.045 713.863,461.045 716.124,330.155 716.124,304.352 706.812,344.256 
			713.863,350.906 705.749,348.246 702.822,360.75 708.94,363.41 701.492,363.41 693.777,397.729 704.685,405.976 692.447,404.379 
					"/>
		<polygon fill="#1B1B26" points="718.385,350.906 720.333,349.068 720.333,322.389 716.124,304.352 718.918,461.045 
			720.333,461.045 720.333,350.268 		"/>
		<polygon fill="#1B1B26" points="716.126,449.013 716.126,451.202 720.333,450.341 720.333,448.506 		"/>
		<polygon fill="#1B1B26" points="716.131,415.903 716.131,418.731 720.333,417.985 720.333,415.742 		"/>
		<polygon fill="#1B1B26" points="716.135,389.216 716.135,392.231 720.333,391.173 720.333,389.216 		"/>
		<line fill="#1B1B26" x1="720.333" y1="359.331" x2="720.333" y2="360.366"/>
		<polygon fill="#1B1B26" points="716.137,359.331 716.035,361.636 720.333,360.366 720.333,359.331 		"/>
		<polygon fill="#1B1B26" points="714.993,426.548 714.993,429.032 697.9,423.533 		"/>
		<polygon fill="#1B1B26" points="716.135,374.538 716.135,377.021 706.741,373.519 		"/>
	</g>
	<g>
		<polygon fill="#20202B" points="590.362,464.574 591.962,464.574 591.962,371.588 		"/>
		<polygon fill="#20202B" points="591.962,464.574 593.907,464.574 591.976,348.812 		"/>
		<polygon fill="#20202B" points="566.175,458.739 590.362,458.739 591.962,366.129 591.962,347.871 585.373,376.105 
			590.362,380.811 584.621,378.929 582.55,387.776 586.879,389.658 581.609,389.658 576.15,413.94 583.868,419.775 575.209,418.646 
					"/>
		<polygon fill="#20202B" points="617.749,458.739 593.938,458.739 591.962,347.871 598.55,376.105 593.562,380.811 
			599.303,378.929 601.374,387.776 597.044,389.658 602.314,389.658 607.773,413.94 600.056,419.775 608.714,418.646 		"/>
		<polygon fill="#20202B" points="591.963,451.775 610.346,448.011 591.963,450.227 		"/>
		<polygon fill="#20202B" points="591.967,426.8 591.967,428.801 606.345,426.248 		"/>
		<polygon fill="#20202B" points="591.97,407.917 591.97,410.051 600.433,407.917 		"/>
		<polygon fill="#20202B" points="591.971,386.771 591.899,388.402 597.42,386.771 		"/>
		<polygon fill="#20202B" points="591.162,434.331 591.162,436.089 579.067,432.198 		"/>
		<polygon fill="#20202B" points="591.97,397.531 591.97,399.289 585.323,396.811 		"/>
	</g>
	<g>
		<polygon fill="#1B1B26" points="422.885,440.965 424.001,440.965 424.001,376.099 		"/>
		<polygon fill="#1B1B26" points="424.001,440.965 425.358,440.965 424.01,360.21 		"/>
		<polygon fill="#1B1B26" points="406.012,436.896 422.885,436.896 424.001,372.29 424.001,359.554 419.404,379.25 422.885,382.532 
			418.879,381.22 417.436,387.392 420.455,388.704 416.779,388.704 412.971,405.644 418.354,409.714 412.314,408.926 		"/>
		<polygon fill="#1B1B26" points="441.99,436.896 425.379,436.896 424.001,359.554 428.597,379.25 425.117,382.532 429.122,381.22 
			430.566,387.392 427.546,388.704 431.223,388.704 435.031,405.644 429.646,409.714 435.688,408.926 		"/>
		<polygon fill="#485C6C" points="424.002,432.037 436.825,429.411 424.002,430.956 		"/>
		<polygon fill="#1B1B26" points="424.004,414.614 424.004,416.01 434.035,414.229 		"/>
		<polygon fill="#1B1B26" points="424.006,401.441 424.006,402.93 429.91,401.441 		"/>
		<polygon fill="#1B1B26" points="424.007,386.69 423.957,387.828 427.809,386.69 		"/>
		<polygon fill="#1B1B26" points="423.442,419.868 423.442,421.094 415.006,418.38 		"/>
		<polygon fill="#1B1B26" points="424.006,394.196 424.006,395.423 419.369,393.693 		"/>
	</g>
	<g>
		<polygon fill="#1B1B26" points="485.863,449.05 486.899,449.05 486.899,388.82 		"/>
		<polygon fill="#1B1B26" points="486.899,449.05 488.16,449.05 486.908,374.067 		"/>
		<polygon fill="#1B1B26" points="470.196,445.271 485.863,445.271 486.899,385.284 486.899,373.458 482.632,391.746 
			485.863,394.794 482.144,393.575 480.804,399.306 483.607,400.524 480.194,400.524 476.658,416.253 481.657,420.032 
			476.049,419.301 		"/>
		<polygon fill="#1B1B26" points="503.603,445.271 488.179,445.271 486.899,373.458 491.167,391.746 487.937,394.794 
			491.654,393.575 492.996,399.306 490.191,400.524 493.605,400.524 497.142,416.253 492.142,420.032 497.751,419.301 		"/>
		<polygon fill="#1B1B26" points="486.9,440.76 498.808,438.322 486.9,439.757 		"/>
		<polygon fill="#1B1B26" points="486.902,424.583 486.902,425.879 496.217,424.226 		"/>
		<polygon fill="#1B1B26" points="486.904,412.352 486.904,413.733 492.387,412.352 		"/>
		<polygon fill="#1B1B26" points="486.905,398.655 486.858,399.711 490.436,398.655 		"/>
		<polygon fill="#1B1B26" points="486.381,429.461 486.381,430.6 478.548,428.079 		"/>
		<polygon fill="#1B1B26" points="486.904,405.624 486.904,406.764 482.599,405.157 		"/>
	</g>
	<g>
		<polygon fill="#1B1B26" points="558.281,456.207 559.129,456.207 559.129,406.923 		"/>
		<polygon fill="#1B1B26" points="559.129,456.207 560.16,456.207 559.136,394.851 		"/>
		<polygon fill="#1B1B26" points="545.461,453.115 558.281,453.115 559.129,404.029 559.129,394.352 555.637,409.316 
			558.281,411.811 555.237,410.813 554.141,415.502 556.436,416.5 553.643,416.5 550.749,429.37 554.84,432.462 550.25,431.864 		
			"/>
		<polygon fill="#1B1B26" points="572.797,453.115 560.176,453.115 559.129,394.352 562.621,409.316 559.978,411.811 
			563.02,410.813 564.118,415.502 561.822,416.5 564.616,416.5 567.51,429.37 563.419,432.462 568.009,431.864 		"/>
		<polygon fill="#1B1B26" points="559.13,449.423 568.873,447.429 559.13,448.603 		"/>
		<polygon fill="#1B1B26" points="559.132,436.187 559.132,437.246 566.753,435.894 		"/>
		<polygon fill="#1B1B26" points="559.133,426.178 559.133,427.309 563.619,426.178 		"/>
		<polygon fill="#1B1B26" points="559.134,414.971 559.096,415.834 562.022,414.971 		"/>
		<polygon fill="#1B1B26" points="558.704,440.178 558.704,441.109 552.295,439.047 		"/>
		<polygon fill="#1B1B26" points="559.133,420.673 559.133,421.605 555.609,420.291 		"/>
	</g>
	<g>
		<polygon fill="#1B1B26" points="379.207,438.574 380.322,438.574 380.322,373.708 		"/>
		<polygon fill="#1B1B26" points="380.322,438.574 381.68,438.574 380.332,357.819 		"/>
		<polygon fill="#1B1B26" points="362.333,434.505 379.207,434.505 380.322,369.899 380.322,357.163 375.726,376.859 
			379.207,380.142 375.201,378.829 373.757,385.001 376.776,386.313 373.101,386.313 369.293,403.253 374.676,407.323 
			368.637,406.535 		"/>
		<polygon fill="#1B1B26" points="398.312,434.505 381.701,434.505 380.322,357.163 384.918,376.859 381.438,380.142 
			385.443,378.829 386.889,385.001 383.867,386.313 387.545,386.313 391.353,403.253 385.969,407.323 392.01,406.535 		"/>
		<polygon fill="#1B1B26" points="380.324,429.646 393.146,427.021 380.324,428.565 		"/>
		<polygon fill="#1B1B26" points="380.326,412.224 380.326,413.619 390.356,411.839 		"/>
		<polygon fill="#1B1B26" points="380.328,399.051 380.328,400.539 386.231,399.051 		"/>
		<polygon fill="#1B1B26" points="380.328,384.3 380.279,385.438 384.13,384.3 		"/>
		<polygon fill="#1B1B26" points="379.764,417.478 379.764,418.703 371.327,415.989 		"/>
		<polygon fill="#1B1B26" points="380.328,391.806 380.328,393.032 375.691,391.303 		"/>
	</g>
	<g>
		<polygon fill="#1B1B26" points="457.149,432.281 457.903,432.281 457.903,388.482 		"/>
		<polygon fill="#1B1B26" points="457.903,432.281 458.82,432.281 457.91,377.755 		"/>
		<polygon fill="#1B1B26" points="445.756,429.533 457.149,429.533 457.903,385.911 457.903,377.312 454.799,390.61 
			457.149,392.827 454.445,391.94 453.47,396.108 455.509,396.994 453.027,396.994 450.455,408.432 454.091,411.18 450.012,410.648 
					"/>
		<polygon fill="#1B1B26" points="470.05,429.533 458.834,429.533 457.903,377.312 461.006,390.61 458.656,392.827 461.361,391.94 
			462.336,396.108 460.297,396.994 462.779,396.994 465.351,408.432 461.715,411.18 465.794,410.648 		"/>
		<polygon fill="#1B1B26" points="457.904,426.253 466.562,424.479 457.904,425.523 		"/>
		<polygon fill="#1B1B26" points="457.906,414.489 457.906,415.432 464.678,414.229 		"/>
		<polygon fill="#1B1B26" points="457.906,405.595 457.906,406.6 461.893,405.595 		"/>
		<polygon fill="#1B1B26" points="457.907,395.635 457.873,396.402 460.474,395.635 		"/>
		<polygon fill="#1B1B26" points="457.525,418.036 457.525,418.864 451.829,417.031 		"/>
		<polygon fill="#1B1B26" points="457.906,400.702 457.906,401.53 454.776,400.363 		"/>
	</g>
	<polygon fill="#3C4E5B" points="89.527,425.053 355.838,432.454 467.752,434.144 454.333,444.698 720,472 719.937,488 
		432.996,453.42 446.234,445.881 89.527,444.753 	"/>
	<g>
		<polygon fill="#1B1B26" points="95.848,426.756 96.385,426.756 96.385,395.502 		"/>
		<polygon fill="#1B1B26" points="96.385,426.756 97.039,426.756 96.389,387.847 		"/>
		<polygon fill="#1B1B26" points="87.717,424.795 95.848,424.795 96.385,393.667 96.385,387.529 94.17,397.02 95.848,398.602 
			93.917,397.97 93.222,400.942 94.677,401.574 92.906,401.574 91.071,409.736 93.665,411.697 90.755,411.318 		"/>
		<polygon fill="#1B1B26" points="105.052,424.795 97.049,424.795 96.385,387.529 98.6,397.02 96.923,398.602 98.852,397.97 
			99.548,400.942 98.093,401.574 99.865,401.574 101.7,409.736 99.105,411.697 102.016,411.318 		"/>
		<polygon fill="#1B1B26" points="96.386,422.453 102.564,421.188 96.386,421.934 		"/>
		<polygon fill="#1B1B26" points="96.387,414.059 96.387,414.731 101.22,413.873 		"/>
		<polygon fill="#1B1B26" points="96.387,407.713 96.387,408.429 99.232,407.713 		"/>
		<polygon fill="#1B1B26" points="96.388,400.604 96.363,401.153 98.22,400.604 		"/>
		<polygon fill="#1B1B26" points="96.116,416.591 96.116,417.181 92.051,415.874 		"/>
		<polygon fill="#1B1B26" points="96.387,404.222 96.387,404.812 94.153,403.979 		"/>
	</g>
	<g>
		<polygon fill="#1B1B26" points="120.106,426.219 120.494,426.219 120.494,403.701 		"/>
		<polygon fill="#1B1B26" points="120.494,426.219 120.964,426.219 120.497,398.187 		"/>
		<polygon fill="#1B1B26" points="114.249,424.806 120.106,424.806 120.494,402.379 120.494,397.957 118.898,404.795 
			120.106,405.935 118.715,405.479 118.214,407.621 119.263,408.076 117.987,408.076 116.665,413.956 118.534,415.369 
			116.437,415.096 		"/>
		<polygon fill="#1B1B26" points="126.738,424.806 120.972,424.806 120.494,397.957 122.089,404.795 120.881,405.935 
			122.271,405.479 122.772,407.621 121.724,408.076 123,408.076 124.322,413.956 122.454,415.369 124.55,415.096 		"/>
		<polygon fill="#1B1B26" points="120.494,423.118 124.945,422.207 120.494,422.744 		"/>
		<polygon fill="#1B1B26" points="120.495,417.07 120.495,417.555 123.977,416.937 		"/>
		<polygon fill="#1B1B26" points="120.495,412.499 120.495,413.015 122.544,412.499 		"/>
		<polygon fill="#1B1B26" points="120.496,407.378 120.478,407.773 121.815,407.378 		"/>
		<polygon fill="#1B1B26" points="120.3,418.895 120.3,419.32 117.371,418.378 		"/>
		<polygon fill="#1B1B26" points="120.495,409.983 120.495,410.409 118.885,409.809 		"/>
	</g>
	<g>
		<polygon fill="#1B1B26" points="192.271,435.909 192.658,435.909 192.658,409.856 		"/>
		<polygon fill="#1B1B26" points="192.658,435.909 193.128,435.909 192.661,403.476 		"/>
		<polygon fill="#1B1B26" points="186.413,434.274 192.271,434.274 192.658,408.326 192.658,403.21 191.062,411.121 192.271,412.44 
			190.879,411.913 190.378,414.392 191.427,414.918 190.151,414.918 188.829,421.721 190.698,423.356 188.601,423.04 		"/>
		<polygon fill="#1B1B26" points="198.902,434.274 193.136,434.274 192.658,403.21 194.253,411.121 193.045,412.44 194.435,411.913 
			194.937,414.392 193.888,414.918 195.165,414.918 196.486,421.721 194.618,423.356 196.714,423.04 		"/>
		<polygon fill="#1B1B26" points="192.658,432.321 197.109,431.268 192.658,431.889 		"/>
		<polygon fill="#1B1B26" points="192.659,425.324 192.659,425.885 196.141,425.17 		"/>
		<polygon fill="#1B1B26" points="192.659,420.035 192.659,420.632 194.708,420.035 		"/>
		<polygon fill="#1B1B26" points="192.66,414.11 192.642,414.567 193.979,414.11 		"/>
		<polygon fill="#1B1B26" points="192.464,427.435 192.464,427.928 189.535,426.837 		"/>
		<polygon fill="#1B1B26" points="192.659,417.125 192.659,417.617 191.049,416.923 		"/>
	</g>
	<g>
		<polygon fill="#1B1B26" points="165.037,430.234 165.424,430.234 165.424,407.717 		"/>
		<polygon fill="#1B1B26" points="165.424,430.234 165.895,430.234 165.427,402.202 		"/>
		<polygon fill="#1B1B26" points="159.18,428.821 165.037,428.821 165.424,406.395 165.424,401.973 163.829,408.811 165.037,409.95 
			163.646,409.495 163.145,411.637 164.194,412.092 162.917,412.092 161.595,417.972 163.464,419.385 161.368,419.111 		"/>
		<polygon fill="#1B1B26" points="171.668,428.821 165.902,428.821 165.424,401.973 167.02,408.811 165.812,409.95 167.202,409.495 
			167.703,411.637 166.654,412.092 167.931,412.092 169.253,417.972 167.384,419.385 169.481,419.111 		"/>
		<polygon fill="#1B1B26" points="165.425,427.134 169.876,426.223 165.425,426.76 		"/>
		<polygon fill="#1B1B26" points="165.425,421.086 165.425,421.57 168.907,420.952 		"/>
		<polygon fill="#1B1B26" points="165.426,416.515 165.426,417.03 167.475,416.515 		"/>
		<polygon fill="#1B1B26" points="165.426,411.394 165.409,411.789 166.746,411.394 		"/>
		<polygon fill="#1B1B26" points="165.23,422.91 165.23,423.336 162.302,422.394 		"/>
		<polygon fill="#1B1B26" points="165.426,413.999 165.426,414.425 163.816,413.824 		"/>
	</g>
	<g opacity="0.8">
		<polygon fill="#1B1B26" points="126.351,426.888 126.738,426.888 126.738,404.37 		"/>
		<polygon fill="#1B1B26" points="126.738,426.888 127.209,426.888 126.741,398.855 		"/>
		<polygon fill="#1B1B26" points="120.494,425.475 126.351,425.475 126.738,403.048 126.738,398.626 125.143,405.464 
			126.351,406.604 124.96,406.148 124.459,408.29 125.508,408.745 124.231,408.745 122.909,414.625 124.778,416.038 
			122.682,415.765 		"/>
		<polygon fill="#1B1B26" points="132.982,425.475 127.216,425.475 126.738,398.626 128.333,405.464 127.126,406.604 
			128.516,406.148 129.017,408.29 127.968,408.745 129.245,408.745 130.567,414.625 128.698,416.038 130.795,415.765 		"/>
		<polygon fill="#1B1B26" points="126.739,423.787 131.19,422.876 126.739,423.413 		"/>
		<polygon fill="#1B1B26" points="126.739,417.739 126.739,418.224 130.221,417.605 		"/>
		<polygon fill="#1B1B26" points="126.74,413.168 126.74,413.684 128.789,413.168 		"/>
		<polygon fill="#1B1B26" points="126.74,408.047 126.723,408.442 128.06,408.047 		"/>
		<polygon fill="#1B1B26" points="126.544,419.563 126.544,419.989 123.616,419.047 		"/>
		<polygon fill="#1B1B26" points="126.74,410.652 126.74,411.078 125.13,410.478 		"/>
	</g>
	<g>
		<polygon fill="#1B1B26" points="173.401,431.036 173.789,431.036 173.789,408.519 		"/>
		<polygon fill="#1B1B26" points="173.789,431.036 174.259,431.036 173.792,403.004 		"/>
		<polygon fill="#1B1B26" points="167.544,429.623 173.401,429.623 173.789,407.196 173.789,402.774 172.193,409.612 
			173.401,410.752 172.01,410.297 171.509,412.438 172.558,412.894 171.282,412.894 169.959,418.773 171.829,420.187 
			169.732,419.913 		"/>
		<polygon fill="#1B1B26" points="180.033,429.623 174.267,429.623 173.789,402.774 175.384,409.612 174.176,410.752 
			175.566,410.297 176.067,412.438 175.019,412.894 176.295,412.894 177.617,418.773 175.749,420.187 177.845,419.913 		"/>
		<polygon fill="#1B1B26" points="173.789,427.936 178.24,427.024 173.789,427.562 		"/>
		<polygon fill="#1B1B26" points="173.79,421.888 173.79,422.372 177.271,421.754 		"/>
		<polygon fill="#1B1B26" points="173.79,417.316 173.79,417.832 175.839,417.316 		"/>
		<polygon fill="#1B1B26" points="173.791,412.195 173.773,412.591 175.11,412.195 		"/>
		<polygon fill="#1B1B26" points="173.595,423.712 173.595,424.138 170.666,423.195 		"/>
		<polygon fill="#1B1B26" points="173.79,414.801 173.79,415.227 172.18,414.626 		"/>
	</g>
	<g>
		<polygon fill="#1B1B26" points="185.333,432.231 185.667,432.231 185.667,403.938 		"/>
		<polygon fill="#1B1B26" points="185.667,432.231 186.071,432.231 185.669,397.008 		"/>
		<polygon fill="#1B1B26" points="180.296,430.456 185.333,430.456 185.667,402.276 185.667,396.72 184.294,405.312 
			185.333,406.744 184.137,406.172 183.707,408.863 184.608,409.435 183.511,409.435 182.374,416.823 183.981,418.599 
			182.178,418.255 		"/>
		<polygon fill="#1B1B26" points="191.037,430.456 186.078,430.456 185.667,396.72 187.039,405.312 186,406.744 187.195,406.172 
			187.626,408.863 186.725,409.435 187.823,409.435 188.959,416.823 187.353,418.599 189.156,418.255 		"/>
		<polygon fill="#1B1B26" points="185.667,428.335 189.496,427.19 185.667,427.865 		"/>
		<polygon fill="#1B1B26" points="185.667,420.736 185.667,421.345 188.662,420.568 		"/>
		<polygon fill="#1B1B26" points="185.668,414.992 185.668,415.64 187.431,414.992 		"/>
		<polygon fill="#1B1B26" points="185.668,408.558 185.653,409.055 186.804,408.558 		"/>
		<polygon fill="#1B1B26" points="185.5,423.028 185.5,423.563 182.981,422.379 		"/>
		<polygon fill="#1B1B26" points="185.668,411.831 185.668,412.366 184.283,411.611 		"/>
	</g>
	<g>
		<polygon fill="#1B1B26" points="510.769,451.712 511.616,451.712 511.616,402.428 		"/>
		<polygon fill="#1B1B26" points="511.616,451.712 512.647,451.712 511.623,390.355 		"/>
		<polygon fill="#1B1B26" points="497.948,448.62 510.769,448.62 511.616,399.534 511.616,389.856 508.124,404.821 510.769,407.315 
			507.725,406.318 506.628,411.007 508.923,412.005 506.13,412.005 503.236,424.875 507.327,427.967 502.737,427.369 		"/>
		<polygon fill="#1B1B26" points="525.284,448.62 512.663,448.62 511.616,389.856 515.108,404.821 512.465,407.315 515.507,406.318 
			516.605,411.007 514.31,412.005 517.104,412.005 519.997,424.875 515.906,427.967 520.496,427.369 		"/>
		<polygon fill="#1B1B26" points="511.617,444.928 521.36,442.934 511.617,444.107 		"/>
		<polygon fill="#1B1B26" points="511.619,431.691 511.619,432.751 519.24,431.398 		"/>
		<polygon fill="#1B1B26" points="511.62,421.683 511.62,422.813 516.106,421.683 		"/>
		<polygon fill="#1B1B26" points="511.621,410.476 511.583,411.339 514.51,410.476 		"/>
		<polygon fill="#1B1B26" points="511.191,435.683 511.191,436.614 504.782,434.552 		"/>
		<polygon fill="#1B1B26" points="511.62,416.178 511.62,417.11 508.097,415.796 		"/>
	</g>
	<g opacity="0.9">
		<polygon fill="#1B1B26" points="523.555,449.716 524.402,449.716 524.402,390.337 		"/>
		<polygon fill="#1B1B26" points="524.402,449.716 525.434,449.716 524.409,375.792 		"/>
		<polygon fill="#1B1B26" points="510.734,445.991 523.555,445.991 524.402,386.851 524.402,375.19 520.91,393.221 523.555,396.226 
			520.511,395.024 519.414,400.673 521.709,401.876 518.916,401.876 516.022,417.382 520.113,421.107 515.523,420.387 		"/>
		<polygon fill="#1B1B26" points="538.07,445.991 525.449,445.991 524.402,375.19 527.895,393.221 525.251,396.226 528.293,395.024 
			529.392,400.673 527.096,401.876 529.89,401.876 532.783,417.382 528.692,421.107 533.282,420.387 		"/>
		<polygon fill="#1B1B26" points="524.403,441.542 534.146,439.14 524.403,440.554 		"/>
		<polygon fill="#1B1B26" points="524.405,425.595 524.405,426.871 532.026,425.241 		"/>
		<polygon fill="#1B1B26" points="524.406,413.535 524.406,414.898 528.893,413.535 		"/>
		<polygon fill="#1B1B26" points="524.407,400.033 524.369,401.073 527.296,400.033 		"/>
		<polygon fill="#1B1B26" points="523.978,430.403 523.978,431.525 517.568,429.041 		"/>
		<polygon fill="#1B1B26" points="524.406,406.903 524.406,408.026 520.883,406.443 		"/>
	</g>
	<g>
		<polygon fill="#1B1B26" points="141.933,429.703 142.266,429.703 142.266,401.409 		"/>
		<polygon fill="#1B1B26" points="142.266,429.703 142.671,429.703 142.269,394.479 		"/>
		<polygon fill="#1B1B26" points="136.896,427.928 141.933,427.928 142.266,399.748 142.266,394.191 140.894,402.783 
			141.933,404.216 140.737,403.644 140.306,406.335 141.208,406.906 140.11,406.906 138.973,414.295 140.581,416.07 
			138.777,415.727 		"/>
		<polygon fill="#1B1B26" points="147.637,427.928 142.678,427.928 142.266,394.191 143.638,402.783 142.6,404.216 143.795,403.644 
			144.226,406.335 143.324,406.906 144.422,406.906 145.559,414.295 143.952,416.07 145.755,415.727 		"/>
		<polygon fill="#1B1B26" points="142.267,425.807 146.095,424.662 142.267,425.337 		"/>
		<polygon fill="#1B1B26" points="142.267,418.208 142.267,418.816 145.262,418.04 		"/>
		<polygon fill="#1B1B26" points="142.268,412.464 142.268,413.111 144.03,412.464 		"/>
		<polygon fill="#1B1B26" points="142.268,406.029 142.253,406.526 143.403,406.029 		"/>
		<polygon fill="#1B1B26" points="142.1,420.5 142.1,421.035 139.581,419.851 		"/>
		<polygon fill="#1B1B26" points="142.268,409.303 142.268,409.838 140.883,409.083 		"/>
	</g>
	<g opacity="0.8">
		<polygon fill="#1B1B26" points="157.721,426.233 158.057,426.233 158.057,406.715 		"/>
		<polygon fill="#1B1B26" points="158.057,426.233 158.465,426.233 158.059,401.935 		"/>
		<polygon fill="#1B1B26" points="152.644,425.009 157.721,425.009 158.057,405.568 158.057,401.735 156.673,407.662 
			157.721,408.65 156.515,408.256 156.081,410.112 156.99,410.507 155.884,410.507 154.737,415.604 156.358,416.829 154.54,416.592 
					"/>
		<polygon fill="#1B1B26" points="163.469,425.009 158.471,425.009 158.057,401.735 159.439,407.662 158.393,408.65 
			159.597,408.256 160.032,410.112 159.123,410.507 160.229,410.507 161.375,415.604 159.755,416.829 161.573,416.592 		"/>
		<polygon fill="#1B1B26" points="158.057,423.546 161.916,422.756 158.057,423.222 		"/>
		<polygon fill="#1B1B26" points="158.058,418.304 158.058,418.724 161.076,418.188 		"/>
		<polygon fill="#1B1B26" points="158.058,414.341 158.058,414.788 159.834,414.341 		"/>
		<polygon fill="#1B1B26" points="158.058,409.901 158.043,410.244 159.203,409.901 		"/>
		<polygon fill="#1B1B26" points="157.889,419.885 157.889,420.254 155.35,419.437 		"/>
		<polygon fill="#1B1B26" points="158.058,412.16 158.058,412.529 156.663,412.009 		"/>
	</g>
	<g opacity="0.8">
		<polygon fill="#1B1B26" points="179.266,429.061 179.602,429.061 179.602,409.542 		"/>
		<polygon fill="#1B1B26" points="179.602,429.061 180.01,429.061 179.604,404.762 		"/>
		<polygon fill="#1B1B26" points="174.188,427.836 179.266,427.836 179.602,408.396 179.602,404.562 178.218,410.489 
			179.266,411.478 178.06,411.083 177.626,412.939 178.535,413.334 177.429,413.334 176.282,418.431 177.903,419.656 
			176.085,419.419 		"/>
		<polygon fill="#1B1B26" points="185.014,427.836 180.016,427.836 179.602,404.562 180.984,410.489 179.938,411.478 
			181.142,411.083 181.577,412.939 180.667,413.334 181.774,413.334 182.92,418.431 181.3,419.656 183.118,419.419 		"/>
		<polygon fill="#1B1B26" points="179.602,426.373 183.46,425.583 179.602,426.049 		"/>
		<polygon fill="#1B1B26" points="179.603,421.131 179.603,421.551 182.621,421.015 		"/>
		<polygon fill="#1B1B26" points="179.603,417.168 179.603,417.615 181.379,417.168 		"/>
		<polygon fill="#1B1B26" points="179.603,412.729 179.588,413.071 180.748,412.729 		"/>
		<polygon fill="#1B1B26" points="179.434,422.712 179.434,423.081 176.895,422.264 		"/>
		<polygon fill="#1B1B26" points="179.603,414.987 179.603,415.356 178.208,414.836 		"/>
	</g>
	<g opacity="0.8">
		<polygon fill="#1B1B26" points="199.915,429.43 200.25,429.43 200.25,400.957 		"/>
		<polygon fill="#1B1B26" points="200.25,429.43 200.658,429.43 200.252,393.984 		"/>
		<polygon fill="#1B1B26" points="194.837,427.644 199.915,427.644 200.25,399.285 200.25,393.693 198.867,402.339 199.915,403.78 
			198.708,403.205 198.274,405.913 199.184,406.488 198.077,406.488 196.931,413.924 198.551,415.711 196.733,415.365 		"/>
		<polygon fill="#1B1B26" points="205.663,427.644 200.665,427.644 200.25,393.693 201.633,402.339 200.586,403.78 201.791,403.205 
			202.225,405.913 201.316,406.488 202.423,406.488 203.569,413.924 201.949,415.711 203.767,415.365 		"/>
		<polygon fill="#1B1B26" points="200.25,425.51 204.109,424.356 200.25,425.036 		"/>
		<polygon fill="#1B1B26" points="200.251,417.862 200.251,418.475 203.269,417.692 		"/>
		<polygon fill="#1B1B26" points="200.251,412.081 200.251,412.734 202.028,412.081 		"/>
		<polygon fill="#1B1B26" points="200.251,405.605 200.236,406.105 201.396,405.605 		"/>
		<polygon fill="#1B1B26" points="200.082,420.169 200.082,420.707 197.543,419.515 		"/>
		<polygon fill="#1B1B26" points="200.251,408.9 200.251,409.439 198.856,408.68 		"/>
	</g>
	<g>
		<polygon fill="#1B1B26" points="107.809,426.031 108.297,426.031 108.297,398.145 		"/>
		<polygon fill="#1B1B26" points="108.297,426.031 108.891,426.031 108.301,391.314 		"/>
		<polygon fill="#1B1B26" points="100.425,424.281 107.809,424.281 108.297,396.508 108.297,391.031 106.286,399.499 
			107.809,400.911 106.055,400.347 105.424,402.999 106.746,403.563 105.137,403.563 103.47,410.846 105.826,412.595 
			103.184,412.257 		"/>
		<polygon fill="#1B1B26" points="116.169,424.281 108.9,424.281 108.297,391.031 110.309,399.499 108.786,400.911 110.538,400.347 
			111.17,402.999 109.848,403.563 111.457,403.563 113.124,410.846 110.768,412.595 113.411,412.257 		"/>
		<polygon fill="#1B1B26" points="108.297,422.192 113.909,421.063 108.297,421.729 		"/>
		<polygon fill="#1B1B26" points="108.298,414.702 108.298,415.302 112.688,414.536 		"/>
		<polygon fill="#1B1B26" points="108.299,409.04 108.299,409.679 110.883,409.04 		"/>
		<polygon fill="#1B1B26" points="108.299,402.698 108.277,403.188 109.963,402.698 		"/>
		<polygon fill="#1B1B26" points="108.053,416.961 108.053,417.488 104.361,416.321 		"/>
		<polygon fill="#1B1B26" points="108.299,405.925 108.299,406.452 106.27,405.708 		"/>
	</g>
	<g>
		<polygon fill="#1B1B26" points="132.329,428.103 132.817,428.103 132.817,400.216 		"/>
		<polygon fill="#1B1B26" points="132.817,428.103 133.411,428.103 132.821,393.386 		"/>
		<polygon fill="#1B1B26" points="124.945,426.353 132.329,426.353 132.817,398.579 132.817,393.103 130.806,401.57 
			132.329,402.982 130.576,402.418 129.944,405.07 131.267,405.635 129.657,405.635 127.991,412.917 130.347,414.666 
			127.704,414.328 		"/>
		<polygon fill="#1B1B26" points="140.689,426.353 133.42,426.353 132.817,393.103 134.829,401.57 133.306,402.982 135.058,402.418 
			135.69,405.07 134.368,405.635 135.978,405.635 137.645,412.917 135.288,414.666 137.932,414.328 		"/>
		<polygon fill="#1B1B26" points="132.818,424.264 138.43,423.135 132.818,423.8 		"/>
		<polygon fill="#1B1B26" points="132.819,416.773 132.819,417.373 137.208,416.607 		"/>
		<polygon fill="#1B1B26" points="132.819,411.111 132.819,411.75 135.403,411.111 		"/>
		<polygon fill="#1B1B26" points="132.82,404.77 132.798,405.259 134.484,404.77 		"/>
		<polygon fill="#1B1B26" points="132.573,419.032 132.573,419.56 128.881,418.393 		"/>
		<polygon fill="#1B1B26" points="132.819,407.996 132.819,408.523 130.79,407.779 		"/>
	</g>
	<g>
		<polygon fill="#1B1B26" points="151.49,430.976 151.979,430.976 151.979,403.089 		"/>
		<polygon fill="#1B1B26" points="151.979,430.976 152.572,430.976 151.982,396.259 		"/>
		<polygon fill="#1B1B26" points="144.106,429.226 151.49,429.226 151.979,401.452 151.979,395.976 149.967,404.443 151.49,405.855 
			149.737,405.291 149.105,407.943 150.428,408.508 148.818,408.508 147.152,415.79 149.508,417.539 146.865,417.201 		"/>
		<polygon fill="#1B1B26" points="159.851,429.226 152.582,429.226 151.979,395.976 153.99,404.443 152.467,405.855 
			154.219,405.291 154.852,407.943 153.529,408.508 155.139,408.508 156.806,415.79 154.449,417.539 157.093,417.201 		"/>
		<polygon fill="#1B1B26" points="151.979,427.137 157.591,426.008 151.979,426.673 		"/>
		<polygon fill="#1B1B26" points="151.98,419.646 151.98,420.246 156.37,419.48 		"/>
		<polygon fill="#1B1B26" points="151.98,413.984 151.98,414.623 154.564,413.984 		"/>
		<polygon fill="#1B1B26" points="151.981,407.643 151.959,408.132 153.645,407.643 		"/>
		<polygon fill="#1B1B26" points="151.734,421.905 151.734,422.433 148.042,421.266 		"/>
		<polygon fill="#1B1B26" points="151.98,410.869 151.98,411.396 149.951,410.652 		"/>
	</g>
	<g>
		<polygon fill="#1B1B26" points="312.024,433.239 312.412,433.239 312.412,410.722 		"/>
		<polygon fill="#1B1B26" points="312.412,433.239 312.882,433.239 312.415,405.207 		"/>
		<polygon fill="#1B1B26" points="306.167,431.826 312.024,431.826 312.412,409.399 312.412,404.978 310.816,411.815 
			312.024,412.955 310.633,412.5 310.132,414.642 311.181,415.097 309.905,415.097 308.583,420.977 310.452,422.39 308.355,422.116 
					"/>
		<polygon fill="#1B1B26" points="318.656,431.826 312.89,431.826 312.412,404.978 314.007,411.815 312.799,412.955 314.189,412.5 
			314.69,414.642 313.642,415.097 314.918,415.097 316.24,420.977 314.372,422.39 316.468,422.116 		"/>
		<polygon fill="#1B1B26" points="312.412,430.139 316.863,429.228 312.412,429.765 		"/>
		<polygon fill="#1B1B26" points="312.413,424.091 312.413,424.575 315.895,423.957 		"/>
		<polygon fill="#1B1B26" points="312.413,419.52 312.413,420.035 314.462,419.52 		"/>
		<polygon fill="#1B1B26" points="312.414,414.398 312.396,414.794 313.733,414.398 		"/>
		<polygon fill="#1B1B26" points="312.218,425.915 312.218,426.341 309.289,425.398 		"/>
		<polygon fill="#1B1B26" points="312.413,417.004 312.413,417.43 310.803,416.829 		"/>
	</g>
	<g>
		<polygon fill="#1B1B26" points="355.366,435.454 355.753,435.454 355.753,412.937 		"/>
		<polygon fill="#1B1B26" points="355.753,435.454 356.224,435.454 355.756,407.422 		"/>
		<polygon fill="#1B1B26" points="349.509,434.041 355.366,434.041 355.753,411.614 355.753,407.192 354.158,414.03 355.366,415.17 
			353.975,414.715 353.474,416.856 354.523,417.312 353.247,417.312 351.924,423.191 353.793,424.604 351.697,424.331 		"/>
		<polygon fill="#1B1B26" points="361.998,434.041 356.231,434.041 355.753,407.192 357.349,414.03 356.141,415.17 357.531,414.715 
			358.032,416.856 356.983,417.312 358.26,417.312 359.582,423.191 357.713,424.604 359.81,424.331 		"/>
		<polygon fill="#1B1B26" points="355.754,432.354 360.205,431.442 355.754,431.979 		"/>
		<polygon fill="#1B1B26" points="355.754,426.306 355.754,426.79 359.236,426.172 		"/>
		<polygon fill="#1B1B26" points="355.755,421.734 355.755,422.25 357.804,421.734 		"/>
		<polygon fill="#1B1B26" points="355.755,416.613 355.738,417.009 357.075,416.613 		"/>
		<polygon fill="#1B1B26" points="355.56,428.13 355.56,428.556 352.631,427.613 		"/>
		<polygon fill="#1B1B26" points="355.755,419.219 355.755,419.645 354.145,419.044 		"/>
	</g>
	<g opacity="0.8">
		<polygon fill="#1B1B26" points="318.269,433.908 318.656,433.908 318.656,411.391 		"/>
		<polygon fill="#1B1B26" points="318.656,433.908 319.127,433.908 318.659,405.876 		"/>
		<polygon fill="#1B1B26" points="312.412,432.495 318.269,432.495 318.656,410.068 318.656,405.646 317.061,412.484 
			318.269,413.624 316.878,413.169 316.377,415.311 317.426,415.766 316.149,415.766 314.827,421.646 316.696,423.059 
			314.6,422.785 		"/>
		<polygon fill="#1B1B26" points="324.9,432.495 319.134,432.495 318.656,405.646 320.251,412.484 319.044,413.624 320.434,413.169 
			320.935,415.311 319.886,415.766 321.163,415.766 322.485,421.646 320.616,423.059 322.713,422.785 		"/>
		<polygon fill="#1B1B26" points="318.657,430.808 323.108,429.896 318.657,430.434 		"/>
		<polygon fill="#1B1B26" points="318.657,424.76 318.657,425.244 322.139,424.626 		"/>
		<polygon fill="#1B1B26" points="318.658,420.188 318.658,420.704 320.707,420.188 		"/>
		<polygon fill="#1B1B26" points="318.658,415.067 318.641,415.463 319.978,415.067 		"/>
		<polygon fill="#1B1B26" points="318.462,426.584 318.462,427.01 315.534,426.067 		"/>
		<polygon fill="#1B1B26" points="318.658,417.673 318.658,418.099 317.048,417.498 		"/>
	</g>
	<g>
		<polygon fill="#1B1B26" points="365.319,438.057 365.707,438.057 365.707,415.539 		"/>
		<polygon fill="#1B1B26" points="365.707,438.057 366.178,438.057 365.709,410.024 		"/>
		<polygon fill="#1B1B26" points="359.462,436.644 365.319,436.644 365.707,414.217 365.707,409.795 364.111,416.633 
			365.319,417.772 363.928,417.317 363.428,419.459 364.477,419.914 363.199,419.914 361.877,425.794 363.746,427.207 
			361.65,426.934 		"/>
		<polygon fill="#1B1B26" points="371.951,436.644 366.185,436.644 365.707,409.795 367.302,416.633 366.094,417.772 
			367.484,417.317 367.985,419.459 366.937,419.914 368.213,419.914 369.535,425.794 367.666,427.207 369.764,426.934 		"/>
		<polygon fill="#1B1B26" points="365.707,434.956 370.158,434.045 365.707,434.582 		"/>
		<polygon fill="#1B1B26" points="365.707,428.908 365.707,429.393 369.189,428.774 		"/>
		<polygon fill="#1B1B26" points="365.708,424.337 365.708,424.853 367.758,424.337 		"/>
		<polygon fill="#1B1B26" points="365.709,419.216 365.691,419.611 367.028,419.216 		"/>
		<polygon fill="#1B1B26" points="365.513,430.732 365.513,431.158 362.584,430.216 		"/>
		<polygon fill="#1B1B26" points="365.708,421.821 365.708,422.247 364.098,421.646 		"/>
	</g>
	<g>
		<polygon fill="#1B1B26" points="333.851,436.724 334.184,436.724 334.184,408.43 		"/>
		<polygon fill="#1B1B26" points="334.184,436.724 334.589,436.724 334.187,401.5 		"/>
		<polygon fill="#1B1B26" points="328.813,434.948 333.851,434.948 334.184,406.769 334.184,401.212 332.812,409.804 
			333.851,411.236 332.655,410.664 332.224,413.355 333.126,413.927 332.028,413.927 330.891,421.315 332.499,423.091 
			330.695,422.747 		"/>
		<polygon fill="#1B1B26" points="339.555,434.948 334.596,434.948 334.184,401.212 335.556,409.804 334.518,411.236 
			335.713,410.664 336.144,413.355 335.242,413.927 336.34,413.927 337.477,421.315 335.87,423.091 337.673,422.747 		"/>
		<polygon fill="#1B1B26" points="334.185,432.827 338.013,431.683 334.185,432.357 		"/>
		<polygon fill="#1B1B26" points="334.185,425.229 334.185,425.837 337.18,425.061 		"/>
		<polygon fill="#1B1B26" points="334.186,419.484 334.186,420.132 335.948,419.484 		"/>
		<polygon fill="#1B1B26" points="334.186,413.05 334.171,413.547 335.321,413.05 		"/>
		<polygon fill="#1B1B26" points="334.018,427.521 334.018,428.056 331.499,426.871 		"/>
		<polygon fill="#1B1B26" points="334.186,416.323 334.186,416.858 332.801,416.104 		"/>
	</g>
	<g opacity="0.8">
		<polygon fill="#1B1B26" points="349.84,432.438 350.175,432.438 350.175,412.919 		"/>
		<polygon fill="#1B1B26" points="350.175,432.438 350.583,432.438 350.178,408.139 		"/>
		<polygon fill="#1B1B26" points="344.762,431.213 349.84,431.213 350.175,411.772 350.175,407.939 348.792,413.866 349.84,414.854 
			348.634,414.46 348.2,416.316 349.109,416.711 348.002,416.711 346.856,421.808 348.477,423.033 346.659,422.796 		"/>
		<polygon fill="#1B1B26" points="355.588,431.213 350.59,431.213 350.175,407.939 351.558,413.866 350.511,414.854 351.716,414.46 
			352.15,416.316 351.241,416.711 352.348,416.711 353.494,421.808 351.874,423.033 353.692,422.796 		"/>
		<polygon fill="#1B1B26" points="350.176,429.75 354.034,428.96 350.176,429.426 		"/>
		<polygon fill="#1B1B26" points="350.176,424.508 350.176,424.928 353.194,424.392 		"/>
		<polygon fill="#1B1B26" points="350.177,420.545 350.177,420.992 351.953,420.545 		"/>
		<polygon fill="#1B1B26" points="350.177,416.105 350.162,416.448 351.321,416.105 		"/>
		<polygon fill="#1B1B26" points="350.007,426.089 350.007,426.458 347.469,425.641 		"/>
		<polygon fill="#1B1B26" points="350.177,418.364 350.177,418.733 348.781,418.213 		"/>
	</g>
	<g>
		<polygon fill="#1B1B26" points="324.247,435.123 324.735,435.123 324.735,407.236 		"/>
		<polygon fill="#1B1B26" points="324.735,435.123 325.329,435.123 324.739,400.406 		"/>
		<polygon fill="#1B1B26" points="316.863,433.373 324.247,433.373 324.735,405.6 324.735,400.123 322.724,408.591 324.247,410.003 
			322.494,409.438 321.862,412.091 323.185,412.655 321.575,412.655 319.909,419.938 322.265,421.687 319.622,421.349 		"/>
		<polygon fill="#1B1B26" points="332.607,433.373 325.338,433.373 324.735,400.123 326.747,408.591 325.224,410.003 
			326.976,409.438 327.608,412.091 326.286,412.655 327.896,412.655 329.562,419.938 327.206,421.687 329.85,421.349 		"/>
		<polygon fill="#1B1B26" points="324.736,431.284 330.348,430.155 324.736,430.82 		"/>
		<polygon fill="#1B1B26" points="324.737,423.794 324.737,424.394 329.126,423.628 		"/>
		<polygon fill="#1B1B26" points="324.737,418.132 324.737,418.771 327.321,418.132 		"/>
		<polygon fill="#1B1B26" points="324.738,411.79 324.716,412.279 326.402,411.79 		"/>
		<polygon fill="#1B1B26" points="324.491,426.053 324.491,426.58 320.799,425.413 		"/>
		<polygon fill="#1B1B26" points="324.737,415.017 324.737,415.544 322.708,414.8 		"/>
	</g>
	<g>
		<polygon fill="#353447" points="573.629,463.617 574.747,463.617 574.747,398.688 		"/>
		<polygon fill="#282733" points="574.747,463.617 576.105,463.617 574.757,382.786 		"/>
		<polygon fill="#ADA07F" points="556.738,459.544 573.629,459.544 574.747,394.878 574.747,382.129 570.146,401.845 
			573.629,405.128 569.62,403.815 568.173,409.992 571.196,411.308 567.517,411.308 563.706,428.262 569.094,432.337 
			563.049,431.546 		"/>
		<polygon fill="#544F4D" points="592.753,459.544 576.126,459.544 574.747,382.129 579.345,401.845 575.861,405.128 
			579.873,403.815 581.32,409.992 578.295,411.308 581.975,411.308 585.788,428.262 580.397,432.337 586.443,431.546 		"/>
		<polygon fill="#282733" points="574.747,454.681 587.582,452.052 574.747,453.599 		"/>
		<polygon fill="#282733" points="574.751,437.24 574.751,438.638 583.749,436.258 		"/>
		<polygon fill="#282733" points="574.752,424.055 574.752,425.547 581.166,422.874 		"/>
		<polygon fill="#282733" points="574.752,409.29 574.701,410.432 578.557,407.842 		"/>
		<polygon fill="#353447" points="574.188,442.5 574.188,443.729 565.743,441.01 		"/>
		<polygon fill="#353447" points="574.752,416.805 574.752,418.032 570.11,416.301 		"/>
	</g>
	<g>
		<polygon fill="#1B1B26" points="343.408,438.996 343.896,438.996 343.896,411.109 		"/>
		<polygon fill="#1B1B26" points="343.896,438.996 344.49,438.996 343.9,404.279 		"/>
		<polygon fill="#1B1B26" points="336.024,437.246 343.408,437.246 343.896,409.473 343.896,403.996 341.885,412.464 
			343.408,413.876 341.655,413.312 341.023,415.964 342.346,416.528 340.736,416.528 339.07,423.811 341.426,425.56 
			338.783,425.222 		"/>
		<polygon fill="#1B1B26" points="351.769,437.246 344.5,437.246 343.896,403.996 345.908,412.464 344.385,413.876 346.137,413.312 
			346.77,415.964 345.447,416.528 347.057,416.528 348.724,423.811 346.367,425.56 349.011,425.222 		"/>
		<polygon fill="#1B1B26" points="343.897,435.157 349.509,434.028 343.897,434.693 		"/>
		<polygon fill="#1B1B26" points="343.898,427.667 343.898,428.267 348.288,427.501 		"/>
		<polygon fill="#1B1B26" points="343.898,422.005 343.898,422.644 346.482,422.005 		"/>
		<polygon fill="#1B1B26" points="343.899,415.663 343.877,416.152 345.563,415.663 		"/>
		<polygon fill="#1B1B26" points="343.652,429.926 343.652,430.453 339.96,429.286 		"/>
		<polygon fill="#1B1B26" points="343.898,418.89 343.898,419.417 341.869,418.673 		"/>
	</g>
	<g>
		<polygon fill="#45475D" points="687.2,476.344 689.409,476.344 689.409,347.975 		"/>
		<polygon fill="#2F313F" points="689.409,476.344 692.095,476.344 689.428,316.532 		"/>
		<polygon fill="#B5A986" points="653.809,468.288 687.2,468.288 689.409,340.438 689.409,315.232 680.313,354.211 687.2,360.707 
			679.274,358.108 676.416,370.322 682.393,372.921 675.117,372.921 667.581,406.442 678.235,414.498 666.282,412.938 		"/>
		<polygon fill="#544F4D" points="712.536,412.938 700.583,414.498 711.237,406.442 703.701,372.921 696.425,372.921 
			702.402,370.322 699.544,358.108 691.618,360.707 698.505,354.211 689.409,315.232 692.138,468.288 719.666,468.288 
			719.666,444.576 		"/>
		<polygon fill="#2F313F" points="689.411,458.674 714.789,450.312 689.411,456.536 		"/>
		<polygon fill="#2F313F" points="689.416,424.195 689.416,426.958 707.21,421.355 		"/>
		<polygon fill="#2F313F" points="689.419,398.127 689.419,401.072 703.743,396.438 		"/>
		<polygon fill="#2F313F" points="689.421,368.936 689.323,371.188 698.313,366.355 		"/>
		<polygon fill="#45475D" points="688.305,434.592 688.305,437.019 671.608,431.647 		"/>
		<polygon fill="#45475D" points="689.419,383.79 689.419,386.216 680.244,382.795 		"/>
	</g>
	<path opacity="0.9" fill="#F7C1A6" d="M33.708,317.854c0,0,8.016-9.459,23.305-7.672l0.779,2.923
		C57.792,313.104,44.453,311.401,33.708,317.854z"/>
	<path opacity="0.9" fill="#F7C1A6" d="M135.508,301.405c0,0-7.911-18.416-28.75-18c-20.884,0.417-25,18.453-25.75,20.102
		s10.259-14.57,26-14.352C122.774,289.374,135.508,301.405,135.508,301.405z"/>
	<g>
		<polygon fill="#45475D" points="618.164,469.313 620.084,469.313 620.084,357.726 		"/>
		<polygon fill="#2F313F" points="620.084,469.313 622.419,469.313 620.101,330.394 		"/>
		<polygon fill="#B5A986" points="589.138,462.312 618.164,462.312 620.084,351.175 620.084,329.265 612.177,363.147 
			618.164,368.794 611.274,366.535 608.789,377.152 613.984,379.411 607.66,379.411 601.109,408.551 610.371,415.553 
			599.98,414.197 		"/>
		<polygon fill="#544F4D" points="651.03,462.312 622.456,462.312 620.084,329.265 627.99,363.147 622.004,368.794 628.894,366.535 
			631.379,377.152 626.183,379.411 632.508,379.411 639.059,408.551 629.797,415.553 640.188,414.197 		"/>
		<polygon fill="#2F313F" points="620.086,453.954 642.146,449.437 620.086,452.096 		"/>
		<polygon fill="#2F313F" points="620.09,423.982 620.09,426.384 637.345,423.32 		"/>
		<polygon fill="#2F313F" points="620.093,401.322 620.093,403.883 630.249,401.322 		"/>
		<polygon fill="#2F313F" points="620.095,375.947 620.009,377.904 626.634,375.947 		"/>
		<polygon fill="#45475D" points="619.124,433.021 619.124,435.13 604.61,430.461 		"/>
		<polygon fill="#45475D" points="620.093,388.859 620.093,390.968 612.117,387.994 		"/>
	</g>
	<g>
		<polygon fill="#353447" points="398.885,438.11 400.178,438.11 400.178,362.969 		"/>
		<polygon fill="#282733" points="400.178,438.11 401.75,438.11 400.189,344.563 		"/>
		<polygon fill="#ADA07F" points="379.34,433.396 398.885,433.396 400.178,358.558 400.178,343.804 394.854,366.62 398.885,370.422 
			394.246,368.901 392.572,376.051 396.07,377.571 391.812,377.571 387.4,397.193 393.638,401.909 386.641,400.996 		"/>
		<polygon fill="#544F4D" points="421.018,433.396 401.775,433.396 400.178,343.804 405.502,366.62 401.471,370.422 406.11,368.901 
			407.784,376.051 404.285,377.571 408.545,377.571 412.955,397.193 406.719,401.909 413.716,400.996 		"/>
		<polygon fill="#282733" points="400.18,427.768 415.034,424.726 400.18,426.517 		"/>
		<polygon fill="#282733" points="400.182,407.585 400.182,409.202 410.598,406.445 		"/>
		<polygon fill="#282733" points="400.184,392.326 400.184,394.051 407.607,390.957 		"/>
		<polygon fill="#282733" points="400.186,375.239 400.127,376.557 404.589,373.562 		"/>
		<polygon fill="#353447" points="399.531,413.671 399.531,415.092 389.759,411.947 		"/>
		<polygon fill="#353447" points="400.184,383.934 400.184,385.354 394.813,383.352 		"/>
	</g>
	<g>
		<polygon fill="#353447" points="442.045,442.048 443.125,442.048 443.125,379.218 		"/>
		<polygon fill="#282733" points="443.125,442.048 444.44,442.048 443.135,363.828 		"/>
		<polygon fill="#ADA07F" points="425.701,438.105 442.045,438.105 443.125,375.529 443.125,363.192 438.674,382.271 
			442.045,385.449 438.165,384.178 436.766,390.156 439.691,391.428 436.131,391.428 432.441,407.835 437.656,411.778 
			431.806,411.015 		"/>
		<polygon fill="#544F4D" points="460.551,438.105 444.461,438.105 443.125,363.192 447.577,382.271 444.207,385.449 
			448.086,384.178 449.485,390.156 446.56,391.428 450.121,391.428 453.81,407.835 448.594,411.778 454.445,411.015 		"/>
		<polygon fill="#282733" points="443.127,433.399 455.547,430.856 443.127,432.354 		"/>
		<polygon fill="#282733" points="443.129,416.523 443.129,417.876 451.838,415.571 		"/>
		<polygon fill="#282733" points="443.131,403.765 443.131,405.207 449.337,402.62 		"/>
		<polygon fill="#282733" points="443.132,389.478 443.083,390.579 446.813,388.074 		"/>
		<polygon fill="#353447" points="442.585,421.612 442.585,422.801 434.413,420.171 		"/>
		<polygon fill="#353447" points="443.131,396.747 443.131,397.935 438.64,396.261 		"/>
	</g>
	<g>
		<polygon fill="#353447" points="468.648,444.753 469.486,444.753 469.486,396.112 		"/>
		<polygon fill="#282733" points="469.486,444.753 470.504,444.753 469.493,384.198 		"/>
		<polygon fill="#ADA07F" points="455.996,441.701 468.648,441.701 469.486,393.257 469.486,383.706 466.039,398.476 
			468.648,400.937 465.646,399.952 464.562,404.58 466.826,405.564 464.07,405.564 461.215,418.267 465.252,421.319 
			460.723,420.729 		"/>
		<polygon fill="#544F4D" points="482.976,441.701 470.52,441.701 469.486,383.706 472.932,398.476 470.322,400.937 
			473.326,399.952 474.41,404.58 472.145,405.564 474.901,405.564 477.757,418.267 473.72,421.319 478.249,420.729 		"/>
		<polygon fill="#282733" points="469.486,438.058 479.103,436.089 469.486,437.248 		"/>
		<polygon fill="#282733" points="469.488,424.993 469.488,426.04 476.23,424.256 		"/>
		<polygon fill="#282733" points="469.49,415.115 469.49,416.232 474.295,414.229 		"/>
		<polygon fill="#282733" points="469.49,404.055 469.453,404.908 472.341,402.969 		"/>
		<polygon fill="#353447" points="469.067,428.933 469.067,429.853 462.741,427.816 		"/>
		<polygon fill="#353447" points="469.49,409.683 469.49,410.603 466.014,409.307 		"/>
	</g>
	<g>
		<polygon fill="#282733" points="50.563,0 42.335,480 90.333,480 83.293,0 		"/>
		<polygon fill="#282733" points="49.165,85.667 0,27 0,40.334 49.165,110.334 		"/>
		<polygon fill="#353447" points="72.501,0 83.294,0 90.333,480 74.501,480 		"/>
		<polygon fill="#353447" points="64.333,0 66.334,0 69.333,480 65.833,480 		"/>
		<polygon fill="#353447" points="56.5,0 56.5,90.667 58.577,93.667 58,0 		"/>
		<polygon fill="#353447" points="53.25,117.143 55.25,118.81 55.5,480 53.25,480 		"/>
		<polygon fill="#353447" points="83.442,82.609 83.442,98.425 104.809,74.333 104.809,74.333 102.908,65.576 		"/>
		<polygon fill="#353447" points="83.67,27 83.745,43.667 122.333,0 112.998,-0.334 		"/>
	</g>
	<polygon opacity="0.5" fill="#21212B" points="23.407,450.072 27.662,450.072 0,486.5 0,472 	"/>
	<g>
		<polygon fill="#1B1B26" points="537.78,455.653 538.628,455.653 538.628,406.369 		"/>
		<polygon fill="#1B1B26" points="538.628,455.653 539.659,455.653 538.635,394.297 		"/>
		<polygon fill="#1B1B26" points="524.96,452.562 537.78,452.562 538.628,403.476 538.628,393.798 535.136,408.763 537.78,411.257 
			534.736,410.26 533.64,414.948 535.935,415.946 533.142,415.946 530.248,428.816 534.339,431.908 529.749,431.311 		"/>
		<polygon fill="#1B1B26" points="552.296,452.562 539.675,452.562 538.628,393.798 542.12,408.763 539.477,411.257 542.519,410.26 
			543.617,414.948 541.321,415.946 544.115,415.946 547.009,428.816 542.918,431.908 547.508,431.311 		"/>
		<polygon fill="#1B1B26" points="538.629,448.869 548.372,446.875 538.629,448.049 		"/>
		<polygon fill="#1B1B26" points="538.631,435.633 538.631,436.692 546.252,435.34 		"/>
		<polygon fill="#1B1B26" points="538.632,425.624 538.632,426.755 543.118,425.624 		"/>
		<polygon fill="#1B1B26" points="538.633,414.417 538.595,415.28 541.521,414.417 		"/>
		<polygon fill="#1B1B26" points="538.203,439.624 538.203,440.556 531.794,438.493 		"/>
		<polygon fill="#1B1B26" points="538.632,420.119 538.632,421.052 535.108,419.737 		"/>
	</g>
	<path opacity="0.9" fill="#F7C1A6" d="M306.167,302.25c0,0-7.911-18.416-28.75-18c-20.884,0.417-25,18.453-25.75,20.102
		s10.259-14.57,26-14.352C293.433,290.219,306.167,302.25,306.167,302.25z"/>
	<path opacity="0.9" fill="#F7C1A6" d="M718.874,301.264c0,0-7.032-16.369-25.556-16c-18.564,0.371-22.223,16.403-22.889,17.868
		c-0.667,1.466,9.119-12.951,23.111-12.757C707.555,290.569,718.874,301.264,718.874,301.264z"/>
	<path opacity="0.9" fill="#F7C1A6" d="M529.208,269.451c0,0-10.264-17.944-30.396-17.443c-20.175,0.501-30.587,17.716-31.312,19.7
		c0,0,14.857-13.238,31.639-14.142C514.357,256.749,529.208,269.451,529.208,269.451z"/>
	<path opacity="0.9" fill="#F7C1A6" d="M331.25,312.25c0,0-5-8-17.25-8.625v2.75C314,306.375,321.5,304.375,331.25,312.25z"/>
	<path opacity="0.9" fill="#F7C1A6" d="M355.838,314.43c0,0-6.955-6.374-18.927-3.705l0.734,2.649
		C337.646,313.374,344.34,309.444,355.838,314.43z"/>
	<path opacity="0.9" fill="#F7C1A6" d="M218.167,312.25c0,0,8.016-9.459,23.305-7.672l0.779,2.923
		C242.25,307.501,228.911,305.798,218.167,312.25z"/>
	<path opacity="0.9" fill="#F7C1A6" d="M458.667,271.979v3.827c0,0-4.569-4.077-14.86-1.577c-8.096,1.967-14.178,7.865-13.685,6.956
		C434.575,272.979,444.737,267.354,458.667,271.979z"/>
	<path opacity="0.9" fill="#F7C1A6" d="M421.693,283.542l0.417,3.805c0,0-4.22-3.64-12.454-0.223
		c-6.478,2.688-10.863,9.102-10.554,8.152C401.891,286.717,409.678,280.205,421.693,283.542z"/>
	<path opacity="0.9" fill="#F7C1A6" d="M567.974,271.202l-0.417,3.805c0,0,4.703-2.599,13.443-0.84
		c5.333,1.073,9.89,7.115,9.58,6.166C587.792,271.773,579.989,267.865,567.974,271.202z"/>
	<path opacity="0.9" fill="#F7C1A6" d="M537.697,265.859v3.058c0,0,12.49-1.996,21.432,4.508
		C559.129,273.425,555.733,265.062,537.697,265.859z"/>
	<polygon fill="#91836B" points="255.458,317.224 254.919,317.224 254.919,352.295 256.003,352.963 256.003,317.224 	"/>
	<polygon fill="#91836B" points="271.792,333.615 271.373,333.273 255.835,352.066 256.168,352.516 256.503,352.963 
		272.212,333.963 	"/>
	<polygon fill="#E2D8B0" points="238.962,333.199 238.144,333.903 254.568,353.036 254.898,352.596 254.919,352.563 
		254.919,351.785 	"/>
	<path fill="#BEB08D" d="M256.276,351.967l-0.814,0.142l0.026,1.971v79.256l32.224,47.544h64.981L256.276,351.967z M257.559,433.153
		l40.687,30.114l-8.986,16.903L257.559,433.153z"/>
	<polygon fill="#665C4C" points="308.792,463.5 290.344,480.879 287.711,480.879 255.488,431.328 	"/>
	<path fill="#E2D8B0" d="M254.57,351.967l-96.312,128.771h64.977l32.228-47.543v-81.021L254.57,351.967z M221.861,480.145
		l-8.979-16.897l40.681-30.113L221.861,480.145z"/>
	<polygon fill="#BEB08D" points="200.25,462 220.833,479.875 254.128,431.828 	"/>
	<polygon fill="#E5DBBD" points="209.167,464.574 221.562,480.737 223.234,480.737 255.488,433.335 255.461,430.856 	"/>
	<polyline fill="#3C4E5B" points="158.257,480.737 158.257,480.737 213,503.999 469.49,504.479 352.693,480.879 	"/>
	<polygon fill="#91836B" points="301.809,464.629 289.413,480.792 287.742,480.792 255.488,433.39 255.514,430.911 	"/>
	<polygon fill="#31313D" points="223.234,480.737 287.711,480.879 255.488,433.335 	"/>
	<g>
		<path fill="#544F4D" d="M364.915,477.728c-0.652,1.918,0.373,4.001,2.291,4.652l25.196,8.565c1.917,0.651,4-0.375,4.651-2.292l0,0
			c0.652-1.917-0.374-4-2.291-4.651l-25.197-8.565C367.649,474.785,365.565,475.812,364.915,477.728L364.915,477.728z"/>
		<path fill="#544F4D" d="M376.003,465.102c-2.026,0.048-3.628,1.729-3.578,3.754l0.643,26.604c0.049,2.024,1.731,3.625,3.755,3.576
			l0,0c2.024-0.048,3.626-1.729,3.576-3.754l-0.643-26.605C379.707,466.653,378.025,465.052,376.003,465.102L376.003,465.102z"/>
		<path fill="#544F4D" d="M386.178,477.728c0.652,1.918-0.374,4.001-2.291,4.652l-25.197,8.565c-1.917,0.651-4-0.375-4.652-2.292
			l0,0c-0.651-1.917,0.375-4,2.292-4.651l25.198-8.565C383.443,474.785,385.526,475.812,386.178,477.728L386.178,477.728z"/>
		<path opacity="0.8" fill="#423E3D" d="M364.719,480.108c0,0-1.601,4.532,4.157,7.378l3.9-1.329l0.132,2.7
			c2.845,0.646,5.288,0.743,7.347,0.491l-0.006-2.616l4.252,1.526c3.025-1.469,4.495-3.896,4.342-5.067
			c-0.281-2.146-2.062-1.902-2.062-1.902L364.719,480.108z"/>
		<path fill="#CE895B" d="M376.593,485.134c0,0-14.944,1.535-18.033-17.924c-2.558-16.12,18.244-44.317,21.443-34.366
			c4.978,15.481,0,14.781,8.838,21.918C400.453,464.14,396.183,485.134,376.593,485.134z"/>
		<path fill="#E2D8B0" d="M376.593,485.134c0,0,16.399-3.397,10.866-18.87c-2.272-6.354-10.939-5.284-10.67-14.367
			c0.419-14.086-0.58-13.788-9.631,6.628C363.877,465.929,362.742,483.524,376.593,485.134z"/>
		
			<ellipse transform="matrix(0.9354 -0.3537 0.3537 0.9354 -149.3545 157.9004)" opacity="0.7" fill="#423E3D" cx="357.294" cy="487.542" rx="2.802" ry="3.211"/>
		
			<ellipse transform="matrix(-0.0673 -0.9977 0.9977 -0.0673 -92.6553 905.0258)" opacity="0.7" fill="#423E3D" cx="376.685" cy="495.82" rx="2.611" ry="3.083"/>
		
			<ellipse transform="matrix(-0.8779 -0.4788 0.4788 -0.8779 506.3328 1104.5969)" opacity="0.7" fill="#423E3D" cx="393.995" cy="487.745" rx="2.516" ry="3.068"/>
	</g>
</g>
</svg>
