<?xml version="1.0"?>
<svg version="1.1" xmlns="http://www.w3.org/2000/svg" width="200" height="200" style="border: dashed 2px #aaa"><path fill="#0863a3" d="M95.078125,126.26953125l0.09765625,0l-0.09765625,0q0.634765625,0.244140625,0.634765625,0.68359375q0,0.244140625-0.390625,0.7568359375t-0.439453125,0.7568359375q0,1.26953125-0.48828125,2.099609375q-0.244140625,0.5859375-0.5126953125,1.7578125t-0.3662109375,1.416015625q0,0.048828125-0.1220703125,0.439453125t-0.1708984375,0.48828125q0.29296875,0.87890625,0.29296875,1.171875l0,0.244140625q-0.09765625,0.390625-0.634765625,0.87890625t-0.68359375,0.68359375q-0.1953125,0.390625-0.48828125,0.537109375q0.09765625,0.09765625,0.09765625,0.390625l0,0.1953125q-0.048828125,0.146484375-0.09765625,0.4150390625t-0.09765625,0.3662109375q0,0.439453125-0.3173828125,1.3427734375t-0.6103515625,1.0498046875q-0.048828125,0.09765625-0.146484375,0.341796875t-0.2197265625,0.4150390625t-0.3173828125,0.2685546875q0,1.07421875-0.29296875,1.513671875q-0.09765625,0.244140625-0.5126953125,0.634765625t-0.5126953125,0.634765625q-0.341796875,0.634765625-1.46484375,1.220703125q-1.07421875,1.07421875-1.513671875,1.3671875q-0.09765625,0.146484375-0.439453125,0.4638671875t-0.439453125,0.4638671875q-0.1953125,0.1953125-0.6103515625,0.634765625t-0.6103515625,0.634765625t-0.48828125,0.341796875t-0.439453125,0.29296875t-0.29296875,0.390625t-0.5859375,0.48828125q-0.244140625,0.146484375-0.9033203125,0.5615234375t-1.0009765625,0.5615234375q-0.1953125,0.1953125-0.5859375,0.390625q-0.341796875,0.146484375-0.4150390625,0.537109375t-0.1708984375,0.537109375q-0.1953125,0.537109375-0.830078125,0.537109375q-0.29296875,0-0.48828125-0.09765625l-0.1953125-0.09765625q-0.1953125,0-0.439453125,0.1953125t-0.48828125,0.48828125t-0.390625,0.390625q-1.66015625,1.416015625-2.685546875,1.318359375l-0.5859375-0.1953125q-0.341796875,0-0.439453125,0.1953125q-0.29296875,0.29296875-0.68359375,0.29296875l-0.1953125,0q-0.390625-0.09765625-0.78125-0.68359375l-0.09765625,0q-0.146484375,0-0.3662109375,0.09765625t-0.3662109375,0.09765625q-0.29296875-0.048828125-1.0009765625,0.48828125t-0.7080078125,0.78125q-0.1953125,0.634765625-0.68359375,0.634765625l-0.1953125,0q-0.341796875-0.048828125-0.439453125-0.244140625t-0.146484375-0.1953125t-0.2197265625,0.0732421875t-0.3173828125,0.1220703125q-0.390625,0.244140625-0.68359375,0.244140625q-0.1953125,0-0.537109375-0.048828125t-0.537109375-0.048828125l-0.341796875,0q-0.244140625,0.048828125-0.6103515625,0.2685546875t-0.5615234375,0.2197265625q-0.29296875,0-0.390625-0.09765625q-0.390625,0.1953125-0.927734375,0.1953125q-0.29296875,0-0.537109375,0.1220703125t-0.439453125,0.1708984375q-0.048828125,0-0.1953125,0.048828125t-0.1953125,0.048828125q-0.1953125,0-0.3662109375-0.048828125t-0.390625-0.1220703125l-0.3662109375-0.1220703125l-0.9765625,0q-0.830078125,0-1.123046875-0.1953125q-0.09765625,0-0.68359375-0.1953125q-0.146484375,0-0.4638671875,0.09765625t-0.4638671875,0.09765625t-0.439453125,0.048828125t-0.439453125,0.048828125q-0.1953125,0-0.390625-0.09765625q-1.708984375,0.1953125-2.001953125,0.390625l-0.1953125,0.09765625q-0.244140625,0-0.5126953125-0.439453125t-0.5126953125-0.439453125q-0.341796875-0.048828125-1.123046875-0.244140625t-1.171875-0.1953125l-0.390625,0q-0.9765625,0.1953125-1.025390625,0.1953125q-0.09765625,0-1.07421875-0.1953125q-1.171875-0.29296875-1.318359375-0.29296875q-0.439453125,0-1.3427734375-0.3662109375t-1.2451171875-0.4150390625q-1.171875-0.29296875-2.783203125-1.220703125q-1.611328125,0-2.63671875-0.68359375q-0.537109375-0.146484375-1.513671875-0.7568359375t-1.26953125-1.0498046875q-0.78125,0.390625-1.123046875,0.390625q-0.29296875,0-0.29296875-0.29296875t0.09765625-0.390625l0-0.1953125q0-0.1953125-0.5859375-0.48828125q-1.7578125-0.78125-3.7109375-3.61328125q-2.05078125-1.806640625-2.490234375-2.587890625q-0.537109375-0.341796875-1.1474609375-0.9765625t-0.7568359375-1.025390625q-0.732421875-0.732421875-1.611328125-3.61328125q-1.3671875-2.05078125-1.3671875-3.02734375q-1.708984375-3.076171875-1.708984375-5.17578125q-1.318359375-2.5390625-1.318359375-4.58984375l0-0.390625q0-6.4453125-0.09765625-6.54296875q-0.68359375-0.146484375-0.68359375-0.48828125q0-0.390625,0.5859375-0.9765625q0.244140625-0.1953125,0.390625-0.830078125q-0.09765625-0.1953125-0.09765625-0.78125q0-1.171875,0.439453125-2.490234375q0.048828125-0.09765625,0.1220703125-0.537109375t0.1708984375-0.68359375q0.146484375-0.244140625,0.2197265625-0.927734375t0.2685546875-0.9765625q-0.09765625-0.09765625-0.09765625-0.68359375q0-1.025390625,0.29296875-1.904296875q0-0.5859375,0.48828125-1.806640625q0.146484375-0.244140625,0.1953125-0.830078125t0.1953125-0.87890625q0.390625-1.123046875,2.1484375-2.685546875q0.634765625-1.26953125,0.87890625-2.001953125q0.09765625-0.244140625,0.29296875-0.5859375t0.29296875-0.5859375q0.1953125-0.390625,0.830078125-0.830078125l0.146484375-0.146484375q1.318359375-1.513671875,1.318359375-1.26953125q0-0.048828125-0.048828125-0.1953125t-0.048828125-0.1953125q0-0.830078125,1.318359375-1.708984375q0.927734375-0.927734375,1.708984375-1.3671875q0.09765625-0.09765625,0.48828125-0.2197265625t0.48828125-0.2685546875q0-0.537109375,0.146484375-0.78125t0.6103515625-0.439453125t0.6591796875-0.29296875q0.244140625-0.244140625,0.87890625-0.5615234375t0.830078125-0.4638671875q0.146484375-0.29296875,1.07421875-0.9765625q1.953125-0.9765625,2.587890625-1.123046875q0.146484375-0.09765625,0.5615234375-0.1220703125t0.6591796875-0.1708984375q0.1953125-0.09765625,0.6591796875-0.341796875t0.6591796875-0.341796875q0.29296875-0.09765625,0.7568359375-0.7080078125t0.9033203125-0.6103515625q0.244140625,0,0.439453125,0.09765625l0.29296875,0q0.146484375,0,0.2685546875,0.09765625t0.2197265625,0.09765625q0.1953125,0,0.390625-0.09765625q0.146484375-0.09765625,0.341796875-0.1220703125t0.29296875-0.0732421875q0.09765625-0.29296875,0.78125-0.68359375t1.171875-0.390625l0.244140625,0q0.1953125,0.048828125,0.341796875,0.2197265625t0.244140625,0.1708984375l0.390625-0.1953125q0.146484375-0.09765625,1.025390625-0.390625q0.048828125,0,0.1953125-0.048828125t0.1953125-0.048828125q0.29296875,0,0.48828125,0.1953125q0.390625-0.1953125,0.48828125-0.1953125t0.2197265625,0.048828125t0.1708984375,0.048828125q0.146484375,0,0.537109375-0.244140625t0.48828125-0.29296875q0.1953125-0.09765625,0.5859375-0.09765625t0.48828125,0.09765625q0.48828125,0,1.416015625-0.1708984375t1.220703125-0.2197265625q0.146484375,0,0.3173828125,0.09765625t0.2685546875,0.09765625l0.09765625,0q0.29296875-0.29296875,0.68359375-0.29296875l0.1953125,0q0.78125,0.1953125,1.318359375,0.1953125q0.29296875,0,0.9033203125-0.048828125t0.9033203125-0.048828125q1.123046875,0,1.513671875,0.09765625q0.29296875,0.09765625,0.78125,0.09765625q0.634765625,0,1.123046875-0.09765625q0.1953125-0.09765625,0.68359375-0.09765625q1.171875,0,1.708984375,0.830078125q0.146484375,0.390625,0.48828125,0.390625q0.146484375,0,0.537109375-0.1708984375t0.537109375-0.2197265625q1.025390625-0.341796875,1.123046875-0.341796875q0.244140625,0,0.48828125,0.244140625q0.29296875,0.29296875,0.29296875,0.68359375q0,0.29296875-0.09765625,0.48828125l-0.1953125-0.09765625l1.220703125,0.48828125q-0.09765625,0-0.48828125-0.1953125q0.146484375,0,1.171875-0.68359375q0.09765625-0.09765625,0.29296875-0.09765625q0.390625,0,0.390625,0.5859375q0,0.29296875-0.09765625,0.48828125q0.146484375,0.048828125,0.7568359375,0.146484375t0.87890625,0.1708984375t0.830078125,0.2197265625t0.87890625,0.29296875t0.7080078125,0.3662109375t0.68359375,0.5126953125q0.48828125,0.048828125,1.4892578125,0.5859375t1.2939453125,0.830078125q0.09765625,0,0.87890625,0.390625q0.146484375-0.048828125,0.4150390625-0.146484375t0.4150390625-0.146484375q0.341796875-0.048828125,0.4638671875,0.09765625t0.1220703125,0.48828125q0,0.390625-0.09765625,0.5859375q2.392578125,1.07421875,4.00390625,2.9296875q1.025390625,0.5859375,1.611328125,1.513671875q0.1953125,0.1953125,0.390625,0.1953125q0.048828125,0,0.78125-0.29296875q0.29296875-0.146484375,0.732421875-0.146484375q0.48828125,0,0.5859375,0.341796875q0.09765625,0.09765625,0.09765625,0.390625q0,0.341796875-0.48828125,1.07421875l-0.29296875,0.439453125q0,0.048828125,0.0244140625,0.0732421875t0.09765625,0.1220703125t0.1708984375,0.1953125q0.146484375,0.244140625,0.537109375,0.634765625t0.537109375,0.634765625q0.09765625,0.1953125,0.68359375,1.07421875t0.732421875,1.46484375q0.1953125,0.341796875,0.9765625,2.099609375q0.244140625,0.390625,0.439453125,0.390625q0.048828125,0,0.244140625-0.146484375t0.439453125-0.146484375l0.29296875,0q0.1953125,0.09765625,0.2197265625,0.341796875t0.1708984375,0.244140625q0.537109375,0.1953125,0.634765625,0.390625q0.09765625,0.09765625,0.09765625,0.390625q0,0.390625-0.634765625,1.025390625l0.1953125,0q0.537109375,0,0.537109375,0.390625q0,0.341796875-0.29296875,0.48828125q-0.341796875,0.146484375-0.341796875,0.390625q0,0.048828125,0.244140625,0.537109375q0.537109375,1.07421875,0.68359375,1.904296875q0.146484375-0.146484375,0.390625-0.146484375q0.390625,0,0.390625,0.439453125l0,0.1953125q-0.048828125,0.1953125-0.3662109375,0.439453125t-0.3173828125,0.439453125l0,1.123046875l0,0.5859375q0.390625,1.171875,0.390625,2.099609375q0.390625,0.5859375,0.390625,2.001953125l0,0.1953125q-0.09765625,0.1953125-0.09765625,0.48828125l0,0.927734375l0,0.390625q0.09765625,0.09765625,0.09765625,0.5859375q0,0.439453125-0.09765625,0.634765625l0,0.1953125l0,0.1953125q0.09765625,0,0.48828125,0.09765625q0.634765625,0.146484375,0.634765625,0.5859375q0,0.87890625-0.732421875,1.611328125q0.244140625,0.732421875,0.244140625,0.9765625q0,0.390625-0.244140625,1.123046875z M85.01953125,143.9453125l0.390625-0.1953125q-0.29296875,0.1953125-0.390625,0.1953125q1.85546875-0.9765625,2.587890625-2.001953125q-1.318359375,1.171875-2.587890625,2.001953125z M88.486328125,141.259765625q0-0.1953125-0.09765625-0.1953125q-0.09765625,0.09765625-0.1953125,0.390625q0.048828125-0.048828125,0.146484375-0.09765625t0.146484375-0.09765625z M90.1953125,135.64453125l-1.318359375,0.634765625q0.341796875-0.146484375,1.318359375-0.634765625q0.146484375-0.09765625,0.390625-0.78125q-0.732421875,0.439453125-5.859375,3.564453125t-6.54296875,3.9794921875t-5.6640625,3.3935546875t-6.5673828125,3.8818359375t-5.76171875,3.271484375t-6.4697265625,3.5888671875l1.171875,0q0.732421875,0,1.123046875-0.1953125q0.341796875-0.1953125,1.5625-0.927734375t1.904296875-1.07421875q7.763671875-4.541015625,10.205078125-5.908203125q5.419921875-3.125,6.103515625-3.662109375q1.220703125-0.78125,4.345703125-2.978515625t5.4443359375-3.6376953125t4.6142578125-2.5146484375z M85.703125,140.869140625l-1.513671875,0.9765625q0.390625-0.29296875,1.513671875-0.9765625q-2.099609375,1.220703125-5.9326171875,3.4423828125t-6.9580078125,4.1015625t-5.810546875,3.6376953125q13.18359375-7.568359375,18.701171875-11.181640625z M36.484375,150.341796875q0.830078125-0.48828125,0.830078125-0.68359375q-0.48828125,0-0.830078125,0.68359375q1.85546875-1.07421875,6.93359375-4.19921875q-0.78125-0.78125-0.927734375-0.9765625l-0.5859375-0.5859375q-0.09765625,0.09765625-0.5859375,0.537109375t-0.732421875,0.732421875q-2.783203125,2.587890625-4.1015625,4.4921875z M38.876953125,140.283203125l0,0.09765625l0-0.244140625l0,0.146484375q0.1953125,0.29296875-0.4150390625,1.0986328125t-1.513671875,1.708984375l-0.9521484375,0.9521484375q-2.197265625,2.392578125-3.173828125,3.7109375q0.29296875-0.1953125,2.294921875-1.3671875t3.7841796875-2.2216796875t1.7822265625-1.0986328125q-0.341796875-0.5859375-0.634765625-1.85546875t-0.634765625-1.85546875q-0.927734375-1.611328125-1.123046875-2.392578125q-0.5859375,0.390625-0.78125,0.5859375q0.68359375-0.146484375,0.68359375,0.1953125t-0.9765625,1.318359375q-1.904296875,1.171875-3.90625,2.783203125q-0.830078125,0.48828125-3.0517578125,2.24609375t-1.9775390625,2.05078125q0.29296875,0.244140625,3.41796875-2.099609375q0.634765625-0.390625,1.7822265625-1.1962890625t1.7333984375-1.1962890625q0.09765625-0.048828125,0.732421875-0.5126953125t1.2939453125-0.830078125t1.0498046875-0.3662109375q0.439453125,0,0.5859375,0.341796875z M27.3046875,145.166015625q0.1953125,0.146484375,0.6103515625-0.146484375t0.9521484375-0.830078125l0.634765625-0.634765625q-1.953125,1.220703125-2.392578125,1.416015625z M23.88671875,139.55078125l0.390625-0.29296875l-0.390625,0.29296875q0.732421875-0.439453125,2.1240234375-1.3916015625t2.0751953125-1.3916015625q-0.146484375,0.048828125-0.732421875,0.3662109375t-1.1474609375,0.634765625t-1.1474609375,0.6591796875t-0.927734375,0.6591796875t-0.244140625,0.4638671875z M21.005859375,131.884765625q0-0.09765625,0.4638671875-0.634765625t0.6103515625-0.5859375q0.341796875-0.244140625,1.0986328125-0.7080078125t1.0986328125-0.7080078125q-1.66015625,0.830078125-2.294921875,0.830078125q-0.5859375,0-0.5859375-0.537109375l0-0.1953125q0.146484375-0.341796875,0.68359375-0.5859375q2.63671875-2.1484375,3.80859375-2.978515625q2.197265625-1.806640625,6.787109375-5.419921875q-1.5625,0.87890625-4.638671875,2.685546875t-4.638671875,2.734375q-0.09765625,0.048828125-1.5625,0.7080078125t-1.7578125,1.1474609375l0,0.537109375q0,0.830078125,0.4150390625,2.05078125t0.5126953125,1.66015625z M38.876953125,105.37109375q-0.830078125,0.5859375-9.5703125,7.080078125q-1.123046875,0.78125-3.271484375,2.392578125t-3.22265625,2.44140625q-0.146484375,0.146484375-0.6591796875,0.4638671875t-0.830078125,0.537109375t-0.634765625,0.6103515625t-0.3662109375,0.78125q2.83203125-1.5625,7.7392578125-5.17578125t6.0302734375-4.345703125q2.05078125-1.611328125,3.22265625-1.806640625q0.390625-0.048828125,0.927734375-1.220703125t0.634765625-1.7578125z M58.115234375,87.939453125l-0.634765625,0.341796875l0.634765625-0.341796875q-4.541015625,2.34375-9.0087890625,5.2978515625t-10.8154296875,7.666015625t-8.3984375,6.1767578125q1.318359375-0.78125,3.9306640625-2.44140625t3.8818359375-2.490234375q0.68359375-0.439453125,2.1240234375-1.3427734375t2.1728515625-1.3427734375q0.1953125-0.09765625,1.318359375-0.68359375t1.7578125-1.07421875t0.830078125-1.025390625q0.634765625-1.025390625,1.26953125-1.025390625l0.341796875,0l0.29296875,0q0.29296875,0,1.806640625-0.87890625q0.732421875-0.439453125,2.1240234375-1.3427734375t1.9775390625-1.2939453125q4.736328125-2.83203125,6.689453125-4.1015625l-0.29296875,0q-0.29296875,0-0.830078125-0.048828125t-0.78125-0.048828125l-0.390625,0z M72.51953125,90.869140625l-0.537109375,0.29296875l0.537109375-0.29296875q-3.955078125,2.63671875-8.30078125,5.17578125q1.708984375,0.29296875,3.076171875,1.806640625q0.146484375-0.1953125,1.5625-2.001953125t2.587890625-3.369140625t1.07421875-1.611328125z M77.79296875,93.5546875l-1.611328125,1.025390625l1.611328125-1.025390625q-6.103515625,3.857421875-7.91015625,5.615234375q0.537109375-0.1953125,1.123046875-0.4638671875t1.0498046875-0.5126953125t1.123046875-0.6591796875t1.025390625-0.6591796875t1.07421875-0.8056640625t0.9521484375-0.7568359375t1.025390625-0.830078125t0.927734375-0.732421875q-0.1953125-0.1953125-0.390625-0.1953125z M71.884765625,101.7578125l-0.09765625-0.09765625l0.09765625,0.1953125l0-0.09765625q0-0.048828125-0.048828125-0.09765625t-0.048828125-0.09765625q0-0.439453125,0.6103515625-1.220703125t1.2451171875-1.4404296875t1.513671875-1.46484375t0.927734375-0.8544921875q-0.146484375,0.09765625-1.0986328125,0.8056640625t-1.3671875,1.0009765625t-1.220703125,0.78125t-1.4892578125,0.732421875t-1.318359375,0.341796875q0.09765625,0.146484375,0.8544921875,0.9521484375t0.9521484375,1.3427734375q0.1953125,0.244140625,0.5126953125,0.8544921875t0.5126953125,0.8544921875q4.98046875-4.39453125,7.470703125-6.689453125q-0.1953125,0.09765625-1.123046875,0.68359375t-1.9775390625,1.220703125t-2.1484375,1.26953125t-1.8798828125,0.927734375t-0.87890625,0.09765625z M84.384765625,98.779296875l-0.78125,0.48828125q0.78125-0.390625,0.78125-0.48828125q-1.416015625,0.830078125-3.0029296875,1.85546875t-3.466796875,2.294921875t-2.9052734375,1.953125q-0.146484375,0.09765625-0.5126953125,0.2685546875t-0.5615234375,0.29296875t-0.3662109375,0.3173828125t-0.1708984375,0.390625q0,0.29296875,0.09765625,0.390625q0.244140625,0.48828125,0.390625,0.927734375q1.220703125-0.927734375,5.126953125-3.7109375t5.908203125-4.4921875q-0.048828125-0.048828125-0.2685546875-0.2197265625t-0.2685546875-0.2685546875z M81.30859375,123.33984375l-0.5859375,0.439453125q0.68359375-0.341796875,0.68359375-0.439453125l-0.09765625,0q-0.537109375,0.341796875-1.904296875,1.220703125t-2.099609375,1.318359375q-0.390625,0.244140625-0.5126953125,0.6591796875t-0.1220703125,0.9765625t-0.048828125,0.8544921875q1.220703125-1.123046875,2.490234375-2.1484375t3.4912109375-2.685546875t2.6123046875-1.953125q-0.68359375,0.29296875-1.9775390625,0.87890625t-1.9287109375,0.87890625z M83.212890625,120.068359375l-0.1953125,0.09765625q0,0.048828125,0.29296875-0.09765625t0.5859375-0.341796875l0.29296875-0.146484375l-0.9765625,0.48828125q-0.48828125,0.341796875-1.5380859375,1.025390625t-1.6357421875,1.07421875t-1.416015625,1.0009765625t-1.513671875,1.1962890625q2.1484375-1.025390625,11.181640625-6.396484375q1.85546875-1.123046875,3.22265625-1.708984375q0.48828125-0.244140625,0.48828125-0.5859375q0-0.048828125-0.1953125-0.830078125q-2.783203125,2.001953125-8.59375,5.224609375z M81.11328125,119.23828125l0.1953125-0.09765625q-0.09765625,0-0.1953125,0.09765625q0.5859375-0.390625,0.9765625-0.5859375q-0.537109375,0.146484375-0.9765625,0.5859375z M77.3046875,128.955078125q1.513671875-0.87890625,4.6875-2.6611328125t4.6875-2.7099609375l5.126953125-2.9296875q0.78125-0.537109375,0.78125-1.611328125q0-0.1953125-0.048828125-0.634765625t-0.048828125-0.634765625q-0.634765625,0.439453125-1.904296875,1.2451171875t-1.904296875,1.2451171875q-0.68359375,0.439453125-1.9287109375,1.3916015625t-1.9287109375,1.3916015625q-4.8828125,3.564453125-7.51953125,5.908203125z M92.783203125,123.974609375l-0.09765625,0l0.09765625,0q-2.24609375,1.3671875-6.1279296875,4.2236328125t-5.1513671875,3.6865234375q5.6640625-3.3203125,7.71484375-4.638671875q0.537109375-0.390625,1.66015625-1.1474609375t1.708984375-1.1474609375q0.29296875-0.146484375,0.29296875-0.390625q0-0.048828125-0.048828125-0.244140625t-0.048828125-0.341796875z M92.783203125,126.171875q0.09765625-0.09765625,0.09765625-0.1953125q-0.341796875,0.244140625-1.0498046875,0.68359375t-1.0498046875,0.68359375q0.146484375-0.09765625,0.68359375-0.29296875t0.9033203125-0.4150390625t0.4150390625-0.4638671875z M82.28515625,133.642578125l-1.171875,0.830078125l1.806640625-1.220703125q-0.244140625,0.09765625-0.634765625,0.390625q-2.83203125,1.806640625-5.56640625,3.80859375q-0.146484375,0.09765625-0.78125,0.4638671875t-1.07421875,0.634765625t-0.9033203125,0.634765625t-0.5615234375,0.6591796875q6.4453125-3.662109375,11.9140625-6.494140625q4.443359375-2.490234375,5.810546875-3.369140625q0.244140625-0.146484375,0.439453125-0.29296875t0.3173828125-0.244140625t0.244140625-0.2685546875t0.1708984375-0.244140625t0.1220703125-0.29296875t0.09765625-0.3173828125t0.0732421875-0.3662109375t0.09765625-0.4150390625q-0.87890625,0.341796875-1.8798828125,0.8544921875t-1.6845703125,0.87890625t-1.8310546875,1.07421875t-1.611328125,1.025390625t-1.7822265625,1.1962890625z M52.890625,151.3671875l-0.48828125,0.390625l0.48828125-0.390625q-0.634765625,0.439453125-1.85546875,1.4404296875t-1.85546875,1.4404296875q0.87890625-0.537109375,1.8798828125-1.0986328125t2.2216796875-1.220703125t1.904296875-1.0498046875q-0.537109375-0.341796875-1.3671875-0.341796875q-0.537109375,0-0.830078125,0.146484375q0.09765625,0.09765625,0.09765625,0.29296875t-0.1953125,0.390625z M59.384765625,150.9765625q-1.123046875,1.123046875-5.17578125,4.296875q4.052734375-2.24609375,12.59765625-7.32421875q-0.927734375,0.244140625-1.904296875,0.927734375q-0.1953125,0.1953125-0.5859375,0.1953125l-0.439453125,0l-0.78125,0.78125q-0.830078125,0.68359375-1.806640625,0.68359375q-0.390625,0-0.5859375-0.09765625l-0.390625,0q-0.390625,0-0.927734375,0.537109375z M73.984375,138.28125l0.830078125-0.634765625l-0.830078125,0.634765625q2.734375-2.1484375,6.8359375-4.833984375q-2.1484375,1.220703125-4.443359375,2.83203125q-0.146484375,0.09765625-0.6103515625,0.390625t-0.7568359375,0.5126953125t-0.6103515625,0.5126953125t-0.4150390625,0.5859375z M74.521484375,136.474609375l0.390625-0.29296875q-0.09765625,0-0.244140625,0.1220703125t-0.146484375,0.1708984375q2.392578125-1.66015625,3.271484375-2.197265625q-1.46484375,0.5859375-2.001953125,0.5859375q-0.5859375,0-0.87890625-0.29296875q0,0.29296875-0.1953125,0.9521484375t-0.1953125,0.9521484375z M75.693359375,131.73828125l0,0.439453125q1.416015625-1.513671875,4.1015625-3.515625q-1.7578125,1.123046875-2.392578125,1.416015625q-0.1953125,0.09765625-0.6103515625,0.341796875t-0.6103515625,0.341796875q-0.146484375,0.09765625-0.244140625,0.4638671875t-0.244140625,0.5126953125z M76.376953125,118.84765625l0.439453125-0.390625q-0.439453125,0.29296875-0.439453125,0.390625q1.171875-1.171875,3.41796875-2.783203125q-0.09765625,0.048828125-0.68359375,0.439453125t-1.171875,0.68359375t-0.927734375,0.29296875q-0.390625,0-0.390625-0.439453125q-0.341796875,0.146484375-0.341796875,0.537109375q0,0.146484375,0.048828125,0.48828125t0.048828125,0.48828125l0,0.29296875z M78.18359375,114.94140625l0.537109375-0.29296875l-0.732421875,0.48828125q0-0.09765625,0.1953125-0.1953125q2.5390625-1.66015625,5.126953125-3.662109375q-2.44140625,1.513671875-5.322265625,3.076171875q-0.244140625,0.146484375-0.732421875,0.390625t-0.732421875,0.390625q-0.341796875,0.09765625-0.341796875,0.341796875l0,0.390625l0,0.29296875q0.341796875-0.1953125,1.0009765625-0.6103515625t1.0009765625-0.6103515625z M75.302734375,111.572265625l0.390625-0.390625l-0.390625,0.390625q1.7578125-2.05078125,6.884765625-6.787109375q-1.07421875,0.68359375-3.173828125,1.8798828125t-2.392578125,1.3916015625q-0.09765625,0.048828125-0.5859375,0.2685546875t-0.87890625,0.439453125t-0.439453125,0.4150390625q0,0.09765625,0.5859375,2.392578125z M68.61328125,99.169921875l0-0.09765625l0,0.09765625q0.09765625-0.09765625,0.29296875-0.3662109375t0.29296875-0.3662109375q-0.439453125,0.29296875-0.87890625,0.439453125z M61.38671875,95.263671875q0.1953125-0.1953125,0.1953125-0.390625q-0.1953125,0-0.1953125,0.29296875l0,0.09765625q0.390625-0.537109375,3.3203125-3.7109375q-3.02734375,1.611328125-5.419921875,3.125q0.09765625,0.048828125,0.9521484375,0.1953125t1.1474609375,0.390625z M33.798828125,126.85546875l0.390625-0.1953125l-0.390625,0.1953125q1.220703125-0.732421875,1.708984375-0.9765625q0.29296875-0.146484375,0.29296875-0.439453125l0-0.390625l0-0.29296875l0-0.1953125q0-0.244140625,0.09765625-0.732421875t0.09765625-0.68359375t-0.09765625-0.29296875q-0.1953125,0.09765625-0.390625,0.29296875q0.1953125,0.1953125,0.1953125,1.025390625q0,0.5859375-0.09765625,0.68359375q-0.1953125,0.48828125-0.830078125,1.171875t-0.9765625,0.830078125z M35.80078125,119.580078125l0-0.09765625l0,0.09765625l0-0.439453125q-1.904296875,1.513671875-5.76171875,4.541015625t-5.76171875,4.4921875q2.880859375-1.513671875,7.71484375-4.833984375q0.5859375-0.341796875,1.66015625-1.0498046875t1.66015625-1.0498046875q0.48828125-0.341796875,0.48828125-0.68359375l0-0.5859375l0-0.390625z M36.6796875,114.2578125l0-0.48828125q-11.42578125,9.375-13.0859375,10.791015625q3.271484375-1.953125,8.10546875-4.6875q0.732421875-0.390625,2.05078125-1.1962890625t2.05078125-1.1962890625q0.48828125-0.29296875,0.634765625-1.6357421875t0.244140625-1.5869140625z M37.412109375,110.05859375q0,0.09765625-0.341796875,0.3662109375t-0.9033203125,0.6103515625t-1.07421875,0.634765625t-1.0009765625,0.5615234375t-0.5859375,0.3173828125q2.05078125-1.07421875,3.271484375-1.46484375q0.537109375-0.146484375,0.537109375-0.341796875l0-0.29296875q0-0.29296875,0.09765625-0.390625z M33.603515625,113.57421875l-1.513671875,0.78125q0,0.048828125,0.3662109375-0.1220703125t0.732421875-0.390625t0.4150390625-0.2685546875q-5.126953125,2.9296875-11.5234375,7.568359375q1.46484375-0.5859375,3.173828125-1.5869140625t2.7099609375-1.708984375t3.02734375-2.2705078125t2.6123046875-2.001953125z M53.0859375,94.04296875q0.537109375-0.29296875,0.537109375-0.390625q-0.634765625,0.29296875-0.634765625,0.390625l0.09765625,0q1.806640625-1.318359375,5.615234375-3.759765625q-1.318359375,0.78125-3.9306640625,2.3681640625t-3.8818359375,2.4169921875q0.1953125,0.1953125,0.390625,0.1953125q0.244140625,0,0.8544921875-0.5615234375t0.9521484375-0.6591796875z M63.388671875,88.76953125q-0.537109375,0-1.1962890625,0.341796875t-1.46484375,0.9033203125t-1.1474609375,0.7568359375q-0.732421875,0.48828125-2.1728515625,1.4404296875t-2.1240234375,1.4404296875q0.341796875-0.048828125,0.87890625,0.0732421875t0.634765625,0.1220703125q0.29296875,0,0.48828125-0.09765625q0.341796875-0.1953125,1.0009765625-0.5859375t1.0009765625-0.5859375q3.955078125-2.44140625,5.322265625-3.515625q-1.171875-0.29296875-1.220703125-0.29296875z M36.484375,101.171875l0.1953125-0.1953125l-1.66015625,1.26953125q0.244140625-0.29296875,1.46484375-1.07421875q3.076171875-2.294921875,3.90625-2.83203125q-1.171875,0.78125-5.0537109375,3.22265625t-5.9326171875,3.80859375q-1.171875,0.68359375-4.98046875,3.173828125q-0.09765625,0.09765625-0.78125,0.48828125t-1.0498046875,0.6591796875t-0.732421875,0.7080078125t-0.3662109375,0.87890625q2.44140625-1.171875,4.78515625-2.7099609375t5.8349609375-4.150390625t4.3701171875-3.2470703125z M21.298828125,112.451171875l0.09765625,0l-0.09765625,0q0.390625-0.1953125,0.48828125-0.29296875q-0.48828125,0-0.48828125,0.1953125l0,0.09765625z M21.298828125,113.671875q0,0.048828125,0.3662109375-0.1953125t0.7568359375-0.5126953125t0.390625-0.3173828125q-0.390625,0.341796875-1.513671875,1.025390625q0,0.048828125-0.048828125,0.146484375t-0.048828125,0.146484375q0.244140625-0.146484375,11.279296875-7.080078125q1.123046875-0.732421875,7.12890625-4.541015625q0.29296875-0.244140625,1.2451171875-0.7568359375t1.708984375-1.0009765625t1.0498046875-0.927734375q-13.134765625,8.056640625-22.314453125,14.013671875z M19.8828125,125.78125l0.1953125,0.390625q11.1328125-9.228515625,16.40625-13.427734375q-1.7578125,1.07421875-5.8349609375,4.0771484375t-6.4697265625,4.3212890625q-1.953125,1.220703125-3.076171875,1.220703125l-0.390625,0q-0.927734375-0.146484375-0.927734375,2.392578125q0,0.830078125,0.09765625,1.025390625z M21.591796875,133.837890625q0,0.244140625,0.09765625,0.341796875q4.150390625-2.685546875,8.88671875-6.103515625q0.29296875-0.244140625,1.025390625-0.732421875t1.171875-0.830078125t1.0009765625-0.8544921875t0.9033203125-1.0009765625q-0.29296875-0.048828125-0.732421875,0.1953125t-0.9521484375,0.6591796875t-0.6103515625,0.4638671875q-0.830078125,0.5859375-2.490234375,1.611328125t-2.490234375,1.5625q-0.927734375,0.48828125-2.5390625,1.5380859375t-2.1484375,1.3916015625q-0.09765625,0.09765625-0.537109375,0.3173828125t-0.6103515625,0.4150390625t-0.1708984375,0.439453125q0,0.29296875,0.1953125,0.5859375z M23.10546875,138.037109375l0.29296875-0.1953125l-0.29296875,0.1953125q0.78125-0.68359375,2.880859375-1.953125q-0.09765625,0.048828125-0.68359375,0.29296875t-1.0009765625,0.439453125t-0.8056640625,0.48828125t-0.390625,0.537109375l0,0.1953125z M27.890625,133.056640625l0.09765625-0.09765625q-0.29296875,0-0.29296875,0.1953125q0.09765625,0,0.1953125-0.09765625q0.732421875-0.5859375,1.708984375-1.07421875q-0.537109375,0.29296875-1.6357421875,0.87890625t-1.6845703125,0.87890625q0.146484375-0.048828125,0.7080078125-0.3173828125t0.9033203125-0.3662109375z M22.51953125,134.86328125q6.689453125-3.80859375,6.982421875-4.00390625q0.732421875-0.439453125,2.294921875-1.3427734375t2.294921875-1.3427734375q0.09765625-0.048828125,0.4150390625-0.1953125t0.48828125-0.244140625t0.4150390625-0.244140625t0.3662109375-0.3173828125t0.1220703125-0.3173828125q-2.83203125,1.46484375-6.982421875,4.00390625q-0.634765625,0.341796875-1.7822265625,1.0498046875t-1.7333984375,1.0498046875q-0.29296875,0.1953125-0.927734375,0.537109375t-1.1474609375,0.68359375t-0.8056640625,0.68359375z M37.216796875,134.47265625l-0.1953125,0.09765625z M39.31640625,133.740234375q0.048828125,0.09765625,0.4150390625,0.244140625t0.4638671875,0.29296875q0.09765625,0.09765625,0.09765625,0.29296875q0,0.390625-0.390625,0.78125l0.29296875,0.5859375q0.390625,0.68359375,0.78125,1.611328125q0.439453125,0.732421875,0.87890625,2.294921875t0.732421875,2.197265625q1.220703125-0.732421875,1.416015625-0.87890625q0.1953125-0.09765625,0.390625-0.09765625q0.29296875,0,0.29296875,0.29296875q0,0.537109375-0.390625,0.927734375q-0.146484375,0.146484375-0.341796875,0.29296875t-0.2685546875,0.2197265625t-0.0732421875,0.1708984375l0.390625,0.5859375l0.390625,0.390625q0.78125,0.5859375,1.123046875,0.927734375q0.732421875-0.48828125,1.171875-0.48828125l0.09765625,0q0.390625,0.146484375,0.390625,0.68359375l0,0.1953125q-0.048828125,0.244140625-0.244140625,0.390625q-0.048828125,0.048828125-0.048828125,0.09765625q0.09765625,0.09765625,0.1953125,0.29296875q0.537109375,0.146484375,1.611328125,0.927734375q0.1953125,0.048828125,1.3671875,0.5126953125t1.953125,0.4638671875q0.87890625,0,1.46484375,0.1953125q0.1953125-0.09765625,0.830078125-0.09765625l0.87890625,0q0.78125,0.1953125,1.025390625,0.1953125q0.48828125-0.341796875,0.9765625-0.48828125l0.29296875,0q0.341796875,0,0.732421875,0.1953125q0.5859375-0.1953125,0.87890625-0.1953125q0.341796875,0.048828125,1.2939453125-0.2197265625t1.3916015625-0.2685546875q0.78125,0,1.123046875,0.5859375q0.146484375-0.146484375,0.537109375-0.6103515625t0.732421875-0.732421875t0.732421875-0.4638671875q1.26953125-0.634765625,1.611328125-1.171875q0.29296875-0.634765625,0.9765625-1.123046875q0-0.390625,0.29296875-0.68359375q0.146484375-0.1953125,0.9521484375-0.6591796875t0.8544921875-0.7568359375q0.146484375-0.439453125,0.5859375-0.87890625q0-0.341796875,0.29296875-0.732421875t0.341796875-0.5859375q0-0.341796875,0.3173828125-0.87890625t0.3662109375-0.732421875q1.611328125-4.78515625,2.685546875-9.9609375q-0.048828125,0-0.29296875,0.1708984375t-0.4638671875,0.29296875t-0.4150390625,0.1220703125q-0.29296875,0-0.390625-0.1953125q-0.09765625-0.09765625-0.09765625-0.390625q0-0.341796875,0.390625-0.927734375q0.244140625-0.244140625,0.732421875-0.5615234375t0.732421875-0.6591796875t0.146484375-0.87890625q-0.78125,0.390625-0.927734375,0.390625q-0.244140625,0-0.390625-0.29296875l-0.09765625-0.1953125q0-0.146484375,0.09765625-0.244140625t0.2685546875-0.1953125t0.2197265625-0.146484375q0.732421875-0.439453125,0.732421875-0.5859375q0-0.09765625-0.3173828125-0.4150390625t-0.3173828125-0.7080078125l0-0.1953125q0.048828125-0.146484375,0.29296875-0.634765625t0.1953125-0.78125q0-0.09765625-0.048828125-0.341796875t-0.048828125-0.341796875q-0.1953125-0.78125-0.1953125-1.708984375q0-0.48828125,0.09765625-0.68359375q-0.09765625-0.341796875-0.1953125-1.318359375t-0.09765625-1.07421875q-0.29296875-1.46484375-0.29296875-1.806640625q-0.5859375-1.318359375-0.78125-3.3203125q-0.29296875,0.29296875-0.830078125,0.29296875q-0.5859375,0-0.5859375-0.48828125l0.1953125-0.390625q0.5859375-0.87890625,0.5859375-0.927734375t-0.0244140625-0.1220703125l-0.0732421875-0.2197265625t-0.09765625-0.244140625l-0.390625-0.78125q-0.1953125-0.1953125-0.29296875-0.1953125q-0.146484375,0-0.5859375,0.1953125t-0.634765625,0.1953125q-0.244140625,0-0.390625-0.29296875q-0.09765625-0.09765625-0.09765625-0.29296875q0-0.244140625,0.5126953125-0.6591796875t0.5126953125-0.6591796875l0-0.1953125q-0.390625-0.5859375-0.537109375-1.025390625q-0.830078125-1.025390625-1.46484375-2.099609375q-0.439453125-0.78125-1.5380859375-1.9287109375t-1.7822265625-1.3427734375q-0.390625-0.09765625-1.318359375-0.5859375t-1.46484375-0.537109375q-1.220703125,0-2.392578125-0.390625q-0.439453125-0.1953125-1.46484375-0.48828125t-1.46484375-0.48828125q-0.439453125,0.048828125-1.025390625,0.2685546875t-0.87890625,0.3173828125q-0.1953125,0.09765625-0.87890625,0.09765625q-0.927734375,0-1.025390625-0.1953125q-0.927734375-0.09765625-2.099609375,1.07421875q-0.9765625,0.87890625-2.587890625,1.220703125q-1.953125,0.537109375-2.099609375,0.68359375q0.09765625,0.1953125,0.09765625,0.48828125q0,0.634765625-0.9765625,1.611328125q-0.048828125,0.09765625-0.830078125,0.48828125q-0.146484375,0.09765625-0.4150390625,0.341796875t-0.4638671875,0.390625q-1.07421875,0.78125-1.611328125,1.416015625q-0.048828125,0.439453125-0.4150390625,0.78125t-0.4638671875,0.5859375q-0.146484375,0.341796875-0.4638671875,0.9521484375t-0.4638671875,0.9521484375q0,0.048828125-0.3173828125,0.6591796875t-0.3662109375,0.9521484375q0,1.123046875-0.29296875,1.708984375q-0.29296875,2.490234375-0.390625,2.685546875q-0.244140625,0.78125-0.4150390625,2.24609375t-0.4150390625,2.24609375q-0.29296875,0.68359375-0.29296875,2.099609375l0,1.025390625q0.1953125,0.29296875,0.1953125,0.9765625q0,0.244140625-0.048828125,0.7568359375t-0.048828125,0.7568359375l0,0.390625q0.09765625-0.09765625,0.29296875-0.09765625q0.29296875,0,0.6103515625,0.1953125t0.3173828125,0.390625q0,0.146484375-0.29296875,0.29296875q-0.927734375,0.439453125-0.927734375,0.732421875l0,0.1953125q0.1953125-0.09765625,0.48828125-0.09765625q0.439453125,0,0.439453125,0.48828125q0,0.146484375-0.1220703125,0.5859375t-0.1220703125,0.537109375l0,0.09765625q0.09765625,0.1953125,0.09765625,0.390625q0,0.244140625-0.1953125,0.6103515625t-0.1953125,0.5615234375l0,0.1953125q0.732421875-0.48828125,1.123046875-0.48828125l0.09765625,0q0.390625,0.146484375,0.390625,0.29296875q0,0.341796875-0.4150390625,0.78125t-0.6591796875,0.537109375q0.87890625,0,0.87890625,0.48828125q0,0.634765625-0.5859375,1.220703125q-0.29296875,0.29296875-0.29296875,0.5859375q0,0.244140625,0.29296875,0.68359375z M44.8828125,147.94921875l-0.5859375,0.830078125l0.5859375-0.830078125q-2.34375,2.880859375-3.564453125,5.126953125q0.9765625-0.537109375,2.05078125-1.1962890625t2.3681640625-1.46484375t2.0751953125-1.2451171875q-0.1953125-0.09765625-0.68359375-0.3662109375t-0.8544921875-0.537109375t-0.5615234375-0.5126953125l-0.634765625-0.29296875l0,0.09765625q0,0.1953125-0.1953125,0.390625z M48.984375,149.755859375q-0.48828125,0.5859375-3.90625,5.029296875q1.171875-0.68359375,3.61328125-2.099609375t3.61328125-2.1484375q-0.439453125-0.244140625-1.611328125-0.3662109375t-1.708984375-0.4150390625z M46.884765625,156.25l0.09765625,0l0-0.09765625z M50.693359375,156.4453125q0.1953125,0.048828125,0.5615234375-0.146484375t0.6591796875-0.4150390625t0.7080078125-0.5859375t0.4638671875-0.4150390625q1.171875-0.87890625,2.490234375-1.904296875q2.24609375-1.7578125,3.41796875-2.9296875q-4.443359375,2.9296875-10.009765625,6.201171875q0.390625,0.1953125,1.708984375,0.1953125z M68.22265625,147.16796875l3.271484375-2.001953125q-3.271484375,1.904296875-3.271484375,2.001953125q6.591796875-3.90625,13.18359375-7.91015625q0.341796875-0.1953125,2.83203125-1.6845703125t3.857421875-2.3193359375q0.244140625-0.146484375,0.87890625-0.48828125t0.9033203125-0.5126953125t0.6591796875-0.48828125t0.5859375-0.7080078125t0.29296875-0.87890625q-4.1015625,2.392578125-12.5,7.177734375q-0.48828125,0.29296875-3.02734375,1.708984375t-3.80859375,2.197265625l-1.46484375,0.87890625q-0.341796875,0.439453125-1.025390625,0.8544921875t-1.07421875,0.3662109375q-0.09765625,0.1953125-0.09765625,0.87890625q0,0.634765625-0.1953125,0.927734375z M91.806640625,130.76171875q-0.048828125,0.1953125-0.8056640625,0.6591796875t-1.806640625,0.9521484375t-1.1962890625,0.5859375q-0.830078125,0.439453125-2.5390625,1.3427734375t-2.5390625,1.3427734375q-5.029296875,2.783203125-6.005859375,3.41796875q-0.09765625,0.048828125-0.68359375,0.29296875t-0.927734375,0.390625t-0.9033203125,0.439453125t-0.87890625,0.5126953125t-0.634765625,0.537109375t-0.3662109375,0.6103515625q2.978515625-1.66015625,9.9609375-5.6640625q6.298828125-3.662109375,6.54296875-3.80859375q2.5390625-1.025390625,2.783203125-1.611328125z M94.8828125,122.94921875l0-0.09765625l0,0.09765625l0-0.09765625l0,0.09765625z M85.99609375,127.5390625l0.927734375-0.68359375l-1.513671875,1.123046875l0.5859375-0.439453125q2.1484375-1.7578125,4.78515625-3.466796875q0.29296875-0.1953125,0.9033203125-0.6103515625t0.9033203125-0.6103515625q-0.1953125-0.390625-0.1953125-1.07421875l0-0.29296875q-7.2265625,4.541015625-11.181640625,7.373046875q-3.955078125,2.880859375-5.126953125,4.296875q-0.390625,0.390625-0.390625,0.68359375q0,0.146484375,0.09765625,0.146484375q0.048828125,0,0.1708984375-0.0732421875t0.2197265625-0.0732421875q1.5625-0.48828125,3.1494140625-1.46484375t3.857421875-2.7099609375t2.8076171875-2.1240234375z M91.123046875,109.86328125l0-0.1953125q-4.78515625,2.880859375-9.716796875,6.396484375q-0.146484375,0.146484375-1.07421875,0.7568359375t-1.66015625,1.1474609375t-1.3916015625,1.2451171875t-0.6591796875,1.2451171875l0,0.1953125q0.927734375-0.634765625,2.9541015625-1.7822265625t3.0029296875-1.8310546875q2.734375-1.904296875,5.712890625-3.564453125q0.29296875-0.09765625,1.85546875-0.78125t1.5625-0.732421875q-0.146484375-1.123046875-0.5859375-2.099609375z M89.609375,107.958984375l-0.48828125,0.29296875l0.48828125-0.29296875q-0.78125,0.48828125-2.1484375,1.46484375t-1.85546875,1.318359375q0.537109375-0.29296875,1.6845703125-0.9521484375t1.7333984375-0.9521484375q1.171875-0.5859375,1.171875-0.87890625q0-0.1953125-0.09765625-0.29296875q-0.09765625,0.09765625-0.48828125,0.29296875z M83.994140625,108.740234375q0.732421875-0.439453125,2.9296875-1.66015625q-0.244140625,0.146484375-1.26953125,0.732421875t-1.66015625,0.927734375z M92.392578125,106.54296875l-0.09765625,0l0.09765625,0l-0.29296875,0q0,0.1953125,0.09765625,0.1953125q0-0.1953125,0.1953125-0.1953125z M87.314453125,102.24609375q-0.634765625-0.634765625-1.416015625-1.806640625q-0.09765625-0.09765625-0.146484375-0.1953125l-0.0732421875-0.146484375t-0.0732421875-0.048828125q-0.09765625,0-0.29296875,0.1953125q-0.244140625,0.1953125-0.8056640625,0.6103515625t-0.8056640625,0.6103515625q-1.46484375,1.123046875-4.4189453125,3.2470703125t-4.3701171875,3.2470703125q4.541015625-2.685546875,10.498046875-6.103515625q0.29296875-0.1953125,0.68359375-0.390625q0.09765625-0.09765625,0.29296875-0.09765625t0.3662109375,0.1708984375t0.1708984375,0.3173828125t-0.244140625,0.390625q-1.318359375,1.07421875-3.076171875,2.63671875q-6.0546875,5.17578125-8.0078125,7.861328125q8.59375-5.322265625,12.3046875-7.373046875q0.5859375-0.341796875,0.5859375-0.732421875q0-0.341796875-0.390625-0.87890625q-0.146484375-0.244140625-0.390625-0.7568359375t-0.390625-0.7568359375z M86.484375,97.75390625l0.09765625,0l-0.09765625,0q0.341796875-0.146484375,0.439453125-0.390625q-0.09765625,0.048828125-0.3173828125,0.09765625t-0.3173828125,0.09765625z M83.017578125,97.265625q-0.634765625-0.48828125-0.732421875-0.48828125q-0.048828125,0-0.68359375,0.48828125q-0.390625,0.390625-1.1962890625,1.1474609375t-1.1962890625,1.1474609375q-2.294921875,1.953125-6.201171875,5.517578125q1.806640625-1.123046875,5.3466796875-3.564453125t5.3466796875-3.564453125q-0.244140625-0.439453125-0.68359375-0.68359375z M79.892578125,94.970703125q-0.146484375-0.048828125-0.3173828125-0.2197265625t-0.2685546875-0.1708984375q-0.1953125,0-0.29296875,0.1953125q-0.634765625,0.634765625-1.220703125,1.3671875q-0.341796875,0.390625-1.4404296875,1.5625t-1.6357421875,1.85546875q3.515625-2.197265625,6.396484375-3.80859375q-0.537109375-0.244140625-1.220703125-0.78125z M74.521484375,91.748046875l-0.09765625,0l0.09765625,0q-0.1953125,0-0.537109375-0.1953125t-0.48828125-0.1953125q-0.09765625,0-0.29296875,0.1953125q-0.48828125,0.68359375-0.78125,1.220703125q-0.390625,0.5859375-1.220703125,1.611328125t-1.220703125,1.5625q1.07421875-0.732421875,3.1494140625-1.806640625t2.8564453125-1.5625q-1.07421875-0.439453125-1.46484375-0.830078125z M70.17578125,90.283203125l0.146484375,0.09765625q-0.048828125,0-0.146484375-0.09765625q-0.341796875,0-1.07421875-0.2685546875t-1.025390625-0.2685546875q-0.537109375,0-0.78125,0.390625q-0.341796875,0.390625-2.1240234375,2.3193359375t-2.6611328125,3.0029296875q1.025390625-0.146484375,1.708984375-0.48828125q0.390625-0.29296875,1.26953125-0.8056640625t1.025390625-0.6103515625q0.830078125-0.48828125,2.4169921875-1.4892578125t2.3681640625-1.4892578125l-0.390625,0q-0.439453125,0-0.732421875-0.29296875z M66.806640625,87.060546875l0.09765625-0.1953125q-0.1953125,0-0.390625,0.09765625q0.1953125,0.09765625,0.29296875,0.09765625z M54.990234375,88.28125q-0.537109375,0-1.07421875,0.341796875t-1.1962890625,1.0009765625t-0.9033203125,0.8544921875q0.439453125-0.244140625,1.708984375-1.025390625t1.953125-1.171875l-0.48828125,0z M41.123046875,89.84375l0,0.09765625l0-0.09765625q-0.1953125,0.146484375-0.3662109375,0.439453125t-0.2685546875,0.390625q0.244140625-0.09765625,0.927734375-0.537109375z M27.6953125,100.537109375l3.80859375-2.392578125q-1.806640625,0.9765625-3.80859375,2.392578125z M42.587890625,90.576171875l-0.5859375,0.390625q0.048828125,0,0.2197265625-0.0732421875t0.29296875-0.1708984375t0.0732421875-0.146484375q-0.87890625,0.48828125-2.5390625,1.5380859375t-2.5390625,1.5380859375q0.927734375-0.48828125,2.9052734375-1.4892578125t2.9052734375-1.4892578125q-0.048828125,0-0.1708984375,0.048828125t-0.1708984375,0.048828125q-0.1953125,0-0.390625-0.1953125z M43.80859375,90.380859375l-0.1953125,0.1953125q0.09765625-0.048828125,0.244140625-0.146484375t0.244140625-0.146484375q-0.09765625,0.09765625-0.29296875,0.09765625z M39.8046875,90.869140625l0.09765625,0l-0.09765625,0q-0.146484375,0-0.537109375,0.29296875t-0.830078125,0.68359375t-0.537109375,0.439453125q0.146484375-0.09765625,1.025390625-0.6103515625t1.26953125-0.8056640625l-0.390625,0z M39.21875,90.0390625q0-0.09765625-0.09765625-0.09765625q-0.244140625,0-0.244140625,0.341796875l0,0.09765625z M29.501953125,97.4609375l0.09765625,0q0.146484375,0,0.4638671875-0.2685546875t0.4150390625-0.4150390625q-0.048828125,0-0.09765625-0.048828125t-0.09765625-0.048828125q-0.244140625,0-0.5126953125,0.1953125t-0.2685546875,0.390625l0,0.1953125z M25.009765625,104.345703125q0,0.1953125,1.5625-0.5126953125t2.5390625-1.1962890625q3.173828125-1.7578125,6.787109375-4.39453125q2.1484375-1.46484375,6.4453125-4.5654296875t6.4453125-4.6142578125q-0.1953125-0.048828125-0.87890625,0.390625t-0.927734375,0.68359375q-1.806640625,1.07421875-2.978515625,1.904296875q-0.927734375,0.5859375-2.83203125,1.8310546875t-2.880859375,1.8798828125q-3.61328125,2.34375-8.30078125,5.224609375q-2.490234375,1.513671875-3.466796875,1.904296875q-0.5859375,0.1953125-0.830078125,0.1953125q-0.146484375,0-0.2685546875,0.244140625t-0.2197265625,0.5859375t-0.1953125,0.439453125z M22.080078125,108.837890625l0,0.146484375q0.1953125,0,0.634765625-0.439453125q0.48828125-0.29296875,1.26953125-0.87890625q0.48828125-0.341796875,1.513671875-1.0009765625t1.513671875-1.0009765625q1.5625-0.9765625,4.638671875-2.9296875t4.638671875-2.880859375q4.833984375-3.02734375,9.521484375-6.201171875q5.224609375-3.515625,6.982421875-5.2734375q-0.048828125,0-0.1953125-0.048828125t-0.1953125-0.048828125q-0.78125,0-2.685546875,1.3671875q-1.66015625,1.07421875-5.419921875,3.80859375q-9.130859375,6.54296875-10.693359375,7.6171875q-5.224609375,3.369140625-7.8125,4.19921875q-0.244140625,0.09765625-0.732421875,0.146484375t-0.78125,0.1708984375t-0.29296875,0.4638671875q-0.09765625,0.5859375-1.46484375,1.513671875q-0.048828125,0-0.1220703125,0.2685546875t-0.1708984375,0.5859375t-0.146484375,0.4150390625z M20.419921875,117.87109375q0-0.048828125,0.3662109375-0.3173828125t0.7568359375-0.5615234375t0.439453125-0.341796875q1.3671875-0.927734375,3.7109375-2.783203125q1.416015625-0.9765625,5.615234375-4.1015625q-5.17578125,3.173828125-8.3984375,4.98046875q-0.29296875,0.146484375-1.025390625,0.5615234375t-1.171875,0.5615234375q0,0.830078125-0.29296875,2.001953125z M25.693359375,143.5546875l0.2197265625,0.2197265625l0.1953125,0.1953125t0.1708984375,0.0732421875q0.146484375-0.09765625,0.341796875-0.1953125q0.244140625-0.146484375,0.78125-0.48828125t0.78125-0.48828125q0.78125-0.537109375,2.4658203125-1.6357421875t2.4658203125-1.6845703125q2.001953125-1.318359375,3.80859375-2.783203125q0.78125-0.537109375,0.78125-0.830078125t-0.09765625-0.5859375q-3.22265625,1.66015625-7.91015625,5.224609375q-0.048828125,0.048828125-0.9521484375,0.8056640625t-1.6357421875,1.1962890625t-1.220703125,0.390625q-0.390625-0.146484375-0.390625-0.29296875q0-0.29296875,0.6103515625-0.87890625t1.3427734375-1.123046875l0.732421875-0.537109375q0.146484375-0.09765625,3.90625-2.880859375q0.537109375-0.439453125,1.6357421875-1.2939453125t1.6845703125-1.2939453125q0.09765625-0.09765625,0.5859375-0.5126953125t0.78125-0.6103515625q-0.1953125-0.5859375-0.29296875-0.78125q-1.66015625,0.927734375-3.3203125,1.953125t-4.1748046875,2.7099609375t-3.1982421875,2.1240234375q-0.048828125,0.048828125-0.29296875,0.1708984375t-0.3662109375,0.2197265625t-0.29296875,0.2197265625t-0.244140625,0.244140625t-0.0732421875,0.2685546875l0,0.09765625q0.048828125,0.09765625,0.146484375,0.390625t0.146484375,0.390625q0.146484375,0.29296875,0.3662109375,0.9765625t0.5126953125,1.025390625z M29.892578125,147.94921875l0-0.09765625l0,0.09765625q0.244140625,0.146484375,0.68359375,0.830078125q1.025390625-1.171875,2.9541015625-3.4423828125t2.9541015625-3.3935546875q-0.634765625,0.439453125-2.294921875,1.611328125t-2.83203125,1.953125t-2.34375,1.46484375q0.78125,0.78125,0.87890625,0.9765625z M32.1875,150.439453125l0.09765625,0l-0.09765625,0q0.439453125,0.09765625,1.220703125,0.6103515625t1.26953125,0.5126953125q0.341796875,0,0.537109375-0.09765625q-0.09765625-0.09765625-0.09765625-0.29296875q0-0.341796875,0.1953125-0.732421875q0.439453125-0.87890625,1.171875-1.8310546875t1.3427734375-1.5625t1.6845703125-1.611328125t1.46484375-1.3916015625q-1.611328125,0.9765625-4.78515625,2.83203125t-4.78515625,2.783203125q0.244140625,0.390625,0.78125,0.78125z M39.8046875,154.150390625l0-0.09765625l0,0.09765625l0.1953125,0q-0.09765625-0.09765625-0.09765625-0.390625q0-0.537109375,0.439453125-1.318359375t1.123046875-1.611328125t0.732421875-0.87890625q-4.4921875,2.9296875-5.17578125,3.3203125q0.341796875,0.244140625,1.3916015625,0.4150390625t1.3916015625,0.4638671875z M42.099609375,155.078125l0.09765625,0l-0.09765625,0q0.048828125,0,0.439453125,0.1953125t0.537109375,0.1953125q0.244140625,0,0.341796875-0.09765625q0.5859375-0.732421875,1.171875-1.611328125q1.66015625-2.099609375,2.294921875-2.978515625q-0.439453125,0.29296875-1.416015625,0.9521484375t-1.5869140625,1.0498046875t-1.4892578125,0.8544921875t-1.611328125,0.7080078125q0.1953125,0.146484375,0.6591796875,0.3662109375t0.6591796875,0.3662109375z M44.8828125,156.0546875l0-0.09765625l0,0.09765625l0.1953125,0l0.341796875,0q0.29296875,0,0.5859375-0.29296875q0.439453125-0.439453125,1.416015625-1.220703125z M62.021484375,156.4453125l-0.09765625,0l0.09765625,0q0.634765625-0.048828125,2.685546875-0.68359375q0.537109375-0.1953125,1.07421875-0.4638671875t1.2939453125-0.78125t1.0009765625-0.6591796875q6.15234375-3.80859375,9.130859375-5.712890625q0.634765625-0.439453125,2.4169921875-1.5869140625t2.7099609375-1.7578125t2.294921875-1.611328125t2.392578125-1.9287109375q-9.716796875,6.25-25.732421875,15.087890625q0.537109375,0,0.732421875,0.09765625z M72.32421875,154.443359375l0.09765625,0l-0.09765625,0q0.09765625-0.09765625,0.29296875-0.09765625q0.341796875,0,0.78125,0.439453125q0.537109375-0.732421875,1.3427734375-1.3916015625t2.0263671875-1.4892578125t1.611328125-1.123046875q3.41796875-2.392578125,4.638671875-3.515625q0.244140625-0.244140625,0.830078125-0.634765625t0.9521484375-0.78125t0.5126953125-0.87890625q-2.587890625,1.611328125-7.71484375,4.833984375t-7.71484375,4.833984375q0.9765625-0.48828125,1.318359375-0.48828125q0.048828125,0,0.146484375,0.048828125t0.146484375,0.048828125q0.048828125,0.048828125,0.2197265625,0.1708984375t0.2685546875,0.1220703125q0.048828125,0,0.1708984375-0.048828125t0.1708984375-0.048828125z M187.2041015625,123.974609375l0.09765625,0.09765625l-0.09765625-0.09765625l0.09765625,0.1953125q0,0.341796875-0.927734375,0.9765625q-0.48828125,0.341796875-0.48828125,0.634765625l0,0.48828125l0,0.29296875q0,1.416015625-0.48828125,2.392578125q-0.09765625,0.09765625-0.09765625,0.48828125l0,0.634765625q0,0.29296875-0.09765625,0.390625q-0.244140625,0.244140625-0.244140625,0.48828125l0,0.390625l0,0.09765625q0,0.09765625,0.048828125,0.3173828125t0.048828125,0.3173828125q0,1.123046875-0.5859375,3.173828125q-0.048828125,0.244140625-0.1953125,1.025390625t-0.3662109375,1.2939453125t-0.6103515625,0.8056640625q-0.68359375,1.318359375-1.220703125,1.66015625q0,0.341796875-0.390625,1.513671875q-0.048828125,0.29296875-0.341796875,0.87890625t-0.341796875,0.927734375q0,0.341796875-0.3662109375,0.68359375t-0.4638671875,0.537109375q-0.09765625,0.341796875-0.48828125,0.78125t-0.48828125,0.5859375q-0.341796875,0.830078125-1.220703125,1.513671875q-0.09765625,0.09765625-0.439453125,0.830078125t-0.87890625,0.9765625q-0.09765625,0.09765625-1.3671875,0.5859375q-0.390625,0.244140625-0.390625,0.48828125q0,0.048828125,0.048828125,0.244140625t0.048828125,0.29296875q0,0.1953125-0.09765625,0.390625q-0.1953125,0.48828125-0.9521484375,1.07421875t-0.9521484375,0.927734375q-0.244140625,0.439453125-0.8056640625,1.2451171875t-0.7080078125,1.0498046875q-1.953125,2.685546875-4.00390625,2.685546875q-0.29296875,0-0.87890625-0.1953125q-1.220703125-0.29296875-2.294921875-1.611328125q-0.29296875,0.1953125-0.7568359375,0.5859375t-0.5615234375,0.439453125q-0.48828125,1.171875-1.513671875,1.171875q-0.48828125,0-0.9765625-0.48828125q-0.29296875-0.29296875-0.537109375-0.29296875q-0.146484375,0-0.2685546875,0.1220703125t-0.3173828125,0.3662109375t-0.390625,0.390625q-0.732421875,0.537109375-1.220703125,0.537109375q-0.390625,0-0.5859375-0.09765625q-0.87890625,0.29296875-1.07421875,0.29296875q-0.68359375,0-0.927734375-0.48828125l-0.29296875,0q-0.146484375,0-0.439453125,0.09765625t-0.439453125,0.09765625q-0.09765625,0-0.244140625-0.048828125t-0.1953125-0.048828125q-0.09765625,0-0.3662109375,0.048828125t-0.4150390625,0.048828125t-0.390625-0.048828125t-0.390625-0.048828125q-0.537109375-0.09765625-1.8310546875,0.244140625t-1.7822265625,0.341796875q-0.390625,0-0.5859375-0.09765625t-0.634765625-0.09765625q-0.244140625,0-0.7568359375,0.09765625t-0.8056640625,0.09765625q-0.244140625,0-0.830078125-0.1953125q-0.390625,0.1953125-0.87890625,0.1953125q-0.1953125,0-0.537109375-0.048828125t-0.48828125-0.048828125q-0.244140625,0-0.732421875-0.048828125t-0.732421875-0.048828125q-0.1953125,0-0.78125-0.1953125t-0.830078125-0.1953125q-0.390625-0.09765625-1.220703125-0.09765625l-0.390625,0q-0.341796875,0-1.07421875,0.09765625t-1.123046875,0.09765625q-0.146484375,0-0.390625-0.048828125t-0.390625-0.048828125l-0.732421875,0l-1.3671875,0q-0.09765625,0.09765625-0.439453125,0.09765625q-0.29296875,0-0.48828125-0.1953125l-0.87890625,0.29296875q-0.146484375,0-0.341796875-0.09765625t-0.29296875-0.09765625l-0.09765625,0q-0.9765625,0.48828125-1.3671875,0.48828125q-0.146484375,0-0.537109375,0.048828125t-0.5859375,0.048828125q-0.29296875,0-0.68359375-0.1953125q-0.390625,0.1953125-0.5859375,0.1953125t-0.5859375-0.09765625t-0.537109375-0.09765625q-0.048828125,0-0.146484375,0.048828125t-0.146484375,0.048828125q-0.1953125,0-0.48828125-0.0732421875t-0.5859375-0.1708984375l-0.439453125-0.146484375l-0.390625,0l-1.025390625,0q-0.9765625,0-1.26953125-0.1953125q-0.732421875,0.29296875-1.611328125,0.29296875q-0.9765625,0-1.708984375-0.29296875l-0.29296875,0q-0.1953125,0-0.6591796875-0.0732421875t-0.6591796875-0.0732421875q-0.29296875,0-0.5859375,0.146484375q-0.48828125,0.48828125-1.07421875,0.48828125l-0.1953125,0q-0.146484375-0.048828125-0.29296875-0.146484375l-0.244140625-0.048828125q-0.09765625,0-0.29296875,0.1220703125t-0.390625,0.1708984375q-0.048828125,0-0.1708984375,0.048828125t-0.2197265625,0.048828125q-0.146484375,0-0.5859375-0.1220703125t-0.634765625-0.1708984375l-0.29296875,0l-0.87890625,0q-1.123046875,0-1.513671875-0.537109375q-0.5859375-0.244140625-0.5859375-1.85546875q0-1.26953125,0.29296875-2.734375q-0.1953125-1.171875-0.1953125-2.294921875l0-0.48828125q-0.1953125-0.5859375-0.1953125-1.318359375q0-2.001953125,1.26953125-2.001953125l0.830078125,0q0.78125,0,1.171875,0.1953125q0.048828125,0,0.146484375,0.048828125t0.146484375,0.048828125q0.244140625,0,1.220703125-0.48828125q0.1953125-0.09765625,0.5859375-0.09765625q0.1953125,0,0.6103515625,0.048828125t0.6103515625,0.048828125q0.390625,0,0.5859375-0.09765625q1.46484375-0.29296875,1.513671875-0.29296875q0.48828125,0,0.68359375,0.1953125q0.48828125,0.09765625,0.8056640625-0.439453125t0.537109375-1.4404296875t0.2685546875-1.0009765625q-0.390625,0.1953125-0.830078125,0.1953125q-0.5859375,0-0.5859375-0.48828125l0-0.09765625q0.09765625-0.48828125,1.318359375-1.416015625q-0.09765625-0.1953125-0.09765625-0.68359375l0-0.244140625q0-0.048828125-0.048828125-0.1953125t-0.048828125-0.1953125q0-0.146484375,0.048828125-0.439453125t0.048828125-0.439453125q0-0.244140625-0.29296875-0.390625q-0.439453125-0.146484375-0.439453125-0.439453125q0-0.146484375,0.439453125-0.537109375t0.48828125-0.439453125q0.29296875-1.171875,0.29296875-2.490234375q0-0.830078125-0.146484375-2.587890625t-0.146484375-2.63671875q0-1.123046875,0.09765625-1.708984375l-0.48828125,0.244140625q-0.537109375,0-0.537109375-0.537109375q0-0.1953125,0.1708984375-0.4150390625t0.48828125-0.4638671875t0.3662109375-0.29296875q-0.29296875-1.7578125-0.29296875-1.904296875l0-0.29296875q-0.390625-0.78125-0.390625-1.806640625q0-0.537109375,0.1953125-1.123046875q0.09765625-0.29296875,0.09765625-0.9765625l0-1.220703125q0-0.78125,0.09765625-1.07421875q-0.09765625-0.48828125-0.09765625-1.611328125l0-1.611328125q-0.09765625-0.5859375-0.09765625-1.806640625l0-1.806640625q0-0.146484375-0.048828125-0.537109375t-0.048828125-0.634765625q0-1.7578125,0.29296875-2.197265625q-0.1953125-0.5859375-0.1953125-2.197265625l0-0.634765625q0-0.390625,0.048828125-1.2451171875t0.048828125-1.2451171875q-0.048828125-0.29296875-0.2685546875-0.9521484375t-0.2685546875-0.9521484375q-0.146484375-0.1953125-0.2197265625-0.537109375t-0.2197265625-0.439453125t-0.537109375-0.09765625q-1.07421875,0-1.513671875-0.29296875q-0.5859375,0.1953125-1.07421875,0.1953125q-0.5859375,0-0.732421875-0.390625q-0.244140625-0.244140625-1.07421875-0.244140625q-0.390625,0-1.025390625,0.0732421875t-0.68359375,0.0732421875t-0.87890625-0.0244140625t-1.318359375-0.1953125t-0.68359375-0.6103515625q-0.29296875-0.1953125-0.29296875-1.708984375q0-1.953125,0.29296875-4.00390625q-0.68359375,0.341796875-1.123046875,0.341796875q-0.390625,0-0.390625-0.244140625t0.390625-0.78125q0.09765625-0.146484375,0.4150390625-0.439453125t0.48828125-0.5615234375t0.2197265625-0.5126953125q-0.09765625-0.29296875-0.09765625-0.9765625q0-0.48828125,0.09765625-0.68359375q0.341796875-0.830078125,1.5625-0.830078125q0.439453125,0,0.537109375,0.09765625l0.29296875,0q0.68359375,0,1.07421875,0.1953125q0.390625-0.1953125,0.830078125-0.1953125q0.29296875,0,0.48828125,0.09765625l0.390625,0l0.830078125,0q0.1953125,0,0.78125-0.048828125t0.78125-0.048828125l0.634765625,0q1.171875,0,1.7578125,0.1953125q0.048828125,0,0.1708984375,0.048828125t0.1708984375,0.048828125q0.1953125,0,0.5126953125-0.146484375t0.5615234375-0.146484375l0.29296875,0q0.1953125,0,0.5126953125-0.048828125t0.5126953125-0.048828125t0.390625,0.09765625q0.732421875,0,2.099609375-0.390625q0.048828125,0,0.1953125-0.048828125t0.1953125-0.048828125q0.29296875,0,0.48828125,0.1953125q0.244140625-0.1953125,0.732421875-0.390625l0.29296875,0q0.5859375,0,0.9765625,0.1953125q0.09765625,0,0.732421875,0.1708984375t0.68359375,0.2197265625l0.29296875,0l0.732421875,0q0.390625,0.09765625,0.78125,0.09765625q0.5859375,0,0.9765625-0.1953125l0.341796875,0q0.146484375,0,0.5126953125,0.048828125t0.5615234375,0.048828125q1.26953125,0,2.001953125,0.29296875q0.1953125-0.09765625,0.9765625-0.09765625q0.439453125-0.29296875,1.611328125-0.29296875q0.732421875,0,1.123046875,0.1953125q0.9765625,0.09765625,2.880859375,0.09765625q0.244140625,0.048828125,1.025390625-0.0732421875t1.07421875-0.1220703125q0.390625,0,0.48828125,0.09765625q1.46484375-0.48828125,1.513671875-0.48828125q0.390625,0,0.390625,0.390625q0.390625-0.1953125,0.830078125-0.1953125q0.68359375,0,1.07421875,0.390625q0.1953125,0,0.78125-0.048828125t0.732421875-0.048828125q0.48828125-0.48828125,1.708984375-0.48828125q0.048828125,0,0.146484375,0.048828125t0.146484375,0.048828125q1.171875,0.29296875,1.416015625,0.29296875q0.78125,0,1.3671875,0.390625q0.390625-0.1953125,0.830078125-0.1953125q0.48828125,0,0.87890625,0.1953125q0.29296875-0.09765625,1.220703125-0.09765625q0.5859375,0,0.78125,0.09765625q0.78125-0.1953125,1.220703125-0.1953125l0.29296875,0q0.146484375,0,0.6103515625,0.09765625t0.6591796875,0.09765625l0.1953125,0q0.390625-0.1953125,0.537109375-0.1953125t0.5126953125,0.2197265625t0.5615234375,0.2685546875q2.001953125,0.732421875,2.63671875,0.830078125q1.3671875,0.146484375,3.271484375,0.9765625q0.390625,0,0.9765625,0.3173828125t0.830078125,0.3173828125q0.29296875,0,0.48828125-0.09765625q0.09765625-0.09765625,0.29296875-0.09765625q0.341796875,0,0.439453125,0.1953125l0.1953125,0.390625l0,0.1953125q0,0.09765625,0.29296875,0.29296875q0.146484375,0.09765625,0.5859375,0.341796875t0.5859375,0.341796875q0.48828125,0.146484375,1.513671875,0.8056640625t1.220703125,1.0009765625q0.1953125,0.146484375,0.439453125,0.4150390625t0.537109375,0.68359375t0.390625,0.5126953125q0.244140625,0.390625,0.634765625,0.390625q0.146484375,0,0.634765625-0.29296875t0.927734375-0.29296875q0.634765625,0,0.634765625,0.390625q0,0.1953125-0.29296875,0.5615234375t-0.439453125,0.4638671875q-0.29296875,0.29296875-0.29296875,0.68359375q0,0.09765625,0.1953125,0.68359375q0.439453125,0.439453125,0.830078125,1.220703125q0.29296875,0.439453125,0.9521484375,1.3427734375t0.9521484375,1.3427734375q0.1953125-0.1953125,0.5859375-0.1953125t0.390625,0.48828125q0,0.537109375-0.29296875,0.830078125q0.048828125,0.09765625,0.48828125,0.78125q0.09765625,0.146484375,0.7568359375,0.48828125t0.6591796875,0.634765625q0,0.1953125-0.1953125,0.390625q0.390625-0.146484375,0.390625,0.1953125q0,0.146484375-0.1953125,0.6591796875t-0.1953125,0.6591796875l0,0.09765625q0.68359375,1.123046875,0.68359375,2.197265625q0.634765625,1.07421875,0.87890625,3.857421875q0.29296875,1.025390625,0.48828125,2.294921875t0.2197265625,2.0263671875t0.0732421875,2.4658203125t0.048828125,2.1484375q0.5859375-0.29296875,0.87890625-0.29296875q0.341796875,0,0.439453125,0.1953125z M170.7978515625,150.244140625l0.68359375-0.390625l-0.68359375,0.390625q0.634765625-0.439453125,1.8798828125-1.2939453125t1.8798828125-1.2939453125q-0.439453125,0.244140625-3.955078125,2.587890625l0.1953125,0z M177.1943359375,143.5546875q0-0.1953125,0.09765625-0.1953125q-1.904296875,1.46484375-14.794921875,10.986328125l0.29296875,0q0.341796875,0,0.78125-0.244140625t1.0986328125-0.7568359375t0.7080078125-0.5615234375q0.48828125-0.341796875,1.4892578125-1.0498046875t1.4892578125-1.0498046875q0.732421875-0.48828125,2.197265625-1.513671875t2.1484375-1.513671875q2.099609375-1.26953125,2.978515625-1.611328125q0.244140625-0.09765625,0.3173828125-0.4638671875t0.2685546875-0.5126953125q0-0.29296875,0.1708984375-0.5615234375t0.4150390625-0.537109375t0.341796875-0.4150390625z M161.2763671875,155.6640625q0.09765625-0.09765625,0.09765625-0.29296875l0-0.1953125l-0.390625,0.390625q0.09765625,0.09765625,0.29296875,0.09765625z M180.0751953125,138.76953125l-0.390625,0.29296875q0.09765625-0.09765625,0.390625-0.29296875q-0.146484375,0.439453125-2.685546875,1.708984375q-1.318359375,0.732421875-3.41796875,2.197265625q3.271484375-1.904296875,6.103515625-3.90625z M175.7783203125,140.380859375l0.5859375-0.439453125l-2.197265625,1.416015625q0.390625-0.1953125,1.611328125-0.9765625q0.439453125-0.29296875,1.220703125-0.830078125t1.416015625-0.9521484375t1.171875-0.7568359375q0.78125-0.390625,1.07421875-0.68359375q0.1953125-0.09765625,0.4150390625-0.4150390625t0.4150390625-0.4638671875q0.48828125-0.390625,0.78125-1.5380859375t0.29296875-2.1728515625l0-0.5859375q-7.470703125,4.443359375-16.162109375,9.375q-0.48828125,0.29296875-1.46484375,0.8544921875t-1.46484375,0.8544921875q-0.1953125,0.09765625-0.3662109375,0.5126953125t-0.4150390625,0.5615234375q-0.390625,0.29296875-1.318359375,0.537109375l-0.78125,0.78125q-0.244140625,0.244140625-0.5126953125,0.78125t-0.5126953125,0.732421875q-0.341796875,0.244140625-1.26953125,0.48828125q-0.048828125,0.146484375-0.1708984375,0.439453125t-0.1708984375,0.439453125q-0.78125,1.025390625-1.26953125,1.123046875q-0.09765625,0.09765625-0.390625,0.09765625q-0.09765625,0-0.2685546875-0.09765625t-0.2685546875-0.09765625q-0.1953125,0-0.29296875,0.09765625q-0.1953125,0.1953125-0.68359375,0.1953125l-1.318359375,0q-0.146484375,0.146484375-0.732421875,0.537109375t-0.732421875,0.68359375q-0.146484375,0.244140625-0.4638671875,0.732421875t-0.4638671875,0.732421875q-0.439453125,0.830078125-1.3427734375,2.294921875t-1.0498046875,1.708984375q1.26953125-0.390625,2.7587890625-1.0986328125t2.4658203125-1.2939453125t2.7099609375-1.6357421875t2.3681640625-1.4404296875t16.796875-10.498046875z M139.6943359375,156.15234375q1.318359375-0.5859375,2.7099609375-1.4892578125t3.1494140625-2.197265625t2.5390625-1.7822265625q-0.244140625-0.244140625-1.123046875-0.244140625l-1.171875,0q-0.1953125-0.09765625-0.732421875-0.09765625l-0.78125,0q-0.09765625,0-0.732421875-0.09765625t-0.9765625-0.09765625q-0.927734375,0-1.07421875,0.537109375l-0.830078125,2.490234375t-0.9765625,2.978515625z M124.2646484375,154.98046875l1.025390625-0.732421875l-1.123046875,0.830078125l0.09765625-0.09765625q2.490234375-1.5625,8.3984375-5.810546875q0.048828125-0.048828125,0.48828125-0.439453125t0.78125-0.6591796875t0.7568359375-0.4638671875t0.7080078125-0.146484375q0.09765625-0.1953125,0.09765625-0.5859375l0-0.537109375q-4.78515625,3.955078125-14.404296875,10.009765625q1.220703125-0.1953125,1.3671875-0.29296875q0.78125-0.390625,1.806640625-1.07421875z M121.2861328125,140.966796875l0,0.1953125q4.248046875-3.61328125,11.572265625-9.1796875q-4.19921875,2.392578125-7.373046875,4.39453125q-0.09765625,0.048828125-0.9521484375,0.5615234375t-1.2451171875,0.8056640625q-0.439453125,0.244140625-1.123046875,0.732421875q-0.5859375,0.146484375-0.5859375,0.68359375l0,0.1953125q-0.09765625,0.244140625-0.146484375,0.8056640625t-0.146484375,0.8056640625z M121.5791015625,132.177734375l0.78125-0.830078125q-0.78125,0.732421875-0.78125,0.830078125q2.1484375-2.1484375,6.005859375-4.931640625q3.271484375-2.490234375,5.17578125-3.80859375q0.09765625-0.048828125,1.0986328125-0.68359375t1.5380859375-1.1474609375t0.48828125-0.9521484375q-1.5625,0.87890625-3.1982421875,2.001953125t-3.662109375,2.587890625t-3.0517578125,2.197265625q-0.146484375,0.09765625-0.9765625,0.7080078125t-1.6357421875,1.0498046875t-1.3916015625,0.439453125q-0.29296875,0-0.390625-0.09765625q0,0.1953125-0.048828125,0.634765625t-0.048828125,0.68359375q0,0.1953125,0.048828125,0.6591796875t0.048828125,0.6591796875z M121.2861328125,126.46484375l0.5859375-0.390625l-0.5859375,0.390625q2.5390625-1.953125,5.2734375-3.80859375q-0.48828125,0.29296875-1.5380859375,0.9033203125t-1.5380859375,0.9033203125q-0.146484375,0.048828125-0.6591796875,0.29296875t-0.8056640625,0.390625t-0.5615234375,0.439453125t-0.2685546875,0.5859375q0,0.048828125,0.048828125,0.146484375t0.048828125,0.146484375z M131.9794921875,92.28515625l-0.1953125,0.09765625l0.1953125-0.09765625q-0.29296875,0.048828125-1.513671875,0.9765625q0.244140625-0.146484375,0.7568359375-0.48828125t0.7568359375-0.48828125z M167.9658203125,94.677734375q-1.07421875,0.537109375-2.9052734375,1.611328125t-2.5634765625,1.46484375q-0.48828125,0.29296875-1.7333984375,1.0498046875t-1.9775390625,1.1474609375q-0.09765625,0.048828125-0.48828125,0.3173828125t-0.7568359375,0.4638671875t-0.5615234375,0.146484375q0.537109375,0.390625,0.78125,0.390625q0.390625,0,0.830078125-0.29296875q0.48828125-0.29296875,1.4404296875-0.9033203125t1.4404296875-0.9033203125t4.296875-2.9296875q0.09765625-0.048828125,0.6591796875-0.4638671875t1.025390625-0.7568359375t0.5126953125-0.341796875z M173.2880859375,97.4609375l-1.025390625,0.48828125l1.025390625-0.48828125q-1.513671875,0.830078125-11.42578125,6.787109375q0.1953125,0.29296875,0.8056640625,0.9033203125t0.8056640625,1.0009765625q0.09765625-0.244140625,0.4638671875-0.5615234375t0.9033203125-0.68359375t0.634765625-0.4638671875q3.22265625-2.587890625,3.80859375-3.076171875z M175.9736328125,100.537109375l-0.5859375,0.439453125q0.09765625,0,0.3662109375-0.1953125t0.2197265625-0.244140625q-2.001953125,1.220703125-8.88671875,5.615234375q-0.1953125,0.09765625-0.78125,0.537109375t-1.07421875,0.68359375t-0.830078125,0.1953125q0.927734375,1.708984375,1.171875,2.978515625q5.2734375-3.955078125,8.203125-6.689453125q0.244140625-0.244140625,0.68359375-0.6591796875t0.830078125-0.8056640625t0.68359375-0.732421875q0.29296875-0.29296875,0.29296875-0.48828125q0-0.341796875-0.29296875-0.634765625z M166.8916015625,112.744140625l0,0.09765625l0-0.09765625l0-0.09765625q0-0.244140625,0.3662109375-0.5615234375t0.9521484375-0.68359375t1.1474609375-0.6591796875t1.1474609375-0.6103515625t0.68359375-0.3662109375q0.68359375-0.390625,1.953125-1.2451171875t1.953125-1.2451171875q-3.7109375,2.099609375-7.32421875,4.1015625q-0.1953125,0.146484375-0.5126953125,0.1953125t-0.537109375,0.048828125t-0.390625,0.09765625t-0.1708984375,0.341796875q0,0.048828125,0.048828125,0.1953125t0.048828125,0.1953125q0.09765625,0.244140625,0.3662109375,0.9033203125t0.439453125,1.220703125t0.2197265625,1.0009765625q0.87890625-0.68359375,3.662109375-2.7587890625t4.248046875-3.2470703125q-5.322265625,3.80859375-7.2265625,3.80859375q-0.78125,0-1.07421875-0.634765625z M183.5908203125,120.458984375q-0.09765625,0.09765625-0.09765625,0.1953125q0.09765625-0.09765625,0.09765625-0.1953125q-3.564453125,3.02734375-10.498046875,8.30078125q7.080078125-4.443359375,8.7890625-5.419921875l0.537109375-0.2685546875t0.78125-0.4150390625t0.390625-0.390625q0.09765625-0.1953125,0.09765625-0.5859375q0-0.1953125-0.048828125-0.6103515625t-0.048828125-0.6103515625z M167.1845703125,132.080078125l1.171875-0.927734375l-1.171875,0.927734375q4.296875-3.173828125,9.1796875-7.12890625q-4.98046875,3.369140625-7.470703125,4.296875q-0.9765625,0.390625-1.416015625,0.390625q-0.29296875,0.09765625-0.29296875,1.611328125l0,0.830078125z M152.4873046875,147.55859375l0.09765625,0l-0.09765625,0q1.123046875-0.439453125,1.171875-0.48828125q0.78125-0.341796875,1.611328125-1.025390625q0.1953125-0.09765625,0.732421875-0.3173828125t0.78125-0.5615234375q0.341796875-0.68359375,0.78125-1.123046875q0.78125-0.732421875,2.1728515625-1.85546875t1.7333984375-1.416015625t0.6591796875-0.78125t0.4638671875-0.87890625t0.4150390625-1.0986328125t0.3662109375-0.9521484375q0.29296875-1.513671875,0.5859375-1.904296875l0-0.09765625q0-0.341796875,0.244140625-1.0498046875t0.390625-0.9521484375l0-0.1953125q0-0.927734375,0.29296875-1.806640625q0.048828125-0.1953125,0.09765625-0.7080078125t0.09765625-0.7080078125q-0.09765625-0.29296875-0.09765625-0.9765625q0-0.732421875,0.29296875-2.783203125q-0.29296875-3.369140625-0.29296875-3.515625q0.390625-3.02734375,0.48828125-3.3203125q-0.048828125,0-0.1708984375,0.048828125t-0.2197265625,0.048828125q-0.78125,0-0.78125-0.390625q0-0.1953125,0.29296875-0.48828125q0.048828125-0.048828125,0.244140625-0.146484375t0.3173828125-0.1953125t0.1220703125-0.244140625q-0.1953125-0.9765625-0.1953125-1.708984375q-0.09765625-0.244140625-0.390625-1.3916015625t-0.537109375-1.6357421875q-0.09765625,0.048828125-0.9765625,0.634765625q-0.09765625,0.09765625-0.29296875,0.09765625q-0.48828125,0-0.48828125-0.48828125q0-0.341796875,0.1953125-0.439453125q0.09765625-0.09765625,0.3173828125-0.2197265625t0.3662109375-0.1953125t0.2685546875-0.244140625t0.1220703125-0.3173828125q0-0.29296875-0.09765625-0.390625q-0.1953125-0.29296875-0.3662109375-0.7568359375t-0.341796875-1.0498046875t-0.2685546875-0.830078125q-0.48828125-0.390625-1.123046875-1.66015625q-0.146484375-0.244140625-0.537109375-0.6103515625t-0.537109375-0.6103515625q-0.439453125-0.29296875-0.537109375-0.29296875q-0.1953125,0-0.390625,0.09765625q-0.09765625,0.09765625-0.29296875,0.09765625q-0.390625-0.146484375-0.390625-0.390625q0-0.29296875,0.29296875-0.5859375q-1.416015625-1.26953125-3.61328125-2.1484375q-0.390625-0.146484375-1.6845703125-0.8056640625t-2.1240234375-0.6591796875q-0.390625,0-0.7080078125-0.146484375t-0.4638671875-0.146484375q-0.09765625,0-0.68359375,0.1953125q-0.87890625,0.29296875-1.025390625,0.29296875q-0.29296875,0-0.48828125-0.1953125q-0.146484375-0.09765625-0.2197265625-0.341796875t-0.1708984375-0.29296875q-0.29296875,0.146484375-0.732421875,0.146484375q-0.68359375,0-0.9765625-0.146484375q-0.1953125,0-0.5859375,0.2197265625t-0.634765625,0.2197265625q-0.29296875-0.29296875-0.9765625-0.29296875l-0.09765625,0q-0.5859375,0.29296875-0.927734375,0.29296875q-1.3671875-0.1953125-2.099609375-0.1953125q-1.025390625,0-1.806640625,0.390625q-0.146484375,0.09765625-0.390625,0.1708984375t-0.341796875,0.1220703125t-0.244140625,0.2197265625t-0.1953125,0.4638671875q0.1953125,0.5859375,0.1953125,1.220703125q0,0.146484375-0.048828125,0.4150390625t-0.048828125,0.3662109375q0.09765625,0.09765625,0.09765625,0.48828125l0,0.439453125l0.09765625,0q0.48828125,0,0.48828125,0.48828125l0,0.09765625q0,0.1953125-0.2685546875,0.439453125t-0.3173828125,0.341796875q0.09765625,0.09765625,0.09765625,0.439453125q0,0.390625-0.09765625,0.48828125q0.09765625,0.390625,0.09765625,1.26953125q0,0.537109375-0.048828125,1.4892578125t-0.048828125,1.3427734375q0.1953125-0.09765625,0.68359375-0.09765625q0.732421875,0,0.732421875,0.390625q0,0.09765625-0.1953125,0.48828125q-0.146484375,0.29296875-0.634765625,0.7080078125t-0.5859375,0.7080078125q0,0.29296875-0.1953125,1.07421875q0,0.1953125,0.2197265625,0.48828125t0.1708984375,0.439453125q-0.048828125,0.1953125-0.244140625,0.3662109375t-0.244140625,0.3173828125l0,0.48828125q0.1953125,0.390625,0.1953125,1.611328125q0,0.09765625,0.2197265625,0.146484375t0.48828125,0.1708984375t0.3662109375,0.2685546875q0.09765625,0.09765625,0.09765625,0.341796875q0,0.1953125-0.1708984375,0.4150390625t-0.4638671875,0.4638671875t-0.341796875,0.29296875l0,0.68359375q0,0.927734375-0.29296875,2.685546875t-0.29296875,2.63671875l0,0.390625q0.390625,0.9765625,0.390625,2.294921875q0,0.146484375-0.048828125,0.390625l-0.048828125,0.244140625q-0.390625,2.34375-0.390625,2.392578125q0,0.09765625,0.048828125,0.244140625t0.048828125,0.244140625q0.048828125,0,0.146484375-0.048828125t0.146484375-0.048828125q0.68359375,0,0.68359375,0.78125q0,0.48828125-0.29296875,0.927734375q-0.1953125,0.1953125-0.1953125,0.5859375q0,0.1953125,0.09765625,0.5615234375t0.09765625,0.5615234375t-0.09765625,0.390625q0.1953125,0.78125,0.1953125,1.708984375q0,0.78125-0.1953125,1.7578125q-0.048828125,0.146484375-0.0732421875,0.830078125t-0.1220703125,0.9765625q0,0.244140625,0.048828125,0.68359375t0.048828125,0.634765625q0,0.5859375-0.29296875,0.9765625q0,0.09765625,0.048828125,0.390625t0.048828125,0.439453125q0,0.439453125-0.09765625,1.3427734375t-0.09765625,1.3427734375l0,0.390625q0.390625-0.09765625,1.806640625-0.09765625q0.87890625-0.29296875,1.904296875-0.29296875q0.732421875,0,2.099609375,0.1953125l0.68359375,0l1.416015625,0q0.1953125,0,1.025390625,0.146484375t1.3671875,0.146484375q0.5859375,0,0.87890625-0.09765625q0.341796875-0.09765625,2.001953125-0.390625q0.1953125-0.09765625,0.48828125-0.09765625q0.146484375,0,0.4150390625,0.09765625t0.4150390625,0.09765625q0.048828125,0,0.146484375-0.048828125t0.146484375-0.048828125z M121.1884765625,142.578125l0.48828125-0.29296875l-0.48828125,0.29296875q1.7578125-1.07421875,5.2001953125-3.369140625t5.2001953125-3.369140625q2.978515625-1.806640625,3.369140625-2.001953125q0.537109375-0.244140625,0.537109375-1.3671875q0-0.1953125-0.048828125-0.6591796875t-0.048828125-0.6591796875q-1.3671875,1.07421875-4.1259765625,3.2470703125t-4.0771484375,3.2470703125q-1.123046875,0.732421875-3.6376953125,2.685546875t-2.3681640625,2.24609375z M121.0908203125,109.27734375l0.390625-0.1953125l-0.390625,0.1953125q2.685546875-1.611328125,2.880859375-1.708984375q-0.244140625,0.09765625-1.07421875,0.1708984375t-1.3671875,0.29296875t-0.537109375,0.7080078125q0,0.341796875,0.09765625,0.537109375z M135.6904296875,101.7578125l-1.611328125,0.87890625l1.611328125-0.87890625q-4.345703125,2.44140625-8.49609375,4.98046875q-0.927734375,0.48828125-2.5634765625,1.513671875t-2.1728515625,1.318359375q-0.09765625,0.048828125-0.390625,0.2197265625t-0.439453125,0.2685546875t-0.29296875,0.244140625t-0.146484375,0.341796875l0,0.09765625q0,0.146484375-0.048828125,0.6103515625t-0.048828125,0.6103515625q6.73828125-5.224609375,10.107421875-6.982421875q0.146484375-0.09765625,1.66015625-0.6591796875t2.24609375-1.1474609375t0.5859375-1.416015625z M149.1669921875,94.140625q0.634765625-0.341796875,1.806640625-1.0009765625t1.806640625-1.0009765625q-0.390625-0.146484375-1.07421875,0.2197265625t-1.5380859375,1.025390625t-1.0009765625,0.7568359375z M120.9931640625,114.55078125l0.09765625,0l-0.09765625,0q1.46484375-1.123046875,4.3701171875-3.02734375t4.0283203125-2.685546875q0.341796875-0.244140625,1.7333984375-1.07421875t2.2216796875-1.513671875t1.220703125-1.46484375q-0.1953125-0.09765625-0.9521484375,0.4150390625t-1.5625,1.1474609375t-0.9521484375,0.732421875q-0.68359375,0.439453125-5.224609375,3.271484375q-3.173828125,1.85546875-4.1015625,2.392578125q-0.244140625,0.146484375-0.390625,0.244140625t-0.2197265625,0.29296875t-0.09765625,0.29296875t-0.048828125,0.439453125t-0.0244140625,0.537109375z M121.1884765625,117.3828125q0,0.048828125,0.048828125,0.146484375t0.048828125,0.146484375q5.419921875-3.7109375,10.693359375-7.6171875q-4.00390625,2.5390625-8.30078125,4.8828125q-0.439453125,0.29296875-1.904296875,1.025390625q-0.5859375,0.244140625-0.5859375,0.5859375l0,0.830078125z M123.9716796875,113.671875l1.513671875-0.830078125q-1.123046875,0.537109375-1.513671875,0.830078125q2.34375-1.26953125,9.130859375-5.419921875q0.1953125-0.146484375,1.07421875-0.5859375t1.2939453125-0.87890625t0.4150390625-1.025390625l0-0.9765625q0-0.732421875-0.09765625-1.025390625q-0.1953125,0.1953125-0.1953125,0.48828125q0,0.537109375-0.1953125,0.927734375q-0.48828125,0.87890625-1.611328125,1.806640625q-1.3671875,1.123046875-2.9052734375,2.1728515625t-3.857421875,2.5390625t-3.0517578125,1.9775390625z M135.7880859375,108.349609375l-0.390625,0.29296875q0.390625-0.1953125,0.390625-0.29296875q-0.927734375,0.830078125-2.83203125,2.099609375q0.146484375-0.09765625,1.0009765625-0.5126953125t1.318359375-0.8056640625t0.5126953125-0.78125z M135.7880859375,110.9375q-3.3203125,2.63671875-8.88671875,6.93359375q3.466796875-2.1484375,6.884765625-4.1015625q0.341796875-0.1953125,1.0498046875-0.6103515625t1.0498046875-0.6103515625l0-0.78125q0-0.634765625-0.09765625-0.830078125z M135.4951171875,116.357421875q-0.68359375,0.390625-2.05078125,1.1962890625t-2.05078125,1.1962890625q0.5859375-0.29296875,2.294921875-1.26953125l0.5859375-0.29296875t0.8544921875-0.4638671875t0.3662109375-0.3662109375z M131.8818359375,120.166015625l1.318359375-0.68359375q-0.29296875,0-1.318359375,0.68359375q1.611328125-0.9765625,3.173828125-1.513671875q0.634765625-0.244140625,0.634765625-0.5859375l0-0.390625q-0.78125,0.439453125-2.1240234375,1.3427734375t-1.6845703125,1.1474609375z M132.9560546875,120.654296875q-0.244140625,0.146484375-1.26953125,0.7568359375t-1.708984375,1.0498046875q0.48828125-0.29296875,1.4892578125-0.9033203125t1.4892578125-0.9033203125z M182.7607421875,129.8828125q-0.048828125,0.1953125-0.68359375,0.537109375t-1.4404296875,0.732421875t-0.9521484375,0.48828125q-0.9765625,0.537109375-2.734375,1.5869140625t-1.953125,1.1474609375q-0.87890625,0.537109375-2.6611328125,1.5869140625t-3.1494140625,1.904296875t-2.587890625,1.6845703125q1.708984375-0.9765625,5.029296875-2.978515625t5.029296875-3.02734375q0.68359375-0.341796875,1.953125-1.0986328125t1.953125-1.0986328125q0.09765625-0.048828125,0.537109375-0.244140625t0.7080078125-0.341796875t0.5859375-0.390625t0.3662109375-0.48828125z M171.7744140625,134.27734375l0.09765625-0.09765625q0-0.048828125-0.1953125,0.0732421875t-0.390625,0.2685546875l-0.1953125,0.146484375q0.1953125-0.09765625,0.68359375-0.390625q0.390625-0.244140625,1.1474609375-0.7568359375t1.1474609375-0.7568359375q-5.712890625,3.564453125-7.8125,5.078125q0.87890625-0.634765625,2.734375-1.7822265625t2.783203125-1.7822265625z M167.5751953125,135.7421875q0.048828125,0.048828125-0.1953125,0.1953125l0.1953125-0.1953125l-0.439453125,0.1953125q-0.439453125,0.244140625-0.8056640625,0.48828125t-0.3662109375,0.439453125q0.244140625-0.1953125,0.8056640625-0.5615234375t0.8056640625-0.5615234375z M166.7939453125,133.740234375q0.09765625-0.09765625,0.09765625-0.1953125q-0.09765625,0.09765625-0.09765625,0.1953125q0.78125-0.5859375,0.9765625-0.78125q-0.09765625,0.09765625-0.390625,0.09765625t-0.390625-0.09765625q-0.1953125,0.390625-0.1953125,0.78125z M167.4775390625,127.44140625l0-0.09765625l0,0.09765625l0,0.341796875q8.59375-7.03125,12.59765625-10.83984375q-1.3671875,0.78125-4.00390625,2.3193359375t-4.00390625,2.3193359375q-0.732421875,0.390625-2.05078125,1.1962890625t-2.05078125,1.1962890625q-0.48828125,0.244140625-0.48828125,1.07421875q0,0.244140625,0.048828125,0.8056640625t0.048828125,0.8056640625q0,0.5859375-0.09765625,0.78125z M167.4775390625,121.484375l0-0.146484375l0,0.146484375q0.048828125-0.146484375,0.3662109375-0.4150390625t0.732421875-0.5859375t0.5126953125-0.4150390625q1.171875-1.025390625,2.294921875-1.708984375q-0.29296875,0.146484375-3.61328125,2.001953125q-0.146484375,0.09765625-0.1953125,0.2685546875t-0.048828125,0.439453125t-0.048828125,0.4150390625z M167.6728515625,118.84765625l0.1953125-0.1953125l-0.1953125,0.1953125q0.537109375-0.537109375,1.6845703125-1.4404296875t1.5380859375-1.2451171875q-0.244140625,0.1953125-1.123046875,0.5859375t-1.4892578125,0.8544921875t-0.6103515625,0.9521484375l0,0.29296875z M160.7880859375,103.271484375l0.9765625-1.025390625q-0.9765625,0.830078125-0.9765625,1.025390625q3.369140625-3.22265625,6.982421875-6.396484375q-1.025390625,0.5859375-4.0771484375,2.294921875t-4.7119140625,2.685546875q0.09765625,0.09765625,0.8056640625,0.5615234375t1.0009765625,0.8544921875z M156.6865234375,100.537109375l-0.09765625-0.09765625l0.09765625,0.09765625q0-0.048828125-0.048828125-0.146484375t-0.048828125-0.146484375q0-0.439453125,0.537109375-1.220703125t1.171875-1.46484375t1.3671875-1.416015625t0.830078125-0.87890625q-1.123046875,0.634765625-3.369140625,1.9287109375t-3.369140625,1.9775390625q0.244140625,0.244140625,1.513671875,0.68359375t1.416015625,0.68359375z M150.6806640625,98.2421875l0.5859375-0.390625q-0.5859375,0.29296875-0.5859375,0.390625q4.248046875-3.22265625,5.810546875-4.6875q-4.4921875,2.5390625-7.51953125,4.39453125q0.830078125,0,1.708984375,0.29296875z M142.2822265625,95.166015625l-0.87890625,0.48828125q0.1953125-0.09765625,0.87890625-0.48828125q0.390625-0.244140625,1.318359375-0.927734375q-4.8828125,2.587890625-7.3974609375,3.955078125t-6.494140625,3.857421875t-6.9091796875,4.833984375q0.634765625-0.09765625,1.3427734375-0.3662109375t1.1962890625-0.48828125t1.26953125-0.634765625t1.171875-0.6103515625q5.029296875-3.02734375,6.494140625-4.00390625q0.09765625-0.048828125,0.634765625-0.537109375t0.78125-0.5859375l0-0.1953125q0-0.439453125,0.390625-0.5859375q0.68359375-0.68359375,1.220703125-0.830078125q0.78125-0.1953125,1.6357421875-0.68359375t1.85546875-1.1962890625t1.4892578125-1.0009765625z M121.6767578125,105.46875l0.1953125-0.1953125l-0.1953125,0.1953125q0.732421875-0.732421875,1.5380859375-1.4404296875t1.7822265625-1.46484375t1.6357421875-1.26953125t1.85546875-1.3427734375t1.6845703125-1.171875t1.8798828125-1.26953125t1.7333984375-1.171875q-3.3203125,1.806640625-8.203125,4.736328125q-1.07421875,0.537109375-4.00390625,2.294921875q-0.5859375,0.29296875-0.5859375,1.26953125q0,0.634765625,0.1953125,1.416015625q0.09765625-0.1953125,0.48828125-0.5859375z M121.0908203125,102.1484375l0.1953125-0.1953125l-0.1953125,0.1953125q0.830078125-0.830078125,1.8310546875-1.7822265625t1.708984375-1.5380859375t2.001953125-1.66015625t1.8310546875-1.513671875q-0.390625,0.244140625-2.392578125,1.5869140625t-3.3935546875,2.05078125t-2.7099609375,0.9521484375q0.09765625,0.244140625,0.341796875,1.025390625t0.48828125,1.171875z M110.5927734375,96.77734375q1.85546875-2.9296875,2.880859375-4.638671875q-0.1953125,0.146484375-0.927734375,0.5126953125t-1.2451171875,0.732421875t-0.6103515625,0.7568359375q0,0.09765625,0.048828125,0.439453125t0.048828125,0.5859375q0,1.025390625-0.1953125,1.611328125z M121.1884765625,120.947265625l0.09765625,0l0-0.09765625l-0.09765625,0.09765625q0-0.146484375,3.1005859375-2.4169921875t3.7841796875-2.7587890625q6.298828125-4.98046875,6.787109375-5.322265625q-1.904296875,1.171875-5.1513671875,3.564453125t-4.6142578125,3.271484375q-2.392578125,1.46484375-3.02734375,1.66015625q-0.830078125,0.390625-0.87890625,0.537109375q0.09765625,0.1953125,0.09765625,0.78125q0,0.48828125-0.09765625,0.68359375z M135.6904296875,113.76953125l-1.611328125,0.87890625l1.611328125-0.87890625q-4.8828125,2.734375-8.49609375,5.078125q-0.927734375,0.48828125-2.6123046875,1.5625t-2.1240234375,1.3671875q-0.09765625,0.048828125-0.3662109375,0.2197265625t-0.3662109375,0.2197265625t-0.29296875,0.2197265625t-0.244140625,0.2685546875t-0.1220703125,0.2685546875t-0.0732421875,0.3662109375l0,0.244140625q4.638671875-2.880859375,8.30078125-5.224609375q0.634765625-0.439453125,1.9287109375-1.2939453125t1.9775390625-1.2939453125q0.146484375-0.09765625,0.8544921875-0.5126953125t1.123046875-0.78125t0.5126953125-0.7080078125z M128.6591796875,124.365234375l-1.46484375,0.87890625q1.3671875-0.87890625,1.46484375-0.87890625q-4.052734375,2.44140625-5.6640625,3.80859375q1.07421875-0.634765625,5.6640625-3.80859375z M124.9970703125,130.46875l-0.439453125,0.29296875q-0.09765625,0,1.123046875-0.87890625q-0.09765625,0.09765625-0.68359375,0.5859375q-2.099609375,1.66015625-3.125,2.783203125q8.349609375-4.78515625,8.984375-5.17578125q0.68359375-0.390625,2.0751953125-1.1962890625t2.1240234375-1.1962890625q0.29296875-0.1953125,0.48828125-0.830078125t0.29296875-1.513671875t0.146484375-1.07421875q-0.439453125,0.341796875-4.6630859375,3.41796875t-6.3232421875,4.78515625z M135.3974609375,126.7578125q-1.7578125,1.513671875-5.2978515625,4.443359375t-5.2978515625,4.443359375q6.494140625-4.052734375,9.47265625-5.46875q0.09765625-0.048828125,0.3662109375-0.1708984375t0.439453125-0.1953125t0.341796875-0.244140625t0.1708984375-0.3173828125l0-0.29296875q0-0.29296875-0.09765625-0.9521484375t-0.09765625-0.9521484375l0-0.29296875z M126.9013671875,140.478515625l-0.439453125,0.1953125q0,0.048828125,0.8544921875-0.439453125t1.6845703125-0.9765625l0.87890625-0.48828125q-0.78125,0.390625-2.978515625,1.708984375q-3.759765625,2.34375-4.19921875,2.587890625q-0.1953125,0.146484375-0.634765625,0.341796875t-0.537109375,0.3173828125t-0.048828125,0.4150390625l0,0.537109375q1.5625-1.07421875,4.4677734375-2.83203125t4.0283203125-2.490234375q0.732421875-0.439453125,2.099609375-1.3427734375t2.099609375-1.3427734375q0.48828125-0.341796875,1.611328125-1.220703125q0-0.146484375-0.048828125-0.439453125t-0.048828125-0.439453125q-0.29296875,0.1953125-0.78125,0.78125t-0.830078125,0.830078125q-1.025390625,0.732421875-2.197265625,1.4404296875t-2.7099609375,1.5625t-2.2705078125,1.2939453125z M135.7880859375,137.451171875l0-0.09765625l0,0.09765625q0.1953125-0.09765625,0.1953125-0.48828125l0-0.390625q-0.1953125,0.146484375-0.6103515625,0.390625t-0.6103515625,0.390625q0.390625-0.1953125,0.634765625-0.1953125t0.390625,0.29296875z M130.3681640625,152.1484375l-0.5859375,0.48828125q-0.09765625,0,1.220703125-0.9765625q-0.146484375,0.09765625-0.634765625,0.48828125q-2.83203125,2.24609375-4.19921875,3.61328125q1.025390625-0.5859375,3.076171875-1.806640625t3.125-1.806640625q0.537109375-0.29296875,1.5869140625-0.9033203125t1.6357421875-0.9033203125q0.09765625-0.09765625,0.09765625-0.390625q0-0.146484375-0.09765625-0.634765625t-0.09765625-0.732421875l0-0.244140625q-2.587890625,1.85546875-5.126953125,3.80859375z M137.6923828125,150.78125q-0.634765625,0.48828125-0.634765625,0.5859375q0.048828125-0.048828125,0.1220703125-0.09765625l0.2197265625-0.146484375t0.244140625-0.1953125t0.048828125-0.146484375q-0.78125,0.5859375-2.2705078125,1.7822265625t-2.2216796875,1.7822265625q1.513671875-0.9765625,6.787109375-4.00390625q-0.09765625-0.09765625-0.29296875-0.09765625q-0.244140625,0-0.830078125,0.3173828125t-0.87890625,0.3173828125q-0.048828125,0-0.146484375-0.048828125t-0.146484375-0.048828125z M183.2978515625,127.24609375q-0.048828125,0.1953125-0.7568359375,0.5859375t-1.5869140625,0.830078125t-1.07421875,0.5859375q-0.830078125,0.439453125-2.294921875,1.3427734375t-1.708984375,1.0498046875q4.248046875-2.490234375,6.005859375-3.076171875q0.5859375-0.1953125,0.9765625-0.1953125q0.439453125-0.146484375,0.439453125-0.48828125l0-0.634765625z M166.4033203125,135.3515625q1.611328125-0.87890625,4.78515625-2.7099609375t4.78515625-2.7587890625q0.78125-0.48828125,2.8076171875-1.66015625t3.1005859375-1.85546875q0.146484375-0.09765625,0.4150390625-0.2197265625t0.390625-0.1708984375t0.29296875-0.146484375t0.2685546875-0.1708984375t0.1953125-0.1953125t0.146484375-0.244140625t0.0732421875-0.29296875t0.0244140625-0.3662109375q0-0.48828125-0.09765625-0.78125q-4.6875,2.9296875-10.595703125,6.787109375q-0.78125,0.48828125-2.197265625,1.4892578125t-2.197265625,1.4892578125q-0.146484375,0.09765625-0.7080078125,0.48828125t-0.9765625,0.732421875t-0.5126953125,0.5859375z M183.3955078125,118.26171875q-0.341796875-0.78125-0.634765625-3.61328125q-0.1953125-0.439453125-0.3662109375-1.3916015625t-0.2197265625-1.0986328125q-4.296875,2.63671875-9.1796875,6.103515625q-3.02734375,2.24609375-4.296875,3.515625q-1.318359375,0.87890625-1.318359375,1.26953125l0,0.09765625q2.197265625-1.26953125,6.640625-3.80859375t6.640625-3.857421875q0.09765625-0.048828125,0.634765625-0.390625t0.78125-0.341796875q0.341796875,0,0.48828125,0.29296875q0.390625,0.87890625-2.294921875,3.02734375q-3.564453125,3.369140625-12.3046875,10.498046875q2.587890625-0.830078125,6.8359375-3.7109375q1.708984375-1.07421875,6.201171875-4.1015625q0.29296875-0.244140625,2.197265625-1.611328125q0.29296875-0.146484375,0.29296875-0.29296875q0-0.09765625-0.048828125-0.2685546875t-0.048828125-0.3173828125z M181.4912109375,109.86328125q0,0.048828125-2.44140625,1.806640625t-5.1513671875,3.662109375t-3.1005859375,2.24609375q2.490234375-1.513671875,7.666015625-4.541015625q0.48828125-0.29296875,1.46484375-0.830078125t1.46484375-0.830078125q0.390625-0.244140625,0.390625-0.537109375q0-0.146484375-0.1220703125-0.48828125t-0.1708984375-0.48828125z M175.1923828125,111.181640625l0.78125-0.634765625l-1.26953125,0.927734375q0.1953125-0.09765625,0.48828125-0.29296875q3.3203125-2.44140625,4.19921875-3.02734375q0.1953125-0.146484375,0.48828125-0.29296875t0.439453125-0.2685546875t0.146484375-0.3173828125q0-0.244140625-0.29296875-0.537109375q-3.125,2.685546875-10.009765625,7.91015625q2.197265625-1.46484375,5.029296875-3.466796875z M179.0009765625,104.8828125q0-0.048828125-0.048828125,0.09765625q-0.1953125,0.390625-0.29296875,0.48828125q-0.146484375,0.1953125-0.341796875,0.390625t-0.439453125,0.4150390625t-0.390625,0.3662109375q-2.05078125,1.66015625-8.0078125,5.224609375q1.904296875-0.87890625,5.517578125-3.3203125q0.48828125-0.341796875,1.85546875-1.318359375t2.1484375-1.46484375q0.29296875-0.29296875,0.29296875-0.390625q0-0.048828125-0.29296875-0.48828125z M176.9990234375,101.953125q0.048828125,0.146484375-1.2939453125,1.4404296875t-1.6357421875,1.4892578125q-3.125,2.734375-4.8828125,4.1015625q0.830078125-0.439453125,2.44140625-1.416015625t2.44140625-1.416015625q0.341796875-0.1953125,1.1474609375-0.7568359375t1.513671875-0.9033203125t1.3427734375-0.341796875q0.09765625,0,0.244140625,0.048828125t0.244140625,0.048828125q-0.244140625-0.390625-0.78125-1.1474609375t-0.78125-1.1474609375z M174.9970703125,99.267578125q-0.1953125-0.146484375-0.5126953125-0.5615234375t-0.5126953125-0.5615234375q-1.66015625,1.904296875-6.591796875,6.005859375q0.439453125-0.244140625,2.24609375-1.3671875t3.61328125-2.2705078125t1.7578125-1.2451171875z M171.7744140625,96.484375q-0.1953125-0.048828125-0.6103515625-0.390625t-0.7080078125-0.341796875q-0.1953125,0-0.48828125,0.29296875q-0.634765625,0.634765625-2.001953125,1.806640625q-3.125,2.9296875-4.8828125,4.4921875q0.48828125-0.29296875,3.9306640625-2.34375t5.3466796875-3.125q-0.390625-0.1953125-0.5859375-0.390625z M163.2783203125,93.1640625q0.146484375,0-0.87890625,1.2939453125t-1.318359375,1.5869140625q-0.390625,0.439453125-1.1962890625,1.416015625t-1.1962890625,1.416015625q3.466796875-1.953125,8.10546875-4.736328125q-0.5859375-0.09765625-1.7578125-0.5126953125t-1.7578125-0.4638671875z M161.4716796875,92.67578125l-0.87890625,0q-1.611328125,0-1.904296875-0.29296875q-0.09765625,0.390625-0.4150390625,0.8056640625t-0.6103515625,0.68359375t-0.8056640625,0.6591796875t-0.6591796875,0.537109375q-0.537109375,0.537109375-4.39453125,3.61328125q0.1953125,0.09765625,0.732421875-0.1708984375t1.025390625-0.6103515625t1.0986328125-0.78125t0.7080078125-0.537109375q3.125-2.24609375,3.61328125-2.5390625q0-0.048828125,0.4638671875-0.3662109375t1.123046875-0.6103515625t1.0009765625-0.29296875q0.29296875,0,0.29296875,0.29296875q0,0.1953125-0.09765625,0.29296875q0.146484375-0.048828125,0.4150390625-0.1953125t0.4150390625-0.1953125q-0.9765625-0.244140625-1.123046875-0.29296875z M145.8955078125,91.943359375l-1.220703125,0.634765625q0.341796875-0.146484375,1.220703125-0.634765625q-1.3671875,0.341796875-2.294921875,0.341796875l-0.537109375,0q-0.1953125,0-0.634765625-0.0732421875t-0.634765625-0.0732421875l-0.29296875,0q-6.25,4.248046875-7.421875,5.126953125q-7.12890625,5.029296875-10.302734375,7.6171875q3.22265625-2.34375,7.32421875-4.8095703125t7.03125-4.052734375t7.763671875-4.0771484375z M136.0810546875,92.28515625l-0.78125,0q-1.220703125,0-1.611328125,0.29296875q-0.5859375,0.48828125-1.708984375,1.4404296875t-1.708984375,1.4404296875q-4.296875,3.515625-6.591796875,5.615234375q9.08203125-5.322265625,15.185546875-8.7890625q-0.244140625-0.244140625-0.78125-0.244140625q-0.244140625,0-0.830078125,0.1220703125t-0.87890625,0.1220703125l-0.29296875,0z M115.9638671875,92.041015625l-0.09765625,0.09765625l0.09765625-0.09765625q-0.244140625,0.244140625-0.48828125,0.244140625q-0.09765625,0-0.3173828125-0.0732421875t-0.2685546875-0.0732421875q-0.146484375,0-0.390625,0.244140625q-0.146484375,0.244140625-0.4638671875,0.732421875t-0.4638671875,0.732421875q-0.29296875,0.439453125-0.9033203125,1.416015625t-0.9033203125,1.416015625q2.880859375-1.611328125,7.51953125-4.39453125l-0.29296875,0q-0.146484375,0-0.5126953125,0.048828125t-0.5126953125,0.048828125q-0.29296875,0-0.5859375-0.1708984375t-0.390625-0.1708984375l-0.1953125,0l-0.830078125,0z M121.9697265625,127.783203125l-0.09765625,0.09765625l0.09765625-0.09765625q-0.390625,0-0.390625,0.390625l0,0.09765625q0.09765625-0.1953125,0.390625-0.48828125z M121.6767578125,136.572265625l0,0.390625q8.056640625-6.689453125,9.716796875-8.0078125q-1.904296875,1.025390625-6.201171875,3.515625q-0.5859375,0.29296875-1.611328125,0.9033203125t-1.611328125,0.9033203125q-0.390625,0.244140625-0.390625,0.78125q0,0.1953125,0.048828125,0.6103515625t0.048828125,0.6103515625l0,0.29296875z M117.9658203125,150.244140625l0,0.1953125l0-0.1953125q-0.048828125,0.439453125-0.48828125,0.7568359375t-0.48828125,0.3662109375q-0.341796875,0.5859375-1.025390625,1.26953125q-1.416015625,1.806640625-2.685546875,3.22265625q11.279296875-7.91015625,17.48046875-11.279296875q3.076171875-1.708984375,4.443359375-2.197265625q0.439453125-0.146484375,0.5859375-0.8056640625t0.146484375-1.6357421875t0.048828125-1.26953125q-8.0078125,5.17578125-12.20703125,7.568359375q-2.9296875,1.46484375-3.076171875,1.513671875q0,1.46484375-0.927734375,2.099609375q-0.390625,0.244140625-1.0009765625,0.29296875t-0.8056640625,0.09765625z M111.0810546875,156.73828125q0.341796875-0.048828125,0.9033203125-0.634765625t1.220703125-1.4892578125t0.7568359375-1.0498046875q1.025390625-1.171875,2.294921875-2.783203125q-0.09765625-0.146484375-0.6103515625,0.0732421875t-1.1962890625,0.6591796875t-1.318359375,0.87890625t-1.1962890625,0.830078125t-0.6591796875,0.439453125q-0.68359375,0.390625-0.68359375,2.099609375q0,0.1953125,0.048828125,0.5859375t0.048828125,0.537109375q0.146484375-0.146484375,0.390625-0.146484375z M112.5947265625,150.9765625l-0.29296875,0.1953125q0-0.09765625,0.29296875-0.1953125l-0.1953125,0q-0.09765625,0-0.439453125,0.048828125t-0.48828125,0.048828125l-0.1953125,0q-0.5859375,0-0.5859375,0.48828125l0,0.5859375q0.87890625-0.5859375,1.904296875-1.171875z M117.1845703125,156.4453125l0.09765625,0l-0.09765625-0.09765625l-0.09765625,0q0.09765625,0,0.09765625,0.09765625q0.1953125-0.09765625,0.5859375-0.09765625q0.1953125,0,0.634765625,0.048828125t0.5859375,0.048828125q0.29296875,0.048828125,0.7568359375-0.2197265625t1.0498046875-0.7080078125t0.78125-0.537109375q1.025390625-0.732421875,3.1982421875-2.1240234375t3.1982421875-2.0751953125q0.5859375-0.439453125,2.7587890625-2.0263671875t3.3447265625-2.5146484375q1.318359375-1.025390625,1.416015625-1.3671875l0-1.611328125q-2.880859375,1.07421875-7.71484375,4.1015625q-6.103515625,3.662109375-13.916015625,9.27734375q0.341796875,0.048828125,0.830078125-0.2197265625t0.68359375-0.2685546875q0.048828125,0,0.146484375,0.048828125t0.146484375,0.048828125l0.1953125,0q0.146484375,0,0.390625-0.048828125t0.341796875-0.048828125q0.29296875,0,0.5859375,0.29296875z M124.0693359375,156.640625q0.1953125,0,0.3173828125-0.146484375t0.2685546875-0.390625t0.244140625-0.341796875q-0.244140625,0.146484375-0.7568359375,0.439453125t-0.7568359375,0.439453125l0.48828125,0l0.1953125,0z M127.4873046875,156.73828125l0.09765625-0.09765625l-0.09765625,0.09765625q0.1953125-0.1953125,0.68359375-0.1953125l0.390625,0q0.341796875,0,0.439453125-0.09765625q0.048828125-0.048828125,0.634765625-0.537109375t0.927734375-0.732421875q0.341796875-0.29296875,1.6357421875-1.3671875t2.0751953125-1.66015625q-1.416015625,0.78125-4.1748046875,2.392578125t-4.1259765625,2.44140625q0.09765625,0.09765625,0.29296875,0.09765625q0.146484375,0,0.537109375-0.1708984375t0.5859375-0.1708984375l0.09765625,0z M138.1806640625,156.25q0.48828125-0.146484375,0.9033203125-1.025390625t0.78125-2.294921875t0.4150390625-1.5625q-5.76171875,3.22265625-9.1796875,5.2734375l0.1953125,0q0.1953125,0,0.634765625-0.1953125t0.634765625-0.1953125l1.318359375,0l0.5859375,0q0.1953125,0,0.48828125,0.146484375t0.439453125,0.146484375t0.4150390625-0.09765625t0.4638671875-0.09765625q0.29296875,0.048828125,0.8056640625-0.0732421875t0.7080078125-0.1220703125q0.29296875,0,0.390625,0.09765625z M145.4560546875,156.884765625q0.09765625,0,0.390625-0.0732421875t0.439453125-0.0732421875l0.1953125,0q0.244140625-0.09765625,0.5126953125-0.1220703125t0.3662109375-0.146484375t0.341796875-0.5126953125q1.7578125-2.44140625,3.271484375-5.419921875l-0.1953125,0q-0.390625,0-0.5859375-0.09765625q-0.048828125,0.048828125-0.1953125,0.1220703125t-0.244140625,0.146484375t-0.1953125,0.0732421875q-0.48828125,0.390625-1.46484375,0.9765625q-0.48828125,0.341796875-1.513671875,1.0498046875t-1.513671875,1.0498046875q-2.978515625,2.05078125-4.39453125,2.783203125q0.48828125,0.244140625,0.830078125,0.244140625q0.29296875,0,0.830078125-0.1220703125t0.732421875-0.1220703125q0.390625,0.048828125,1.1962890625,0.1220703125t1.1962890625,0.1220703125z M154.9775390625,156.34765625l-0.09765625,0l0.09765625,0l0.29296875,0q0.390625,0,1.123046875-0.09765625t1.07421875-0.09765625q0.87890625,0.09765625,2.294921875-0.9765625q0.78125-0.5859375,2.197265625-1.611328125t2.6123046875-1.9287109375t2.2216796875-1.6845703125q5.859375-4.150390625,11.572265625-8.7890625q-1.904296875,1.07421875-5.6396484375,3.41796875t-5.6396484375,3.466796875q-3.80859375,2.24609375-14.990234375,8.49609375l0.48828125,0q0.341796875,0,1.0498046875-0.09765625t1.0498046875-0.09765625l0.29296875,0z M167.4775390625,156.640625l0.29296875,0l-0.29296875,0q0.830078125,0,2.294921875-1.46484375q-0.390625,0.390625-1.1962890625,0.927734375t-1.0986328125,0.537109375z"/><path fill="#" d=""/></svg>
